<svg width="247" height="270" viewBox="0 0 247 270" fill="none" xmlns="http://www.w3.org/2000/svg">
<path d="M191.404 245.66C222.265 241.231 225.818 201.57 231.195 184.026C244.921 139.239 289.373 129.634 290.003 92.2315C290.108 86.138 279 86.2624 274.148 80.9437C243.66 47.4915 297.52 21.0225 274.148 4.74125C250.776 -11.54 229.428 18.3727 201.987 30.3876C178.061 40.8623 130.752 -0.835701 96.9498 15.3499C31.2551 46.8028 53.1565 145.15 74.9815 145.15C164.87 145.15 116.139 204.89 127.81 224.06C155.576 269.613 176.236 236.018 191.404 245.66Z" fill="#557A69"/>
<path d="M39.6127 176.804C2.86832 89.1226 79.0792 129.118 79.4803 114.176C81.1423 52.6189 115.422 61.9552 124.62 75.3189C133.293 87.9268 128.154 104.772 146.589 118.787C211.51 168.147 184.355 192.186 162.329 199.409C140.313 206.631 166.16 240.207 152.176 255.092C129.1 279.648 47.8842 268.427 19.8317 249.783C-40.7913 209.501 58.7155 222.396 39.6127 176.804Z" fill="#D57938"/>
<path d="M41.8476 19.9511C60.769 29.6701 77.5986 43.7321 90.5981 60.7212C103.598 77.7104 112.796 97.6363 117.247 118.461C98.3253 108.742 81.4956 94.6804 68.4961 77.6912C55.4966 60.7021 46.3082 40.7762 41.8476 19.9511ZM40.606 18.3249C49.4315 62.3666 78.3246 100.114 118.498 120.088C109.682 76.0459 80.7793 38.2891 40.606 18.3249Z" fill="#1F3A35"/>
<path d="M144.688 27.2213C149.807 43.8278 151.307 61.7257 149.015 79.1166C146.722 96.5075 140.638 113.401 131.383 128.104C126.263 111.497 124.764 93.5995 127.056 76.2085C129.348 58.8176 135.442 41.9241 144.688 27.2213ZM144.965 25.1454C124.792 56.0818 119.654 95.0535 131.115 130.18C151.288 99.2434 156.427 60.2621 144.965 25.1454Z" fill="#1F3A35"/>
<path d="M173.438 68.087C178.557 84.6936 180.057 102.591 177.765 119.982C175.472 137.373 169.388 154.267 160.133 168.97C155.013 152.363 153.513 134.465 155.806 117.074C158.098 99.6834 164.182 82.7899 173.438 68.087ZM173.715 66.0112C153.542 96.9475 148.403 135.919 159.865 171.045C180.028 140.109 185.176 101.137 173.715 66.0112Z" fill="#1F3A35"/>
<path d="M196.858 127.731C201.519 142.922 202.875 159.279 200.783 175.178C198.692 191.077 193.133 206.526 184.699 219.975C180.038 204.785 178.681 188.427 180.773 172.528C182.865 156.63 188.414 141.19 196.858 127.731ZM197.135 125.655C178.615 154.056 173.906 189.823 184.422 222.061C202.933 193.659 207.651 157.892 197.135 125.655Z" fill="#1F3A35"/>
<path d="M119.577 205.598V206.487C140.762 206.487 161.279 212.389 179.025 223.572C168.48 226.825 157.506 228.47 146.369 228.47C125.174 228.47 104.667 222.568 86.9113 211.385C97.456 208.133 108.431 206.487 119.568 206.487L119.577 205.598ZM119.577 205.598C107.886 205.598 96.1475 207.415 84.8481 211.117C103.254 223.151 124.754 229.369 146.378 229.369C158.069 229.369 169.808 227.552 181.107 223.85C162.702 211.816 141.202 205.598 119.577 205.598Z" fill="#1F3A35"/>
<path d="M87.5894 158.131C112.71 158.131 137.028 165.162 158.05 178.478C145.5 182.381 132.433 184.361 119.176 184.361C94.0462 184.361 69.7283 177.33 48.7056 164.014C61.2561 160.112 74.3225 158.131 87.5894 158.131ZM87.5799 157.242C73.7972 157.242 59.9572 159.384 46.6425 163.747C68.3338 177.933 93.6832 185.26 119.176 185.26C132.959 185.26 146.799 183.118 160.113 178.756C138.422 164.56 113.082 157.232 87.5799 157.242Z" fill="#1F3A35"/>
<path d="M62.5456 114.338V115.228C85.6983 115.228 108.116 121.695 127.505 133.949C115.957 137.526 103.932 139.344 91.7443 139.344C68.5821 139.344 46.1649 132.877 26.7755 120.623C38.3232 117.046 50.3389 115.228 62.5361 115.228L62.5456 114.338ZM62.5456 114.338C49.804 114.338 37.0146 116.319 24.7124 120.346C44.7609 133.461 68.1905 140.224 91.7539 140.224C104.496 140.224 117.285 138.244 129.597 134.217C109.529 121.111 86.109 114.338 62.5456 114.338Z" fill="#1F3A35"/>
<path d="M112.987 116.826C127.161 131.146 139.998 147.293 151.154 164.828C160.085 178.861 167.965 193.793 174.565 209.233C185.797 235.482 189.475 254.221 189.503 254.403C189.694 255.379 190.439 256.096 191.347 256.278C191.643 256.336 191.958 256.345 192.273 256.278C193.553 256.02 194.394 254.757 194.145 253.466C193.992 252.681 190.334 234.028 178.901 207.31C172.196 191.641 164.201 176.469 155.128 162.216C143.79 144.404 130.733 127.989 116.33 113.43" stroke="#1F3A35" stroke-width="0.9315" stroke-miterlimit="10"/>
</svg>
