<svg width="328" height="362" viewBox="0 0 328 362" fill="none" xmlns="http://www.w3.org/2000/svg">
<path d="M-9.20633 193.688C-50.6583 275.719 -74.2147 215.947 -87.9606 210.439C-96.6321 206.958 -117.11 206.203 -132.187 211.317C-147.872 216.646 -157.694 228.35 -142.2 250.013C-142.177 250.046 -142.155 250.08 -142.121 250.125C-137.701 256.276 -134.07 270.143 -131.781 280.834C-130.089 288.742 -129.131 294.904 -129.131 294.904C-115.689 318.109 -72.1285 332.585 -30.8006 330.186C10.5273 327.786 -15.6113 292.425 14.4177 273.275C44.4467 254.113 15.3649 296.436 49.0813 324.891C50.3555 325.972 51.6636 326.919 52.9942 327.764C86.7106 349.021 115.409 304.625 135.391 295.174C145.72 290.285 170.235 293.146 181.387 295.737C203.489 300.852 243.204 325.274 265.825 327.73C281.082 329.386 316.783 320.34 323.548 307.171C345.729 264.026 278.003 182.141 238.547 152.672C215.419 135.403 152.226 115.587 121.194 111.735C82.606 106.958 32.2457 111.645 -9.20633 193.688Z" fill="#D57938"/>
<path d="M23.8394 32.145C2.12053 5.52141 -22.6399 11.5543 -30.041 20.9813C-42.41 36.7344 -8.70513 78.2767 -8.15314 93.3532C-6.76755 131.58 -47.2877 137.624 -42.9845 173.291C-37.6562 217.427 -1.68704 188.932 -0.977345 234.218C-0.808369 245.178 8.02339 295.302 27.8047 290.712C52.5426 284.973 45.7048 272.963 92.3419 261.236C100.554 259.172 107.336 256.477 112.9 253.297C113.103 253.185 113.306 253.061 113.498 252.948C152.136 230.282 145.535 189.157 128.108 174.442C108.124 157.561 82.4963 154.043 98.1659 131.445C113.835 108.836 125.472 132.809 160.968 99.5439C165.339 95.4506 169.575 79.8215 168.944 75.4914C166.364 57.81 137.143 42.8801 105.353 41.0307C62.4671 38.5274 68.9895 87.5007 23.8394 32.145Z" fill="#DF9C45"/>
<path d="M214.182 45.2704C214.217 45.2779 214.281 45.3045 214.289 45.3932C214.755 52.3637 215.955 77.2382 211.704 106.503C207.822 108.264 203.662 109.864 199.339 111.255C187.354 115.106 168.036 119.215 144.086 116.932C140.666 116.605 137.167 117.641 134.252 119.838C131.337 122.035 129.333 125.141 128.619 128.593C127.275 135.129 130.989 141.083 137.274 142.462C137.764 142.57 138.264 142.642 138.773 142.692C144.667 143.251 150.621 143.513 156.47 143.465C173.377 143.331 189.874 140.681 205.5 135.588C205.526 135.581 205.553 135.575 205.587 135.582C205.621 135.59 205.727 135.638 205.689 135.754C199.185 159.41 189.403 178.764 176.593 193.309C169.227 186.019 157.027 176.834 139.767 173.045C134.2 171.823 128.379 171.23 122.458 171.274C120.037 171.29 117.821 171.09 115.874 170.663C114.507 170.363 113.24 169.948 112.09 169.434C111.335 169.094 110.53 168.831 109.711 168.651C105.419 167.709 100.773 169.041 97.2964 172.209C94.5864 174.675 92.901 177.926 92.5476 181.357C92.0157 186.491 94.5844 191.136 99.0928 193.171C101.73 194.36 104.573 195.294 107.567 195.952C111.358 196.784 115.472 197.189 119.802 197.156C123.814 197.129 127.745 197.531 131.502 198.356C138.891 199.978 145.806 203.274 152.071 208.146C153.247 209.063 154.412 210.053 155.532 211.07C155.569 211.104 155.581 211.143 155.577 211.192C155.573 211.241 155.547 211.285 155.486 211.322C146.984 216.61 137.515 220.529 127.306 222.979C107.882 227.637 89.8474 228.195 73.7034 224.652C50.4324 219.544 36.263 206.903 29.8918 199.819C26.2035 195.724 24.4353 192.773 24.4391 192.762C24.2494 192.409 4.9897 157.051 11.5598 119.797C11.5712 119.725 11.6015 119.707 11.6167 119.698C11.6622 119.67 11.7306 119.648 11.7875 119.66C11.8216 119.668 11.8444 119.673 11.8672 119.752C14.0825 128.277 17.5693 135.487 22.2442 141.191C23.8493 143.149 26.0579 144.492 28.6082 145.052C29.519 145.252 30.4753 145.35 31.4279 145.347C34.6689 145.324 37.9139 144.096 40.5366 141.897C46.3323 137.047 47.5515 128.841 43.2713 123.609C32.8401 110.881 34.7257 83.8838 36.336 74.5571C36.3512 74.4733 36.3663 74.3896 36.3777 74.3174C36.3777 74.2801 36.4005 74.2478 36.4347 74.2179C38.3552 72.4123 40.42 70.6134 42.5986 68.8768C48.4588 64.2031 54.6795 60.2555 61.0936 57.1716C61.1354 57.1559 61.1619 57.1493 61.1961 57.1568C61.2188 57.1618 61.2947 57.1909 61.3023 57.2797C62.0292 72.2954 65.594 93.7447 78.4156 110.619C80.0359 112.754 82.3241 114.189 85.0338 114.784C85.9446 114.984 86.9009 115.082 87.8535 115.079C90.9503 115.05 94.0625 113.929 96.613 111.913C102.545 107.242 104.03 99.0454 99.936 93.655C89.2089 79.555 87.42 59.7273 87.315 49.1531C87.3188 49.0668 87.3796 48.9931 87.4555 48.9848C107.251 45.802 126.887 48.2952 145.881 50.6973C171.069 53.8989 194.868 56.9076 214.103 45.2902C214.095 45.2761 214.137 45.2604 214.182 45.2704ZM56.5173 114.335C57.69 114.593 58.8665 114.465 59.8912 113.981C63.6183 112.211 64.7348 106.26 62.4394 100.443C60.8422 96.4096 58.0189 93.5129 55.0588 92.8632C53.8862 92.6059 52.7135 92.7218 51.6849 93.2177C49.8062 94.1118 48.5271 96.0831 48.1017 98.7644C47.7067 101.241 48.0745 104.071 49.1368 106.756C50.7378 110.778 53.5572 113.686 56.5173 114.335ZM169.794 174.286C174.53 175.325 178.724 174.105 180.246 171.242C182.178 167.61 179.177 162.795 173.413 160.273C172.346 159.803 171.253 159.451 170.149 159.209C165.413 158.169 161.219 159.389 159.697 162.252C158.718 164.09 158.972 166.261 160.387 168.389C161.688 170.341 163.87 172.065 166.531 173.221C167.586 173.689 168.69 174.043 169.794 174.286ZM214.509 44.272C214.224 44.2095 213.89 44.2606 213.587 44.4429C180.574 64.3838 134.023 40.4673 87.3569 47.9802C86.7269 48.0784 86.2221 48.6519 86.2334 49.289C86.3383 60.1618 88.1917 80.0907 99.0402 94.3418C102.82 99.3146 101.456 106.842 95.9831 111.152C93.5312 113.09 90.6696 114.042 87.9144 114.072C87.0339 114.078 86.161 113.986 85.3185 113.801C82.9277 113.276 80.7722 111.994 79.2278 109.963C66.3948 93.0868 62.9856 71.4975 62.2891 57.1354C62.2588 56.631 61.9135 56.2691 61.4694 56.1716C61.219 56.1167 60.9419 56.1429 60.6649 56.2812C54.3646 59.3155 48.1136 63.2066 41.9497 68.1371C39.737 69.9035 37.6608 71.6999 35.7175 73.5379C35.5049 73.7401 35.3569 74.0062 35.3113 74.2949C35.2999 74.367 35.2885 74.4392 35.2771 74.5113C33.6479 83.9708 31.7546 111.327 42.4021 124.327C46.3636 129.153 45.228 136.693 39.8839 141.169C37.3675 143.266 34.3768 144.315 31.5001 144.343C30.6196 144.349 29.7468 144.257 28.9043 144.072C26.6387 143.574 24.5743 142.387 23.0488 140.522C18.4347 134.893 15.0313 127.838 12.8539 119.422C12.7477 119 12.4479 118.76 12.095 118.683C11.4688 118.545 10.668 118.942 10.5237 119.756C3.82071 157.79 23.5017 193.352 23.5017 193.352C23.5017 193.352 25.2698 196.341 29.072 200.572C36.1717 208.451 50.3488 220.621 73.3579 225.671C87.7714 228.835 105.646 229.212 127.416 223.986C138.168 221.406 147.618 217.359 155.934 212.191L155.949 212.182C156.651 211.752 156.803 210.802 156.256 210.309C155.198 209.33 154.021 208.338 152.75 207.337C146.36 202.363 139.347 199.032 131.821 197.381C127.973 196.536 123.996 196.123 119.897 196.157C115.43 196.197 111.438 195.756 107.886 194.976C104.812 194.302 102.057 193.361 99.6014 192.25C95.1917 190.249 93.1012 185.859 93.5723 181.358C93.8801 178.365 95.3264 175.323 97.9491 172.937C101.198 169.98 105.521 168.814 109.392 169.663C110.143 169.828 110.883 170.065 111.581 170.393C112.792 170.945 114.116 171.372 115.551 171.687C117.589 172.134 119.862 172.347 122.359 172.323C128.526 172.27 134.219 172.923 139.445 174.07C156.852 177.89 169.075 187.23 176.486 194.754C176.513 194.785 176.543 194.804 176.558 194.832C191.513 178.244 200.863 157.116 206.687 135.948C206.866 135.29 206.486 134.734 205.917 134.609C205.724 134.567 205.503 134.568 205.283 134.644C192.744 138.736 176.223 142.314 156.587 142.471C150.971 142.519 145.107 142.278 139.001 141.696C138.526 141.655 138.075 141.58 137.619 141.48C131.904 140.226 128.402 134.779 129.655 128.708C131.003 122.161 137.383 117.352 143.892 117.972C168.006 120.279 187.483 116.13 199.574 112.252C204.892 110.545 209.29 108.735 212.653 107.184C217.04 77.4266 215.791 52.0312 215.336 45.2499C215.279 44.7148 214.941 44.3669 214.509 44.272ZM56.8438 113.337C54.2936 112.777 51.6222 110.126 50.1198 106.287C48.0483 101.055 48.9142 95.6081 52.0605 94.1213C52.8993 93.7206 53.8139 93.6476 54.7475 93.8525C57.2978 94.4123 59.9692 97.064 61.4868 100.893C63.5469 106.123 62.6809 111.57 59.546 113.059C58.6921 113.469 57.7774 113.542 56.8438 113.337ZM170.121 173.287C169.096 173.062 168.06 172.723 167.035 172.274C161.859 170.006 158.983 165.704 160.608 162.639C161.91 160.187 165.705 159.291 169.826 160.195C170.851 160.42 171.887 160.76 172.912 161.208C178.088 163.477 180.964 167.779 179.339 170.844C178.037 173.295 174.242 174.192 170.121 173.287Z" fill="#1F3A35"/>
<path d="M149.319 85.0567C149.801 85.1646 150.189 85.4577 150.432 85.8759C150.671 86.3054 150.727 86.8276 150.576 87.3396C150.424 87.8516 150.083 88.2969 149.627 88.5832C127.508 102.584 106.297 119.117 86.5864 137.721C70.8209 152.61 55.9842 168.859 42.4691 186.01C19.4919 215.189 8.25787 237.085 8.1418 237.301C7.7683 238.03 7.01776 238.506 6.23998 238.513C6.09758 238.518 5.9624 238.5 5.83084 238.47C5.7212 238.446 5.61517 238.41 5.51275 238.363C5.05923 238.164 4.7183 237.797 4.56684 237.314C4.41538 236.831 4.46823 236.297 4.71482 235.819C5.17899 234.916 16.2571 213.325 39.5141 183.784C53.1565 166.455 68.1496 150.047 84.0715 134.999C103.989 116.187 125.423 99.4728 147.79 85.3211C148.267 85.0397 148.804 84.9414 149.319 85.0567ZM149.618 84.0804C148.884 83.916 148.055 84.0461 147.319 84.5123C124.891 98.7108 103.384 115.469 83.4154 134.331C67.4462 149.416 52.4167 165.865 38.738 183.234C15.4228 212.847 4.27567 234.544 3.81886 235.461C3.05382 236.976 3.58587 238.696 5.02318 239.309C5.17681 239.38 5.33766 239.428 5.50211 239.465C5.71043 239.511 5.915 239.533 6.12679 239.531C7.26973 239.52 8.42849 238.833 9.00138 237.7C9.11745 237.483 20.2971 215.685 43.2088 186.6C56.6731 169.498 71.4843 153.292 87.2061 138.43C106.855 119.873 128.004 103.387 150.065 89.4211C151.504 88.5178 152.045 86.6735 151.288 85.3274C150.939 84.6548 150.32 84.2374 149.618 84.0804Z" fill="#1F3A35"/>
<path d="M22.3842 279.531C22.4055 279.589 22.4714 279.596 22.4986 279.601C22.576 279.606 22.5862 279.565 22.5963 279.524C23.9128 273.443 26.1707 268.231 29.3209 264.026C30.7888 262.061 33.1211 260.858 35.6992 260.725C38.0037 260.604 40.3226 261.337 42.2566 262.77C43.8661 263.974 45.076 265.565 45.7493 267.378C46.7976 270.201 46.4095 273.237 44.7243 275.502C37.7087 284.876 39.824 303.768 41.2473 310.254L41.284 310.421L40.5645 310.49L41.3326 310.483C42.7487 311.677 44.2723 312.855 45.852 313.979C50.1393 317.02 54.6591 319.53 59.2926 321.428C59.3355 321.441 59.3627 321.447 59.3929 321.426C59.423 321.405 59.4374 321.376 59.4361 321.338C59.5105 310.757 61.4111 295.535 70.0127 283.152C71.4796 281.048 73.8594 279.769 76.5608 279.628C78.7535 279.512 80.9852 280.181 82.8609 281.49C84.6022 282.709 85.8878 284.368 86.5995 286.284C87.6222 289.038 87.3134 291.914 85.74 294.174C78.5578 304.528 77.8619 318.538 78.1071 326C78.1199 326.035 78.1599 326.074 78.21 326.073C92.3279 327.489 106.163 324.914 119.539 322.426C137.287 319.127 154.057 316.019 168.02 323.376C168.067 323.401 168.113 323.389 168.136 323.383C168.177 323.359 168.188 323.318 168.183 323.307C168.317 318.394 168.431 300.879 164.568 280.479C161.766 279.396 158.776 278.454 155.675 277.655C147.073 275.446 133.264 273.365 116.372 275.976C111.76 276.687 107.037 273.866 105.387 269.426C105.268 269.104 105.168 268.765 105.083 268.435C103.833 263.507 106.872 258.865 111.856 258.103C116.015 257.465 120.223 257.028 124.367 256.823C136.356 256.215 148.11 257.389 159.327 260.314C159.37 260.328 159.405 260.318 159.431 260.286C159.468 260.251 159.462 260.202 159.458 260.19C158.848 258.309 158.208 256.45 157.539 254.648C152.412 240.845 145.566 229.518 137.171 220.962C130.096 228.647 117.917 237.758 99.4575 238.698C96.5211 238.852 94.1278 239.415 92.1672 240.428C88.8488 242.139 84.6995 241.613 81.6041 239.094C80.1578 237.921 79.0708 236.423 78.4572 234.77C78.227 234.151 78.0657 233.513 77.9661 232.87C77.4432 229.286 79.1206 225.911 82.261 224.299C86.4132 222.146 91.3119 220.915 96.8151 220.631C105.27 220.201 112.854 217.153 119.358 211.569C120.16 210.871 120.96 210.136 121.725 209.372C121.762 209.336 121.757 209.287 121.748 209.264C121.731 209.219 121.704 209.213 121.684 209.193C115.509 205.832 108.686 203.481 101.383 202.183C83.9131 199.089 68.332 200.434 55.055 206.18C44.0637 210.937 37.0222 217.691 33.0447 222.525C30.5445 225.555 29.3841 227.702 29.3883 227.713C29.2585 227.976 16.6536 253.626 22.3914 279.517L22.3842 279.531ZM59.2066 284.259C59.9098 286.153 59.8331 288.599 59.0129 290.982C57.5493 295.17 54.2945 297.597 51.6042 296.509C50.5195 296.072 49.6958 295.146 49.2057 293.827C48.5026 291.933 48.5793 289.487 49.4109 287.101C50.3409 284.435 52.0225 282.398 53.9336 281.626C54.9236 281.23 55.9266 281.21 56.8196 281.574C57.8928 282.014 58.7166 282.94 59.2066 284.259ZM140.669 236.876C141.58 239.331 139.57 242.455 135.874 244.307C134.023 245.24 132.031 245.693 130.248 245.585C128.314 245.479 126.847 244.728 126.093 243.48C125.987 243.295 125.895 243.117 125.823 242.922C124.911 240.467 126.921 237.343 130.617 235.491C132.469 234.558 134.46 234.105 136.244 234.214C138.178 234.319 139.644 235.07 140.398 236.318C140.505 236.504 140.596 236.681 140.669 236.876ZM21.6959 279.719C21.6788 279.673 21.666 279.638 21.6604 279.589C15.8068 253.149 28.7075 227.343 28.7075 227.343C28.7075 227.343 29.8708 225.169 32.4444 222.031C40.2399 212.546 60.9796 194.31 101.435 201.474C109.127 202.831 115.938 205.286 121.982 208.569C121.982 208.569 121.982 208.569 121.998 208.577C122.207 208.697 122.36 208.871 122.432 209.066C122.534 209.341 122.488 209.657 122.279 209.878C121.552 210.606 120.755 211.354 119.875 212.111C113.255 217.79 105.542 220.898 96.9245 221.334C91.0244 221.638 86.3431 223.012 82.6573 224.924C79.5858 226.517 78.2487 229.685 78.7056 232.821C78.7954 233.402 78.9397 233.995 79.1527 234.569C79.6982 236.037 80.658 237.431 82.0485 238.556C84.9053 240.874 88.7554 241.343 91.7738 239.777C93.8176 238.716 96.3372 238.119 99.351 237.969C118.281 237.002 130.502 227.223 137.047 219.947C137.065 219.93 137.084 219.912 137.098 219.883C146.762 229.509 153.517 241.745 158.23 254.435C158.916 256.282 159.557 258.142 160.158 260C160.357 260.603 159.835 261.136 159.204 260.967C150.195 258.616 138.387 256.787 124.479 257.5C120.498 257.698 116.358 258.117 112.042 258.773C107.441 259.481 104.656 263.75 105.8 268.29C105.876 268.598 105.975 268.899 106.086 269.198C107.586 273.237 111.922 275.898 116.2 275.24C133.211 272.609 147.129 274.711 155.812 276.935C159.626 277.919 162.795 279.003 165.229 279.945C169.2 300.67 169.06 318.558 168.934 323.355C168.924 323.939 168.286 324.264 167.736 323.972C143.767 311.339 111.494 330.084 78.2107 326.755C77.854 326.713 77.5482 326.468 77.4289 326.147C77.399 326.066 77.3764 325.972 77.381 325.882C77.145 318.24 77.8655 304.16 85.1326 293.694C86.6211 291.546 86.8204 288.852 85.9213 286.431C85.2906 284.733 84.1164 283.17 82.4737 282.012C80.681 280.756 78.6194 280.205 76.6733 280.305C74.28 280.425 72.0411 281.539 70.6404 283.55C62.0431 295.944 60.254 311.262 60.1825 321.375C60.175 321.933 59.6079 322.277 59.0555 322.048C54.5079 320.177 49.9666 317.711 45.4534 314.504C43.838 313.352 42.3143 312.174 40.8825 310.972C40.7553 310.868 40.6697 310.739 40.6143 310.59C40.5973 310.544 40.5845 310.51 40.5789 310.461C40.5733 310.412 40.5563 310.366 40.5465 310.305C39.112 303.722 36.9803 284.582 44.1356 275.005C45.7546 272.834 46.0158 270.034 45.0826 267.522C44.486 265.915 43.399 264.417 41.8652 263.28C40.0298 261.91 37.8696 261.297 35.8346 261.396C33.5302 261.517 31.3618 262.549 29.9529 264.436C26.8545 268.576 24.6471 273.686 23.3395 279.688C23.1375 280.539 21.9771 280.476 21.6959 279.719ZM58.5182 284.447C58.1219 283.38 57.4611 282.587 56.5839 282.231C54.3201 281.306 51.4167 283.624 50.1121 287.39C49.308 289.68 49.2919 291.984 49.9056 293.636C50.3019 294.703 50.9627 295.496 51.8399 295.851C54.111 296.762 57.0071 294.459 58.3117 290.693C59.1086 288.417 59.1362 286.11 58.5182 284.447ZM139.98 237.063C139.925 236.914 139.858 236.768 139.768 236.628C138.53 234.552 134.607 234.33 131.006 236.131C127.652 237.814 125.756 240.667 126.523 242.732C126.578 242.881 126.645 243.027 126.735 243.167C127.973 245.243 131.896 245.465 135.497 243.664C138.851 241.981 140.747 239.129 139.98 237.063Z" fill="#1F3A35"/>
<path d="M13.6739 198.215C13.7024 198.293 13.742 198.369 13.7816 198.444C14.1398 199.059 22.6379 213.76 40.0275 233.52C50.2251 245.116 61.3622 256.01 73.1131 265.908C87.8138 278.282 103.54 289.116 119.853 298.112C120.191 298.302 120.561 298.348 120.916 298.25C121.271 298.152 121.547 297.94 121.712 297.624C121.878 297.307 121.9 296.932 121.769 296.574C121.643 296.227 121.392 295.939 121.069 295.757C104.938 286.858 89.3866 276.136 74.8357 263.906C63.1962 254.112 52.1855 243.331 42.077 231.846C24.8728 212.294 16.2722 197.412 16.193 197.261C15.9018 196.763 15.3631 196.456 14.8014 196.487C14.6229 196.5 14.4415 196.538 14.2875 196.617C13.6965 196.903 13.4417 197.577 13.6739 198.215ZM13.0089 198.399C12.6667 197.458 13.0261 196.435 13.9141 195.993C14.1638 195.875 14.4188 195.805 14.6941 195.79C15.5089 195.75 16.3496 196.183 16.791 196.961C16.8813 197.108 25.4656 211.945 42.5889 231.409C52.6589 242.856 63.6503 253.617 75.2555 263.384C89.7609 275.589 105.274 286.272 121.36 295.147C121.879 295.435 122.247 295.875 122.43 296.379C122.618 296.894 122.606 297.464 122.349 297.965C121.854 298.952 120.594 299.275 119.544 298.703C103.185 289.682 87.4244 278.82 72.6852 266.408C60.9 256.482 49.7436 245.57 39.5116 233.946C22.0795 214.136 13.5307 199.363 13.1684 198.736C13.1055 198.631 13.0496 198.511 13.0089 198.399Z" fill="#1F3A35"/>
</svg>
