<svg width="200" height="609" viewBox="0 0 200 609" fill="none" xmlns="http://www.w3.org/2000/svg">
<path d="M51.2371 337.113C133.269 378.565 73.4968 402.121 67.9882 415.867C64.5073 424.539 63.7526 445.017 68.8669 460.093C74.1952 475.779 85.8995 485.6 107.562 470.107C107.596 470.084 107.63 470.062 107.675 470.028C113.825 465.607 127.693 461.976 138.383 459.687C146.291 457.996 152.453 457.037 152.453 457.037C175.659 443.596 190.135 400.035 187.735 358.707C185.336 317.379 149.975 343.518 130.824 313.489C111.663 283.46 153.985 312.542 182.441 278.825C183.522 277.551 184.468 276.243 185.313 274.913C206.57 241.196 162.175 212.498 152.723 192.516C147.834 182.187 150.696 157.672 153.287 146.52C158.401 124.418 182.824 84.7025 185.279 62.0821C186.935 46.8252 177.89 11.1241 164.721 4.35831C121.576 -17.8223 39.6905 49.9036 10.2213 89.3597C-7.04795 112.488 -26.8631 175.68 -30.7157 206.713C-35.4921 245.301 -30.8058 295.661 51.2371 337.113Z" fill="#DF9C45"/>
<path d="M53.8393 349.145C32.1203 322.521 7.35989 328.554 -0.0412121 337.981C-12.4102 353.734 21.2947 395.276 21.8467 410.353C23.2323 448.58 -17.2879 454.624 -12.9847 490.291C-7.65635 534.427 28.3128 505.932 29.0225 551.218C29.1914 562.178 38.0232 612.302 57.8045 607.712C82.5425 601.973 75.7046 589.963 122.342 578.236C130.554 576.172 137.335 573.477 142.9 570.297C143.103 570.184 143.306 570.06 143.497 569.948C182.136 547.282 175.535 506.157 158.108 491.441C138.124 474.561 112.496 471.042 128.166 448.445C143.835 425.835 155.472 449.809 190.968 416.544C195.339 412.45 199.574 396.821 198.944 392.491C196.364 374.81 167.143 359.88 135.353 358.031C92.4669 355.527 98.9894 404.501 53.8393 349.145Z" fill="#E8BE51"/>
<path d="M173.564 165.667C173.597 165.667 173.665 165.678 173.699 165.757C176.233 171.982 184.851 194.286 189.763 221.654C186.71 224.022 183.353 226.3 179.782 228.42C169.88 234.295 153.287 241.861 130.486 244.556C127.231 244.94 124.313 246.575 122.285 249.146C120.258 251.717 119.345 254.931 119.728 258.201C120.46 264.392 125.687 269.049 131.906 269.049C132.39 269.049 132.874 269.015 133.359 268.958C138.969 268.293 144.545 267.346 149.93 266.139C165.498 262.655 179.928 256.972 192.815 249.247C192.838 249.236 192.861 249.225 192.894 249.225C192.928 249.225 193.041 249.247 193.041 249.36C194.179 272.093 190.991 291.579 183.556 307.309C174.555 302.167 160.519 296.27 143.441 296.27C137.932 296.27 132.379 296.89 126.927 298.108C124.696 298.604 122.59 298.863 120.663 298.863C119.311 298.863 118.016 298.739 116.799 298.503C115.999 298.345 115.177 298.266 114.366 298.266C110.119 298.266 106.233 300.397 103.98 303.96C102.222 306.734 101.648 310.016 102.358 313.196C103.416 317.954 107.19 321.653 111.967 322.6C114.76 323.153 117.667 323.435 120.629 323.435C124.381 323.435 128.301 322.984 132.289 322.093C135.984 321.27 139.735 320.852 143.452 320.852C150.763 320.852 158.142 322.465 165.396 325.634C166.76 326.231 168.134 326.897 169.474 327.596C169.519 327.618 169.542 327.652 169.553 327.697C169.565 327.742 169.553 327.787 169.508 327.832C163.256 334.316 155.697 339.752 147.012 344.003C130.486 352.088 114.006 356.181 98.0318 356.181C75.0061 356.181 58.1087 347.544 50.088 342.39C45.4468 339.413 42.9234 337.09 42.9234 337.079C42.6418 336.797 14.1864 308.584 9.00454 273.514C8.99328 273.446 9.0158 273.424 9.02707 273.413C9.06086 273.379 9.11719 273.345 9.17351 273.345C9.20731 273.345 9.22984 273.345 9.2749 273.413C13.8935 280.697 19.2895 286.538 25.3275 290.778C27.4003 292.233 29.8448 293.011 32.3681 293.011C33.2693 293.011 34.1818 292.91 35.0605 292.718C38.0457 292.053 40.6704 290.293 42.4278 287.779C46.3142 282.231 44.9624 274.552 39.4313 270.661C25.9584 261.2 19.5486 236.358 18.2193 227.585C18.208 227.506 18.1968 227.428 18.1855 227.36C18.1742 227.326 18.1855 227.292 18.208 227.258C19.4359 225.24 20.799 223.199 22.286 221.192C26.285 215.79 30.8361 210.975 35.8265 206.905C35.8603 206.882 35.8828 206.871 35.9166 206.871C35.9391 206.871 36.018 206.882 36.0518 206.961C41.2562 220.425 51.023 239.155 67.9543 251.897C70.0946 253.51 72.6405 254.356 75.3216 254.356C76.2228 254.356 77.1352 254.254 78.0139 254.062C80.864 253.42 83.3986 251.785 85.1446 249.45C89.2113 244.038 88.1073 236.313 82.7001 232.243C68.54 221.598 60.9024 203.984 57.613 194.422C57.5905 194.343 57.6243 194.264 57.6919 194.241C75.0061 187.419 93.8863 185.773 112.147 184.171C136.367 182.063 159.246 180.055 173.496 165.701C173.485 165.689 173.519 165.667 173.564 165.667ZM48.8601 259.622C50.0204 259.622 51.068 259.272 51.8678 258.629C54.7742 256.284 54.0082 250.668 50.133 245.853C47.4407 242.515 43.9598 240.452 41.0309 240.452C39.8706 240.452 38.823 240.79 38.0232 241.444C36.5587 242.628 35.9729 244.669 36.3897 247.184C36.7728 249.507 37.9668 251.999 39.758 254.22C42.4503 257.547 45.9312 259.622 48.8601 259.622ZM171.536 291.421C176.222 291.421 179.726 289.481 180.266 286.583C180.953 282.907 176.729 279.141 170.646 278.002C169.519 277.788 168.404 277.686 167.312 277.686C162.625 277.686 159.122 279.626 158.581 282.524C158.232 284.385 159.122 286.302 161.071 287.948C162.862 289.459 165.396 290.587 168.201 291.105C169.317 291.32 170.443 291.421 171.536 291.421ZM173.564 164.697C173.282 164.697 172.989 164.81 172.764 165.035C148.307 189.674 98.1106 177.259 57.2976 193.35C56.7456 193.565 56.4527 194.185 56.6555 194.76C60.035 204.593 67.7628 222.286 82.0806 233.043C87.071 236.798 88.0848 243.891 84.3336 248.887C82.6551 251.131 80.3007 252.563 77.7661 253.138C76.955 253.318 76.1214 253.408 75.2878 253.408C72.9221 253.408 70.5452 252.675 68.5062 251.142C51.5637 238.399 41.8983 219.512 36.9192 206.634C36.739 206.183 36.3109 205.923 35.8716 205.923C35.6237 205.923 35.3759 206.002 35.1619 206.183C30.2616 210.186 25.6655 214.956 21.4636 220.65C19.9541 222.691 18.5798 224.733 17.3406 226.785C17.2055 227.01 17.1491 227.281 17.1942 227.552C17.2055 227.619 17.2167 227.687 17.228 227.755C18.5798 236.652 25.091 261.821 38.8455 271.484C43.9598 275.07 45.1877 282.129 41.6054 287.249C39.9157 289.651 37.4712 291.195 34.8239 291.793C34.0128 291.974 33.1792 292.064 32.3456 292.064C30.1039 292.064 27.8396 291.398 25.8682 290.011C19.9091 285.828 14.637 280.111 10.086 272.916C9.86068 272.556 9.51147 272.398 9.16225 272.398C8.54268 272.398 7.9231 272.916 8.03575 273.683C13.3303 309.486 42.2363 337.801 42.2363 337.801C42.2363 337.801 44.7709 340.158 49.5585 343.236C58.4917 348.964 75.254 357.174 98.0205 357.174C112.282 357.174 128.898 353.96 147.418 344.894C156.565 340.417 164.067 334.869 170.184 328.532L170.195 328.52C170.714 327.99 170.567 327.1 169.914 326.761C168.641 326.085 167.255 325.419 165.779 324.765C158.378 321.529 150.898 319.905 143.452 319.905C139.645 319.905 135.848 320.322 132.075 321.168C127.963 322.093 124.144 322.487 120.629 322.487C117.588 322.487 114.76 322.183 112.158 321.664C107.483 320.728 104.228 317.165 103.304 312.993C102.684 310.219 103.101 307.174 104.802 304.49C106.909 301.164 110.547 299.247 114.377 299.247C115.121 299.247 115.876 299.314 116.619 299.472C117.903 299.732 119.255 299.856 120.674 299.856C122.691 299.856 124.854 299.596 127.152 299.078C132.829 297.803 138.282 297.262 143.452 297.262C160.676 297.262 174.78 303.295 183.894 308.64C183.927 308.663 183.961 308.674 183.984 308.696C192.782 290.688 195.035 269.68 194.021 249.338C193.987 248.706 193.469 248.278 192.906 248.278C192.714 248.278 192.511 248.323 192.331 248.435C181.99 254.637 167.818 261.166 149.738 265.215C144.568 266.376 139.081 267.323 133.269 268.011C132.818 268.068 132.379 268.09 131.928 268.09C126.273 268.09 121.395 263.85 120.72 258.099C119.987 251.897 124.426 246.27 130.621 245.537C153.579 242.831 170.308 235.197 180.3 229.277C184.693 226.672 188.208 224.157 190.844 222.083C185.91 194.241 177.09 171.474 174.622 165.419C174.408 164.945 173.992 164.697 173.564 164.697ZM48.8601 258.652C46.3367 258.652 43.0699 256.78 40.524 253.6C37.0318 249.27 36.187 244.162 38.6427 242.188C39.2961 241.658 40.1185 241.41 41.0422 241.41C43.5655 241.41 46.8324 243.282 49.3895 246.451C52.8704 250.781 53.7153 255.889 51.2708 257.863C50.6062 258.404 49.7838 258.652 48.8601 258.652ZM171.536 290.451C170.522 290.451 169.463 290.35 168.382 290.147C162.918 289.121 158.964 285.794 159.539 282.693C160.001 280.212 163.234 278.645 167.312 278.645C168.325 278.645 169.384 278.746 170.466 278.949C175.929 279.975 179.883 283.302 179.309 286.403C178.847 288.884 175.614 290.451 171.536 290.451Z" fill="#1F3A35"/>
<path d="M127.512 216.05C128.008 216.05 128.47 216.242 128.83 216.58C129.191 216.929 129.405 217.403 129.416 217.91C129.427 218.418 129.236 218.903 128.887 219.264C111.955 236.877 96.6688 256.656 83.455 278.047C72.8884 295.165 63.6286 313.354 55.9121 332.106C42.7996 364.007 38.7217 386.695 38.6766 386.921C38.5414 387.676 37.9669 388.274 37.2234 388.443C37.0882 388.477 36.9531 388.488 36.8179 388.488C36.7052 388.488 36.5926 388.477 36.4799 388.454C35.9843 388.364 35.5449 388.094 35.2521 387.676C34.9592 387.259 34.8465 386.752 34.9366 386.256C35.1056 385.32 39.1272 362.947 52.3974 330.652C60.1815 311.707 69.5427 293.338 80.2106 276.04C93.5597 254.412 109.004 234.419 126.127 216.614C126.498 216.253 126.983 216.05 127.512 216.05ZM127.501 215.08C126.746 215.08 125.992 215.373 125.428 215.96C108.26 233.821 92.7598 253.871 79.377 275.555C68.6753 292.898 59.2915 311.313 51.4849 330.302C38.1809 362.677 34.1256 385.162 33.9678 386.109C33.6975 387.676 34.7339 389.165 36.2997 389.436C36.4687 389.469 36.6376 389.481 36.8066 389.481C37.0207 389.481 37.2234 389.458 37.4262 389.413C38.5189 389.165 39.4201 388.285 39.6229 387.113C39.6679 386.887 43.7233 364.3 56.802 332.501C64.4847 313.805 73.7333 295.661 84.266 278.577C97.4348 257.242 112.676 237.52 129.563 219.951C130.667 218.813 130.621 216.986 129.484 215.892C128.943 215.339 128.222 215.08 127.501 215.08Z" fill="#1F3A35"/>
<path d="M109.556 394.679C109.612 394.679 109.635 394.735 109.646 394.758C109.669 394.825 109.635 394.848 109.601 394.87C104.498 398.062 100.397 401.805 97.4122 406.012C96.0154 407.974 95.5084 410.454 96.0154 412.8C96.466 414.897 97.6826 416.724 99.4286 417.976C100.893 419.013 102.605 419.566 104.385 419.566C107.156 419.566 109.77 418.213 111.381 415.957C118.038 406.587 135.398 402.211 141.526 401.332L141.684 401.309L141.571 400.644L141.751 401.332C143.159 402.2 144.579 403.17 145.964 404.207C149.716 407.026 153.05 410.229 155.866 413.736C155.889 413.77 155.9 413.792 155.889 413.826C155.878 413.86 155.855 413.882 155.821 413.894C146.404 417.468 133.291 424.212 124.336 435.995C122.815 438.003 122.252 440.551 122.781 443.009C123.209 445.005 124.347 446.776 125.969 448.016C127.478 449.166 129.27 449.764 131.151 449.764C133.854 449.764 136.344 448.535 137.977 446.381C145.469 436.537 157.793 431.271 164.507 429.015C164.54 429.015 164.585 429.038 164.597 429.083C169.283 441.216 170.342 454.421 171.367 467.186C172.73 484.123 174.025 500.124 183.972 510.149C184.006 510.183 184.006 510.228 184.006 510.25C183.995 510.296 183.961 510.318 183.95 510.318C179.602 512.066 164.011 517.975 144.883 521.29C143.238 519.147 141.672 516.791 140.208 514.287C136.153 507.341 130.948 495.704 129.179 479.759C128.695 475.406 125.034 472.125 120.674 472.125C120.359 472.125 120.032 472.148 119.717 472.181C115.019 472.7 111.617 476.951 112.147 481.654C112.586 485.578 113.217 489.479 114.039 493.246C116.405 504.15 120.303 514.254 125.631 523.297C125.654 523.331 125.654 523.365 125.631 523.399C125.608 523.444 125.563 523.455 125.552 523.455C123.727 523.534 121.914 523.579 120.145 523.579C106.593 523.579 94.8325 521.222 85.1672 516.565C90.304 507.702 95.4746 493.809 91.836 477.019C91.2615 474.346 91.1827 472.023 91.6107 469.937C92.3317 466.408 90.856 462.878 87.8595 460.95C86.4626 460.048 84.863 459.574 83.2409 459.574C82.6325 459.574 82.0242 459.642 81.4272 459.766C78.104 460.488 75.5018 463.104 74.8259 466.442C73.9134 470.862 74.0036 475.643 75.085 480.65C76.7522 488.34 75.8735 496.121 72.4715 503.778C72.0434 504.725 71.5816 505.683 71.0859 506.619C71.0634 506.665 71.0183 506.676 70.9958 506.676C70.9507 506.676 70.9395 506.653 70.9169 506.642C66.4222 502.244 62.671 496.933 59.7421 490.844C52.7465 476.275 50.1668 461.92 52.0706 448.163C53.6477 436.774 57.9622 428.249 61.3079 423.095C63.4032 419.859 65.0366 418.111 65.0479 418.111C65.2507 417.908 85.0658 398.152 109.545 394.69L109.556 394.679ZM122.702 425.982C124.561 425.982 126.724 425.102 128.65 423.58C132.03 420.885 133.404 417.175 131.782 415.134C131.128 414.311 130.103 413.882 128.808 413.882C126.949 413.882 124.786 414.762 122.86 416.296C120.708 418.01 119.3 420.186 119.075 422.148C118.962 423.163 119.187 424.065 119.728 424.742C120.382 425.553 121.407 425.982 122.702 425.982ZM100.206 514.411C102.617 514.411 104.915 511.581 105.669 507.668C106.052 505.706 105.974 503.778 105.444 502.222C104.881 500.53 103.856 499.47 102.56 499.211C102.369 499.177 102.189 499.154 101.997 499.154C99.5864 499.154 97.2883 501.985 96.5335 505.898C96.1505 507.86 96.2294 509.788 96.7589 511.344C97.3221 513.036 98.3472 514.096 99.6427 514.355C99.8342 514.389 100.014 514.411 100.206 514.411ZM109.556 394.002C109.511 394.002 109.477 394.002 109.432 394.013C84.4349 397.554 64.5522 417.626 64.5522 417.626C64.5522 417.626 62.8963 419.385 60.7221 422.723C54.1546 432.827 42.9234 457.387 59.1225 491.126C62.1978 497.542 66.0392 502.808 70.4326 507.116C70.4326 507.116 70.4326 507.116 70.4438 507.127C70.6015 507.273 70.793 507.352 70.9845 507.352C71.2549 507.352 71.5253 507.206 71.6717 506.946C72.1448 506.056 72.618 505.097 73.0798 504.06C76.5382 496.268 77.4394 488.352 75.7384 480.515C74.5781 475.147 74.6682 470.512 75.4793 466.588C76.1552 463.318 78.656 461.074 81.5624 460.443C82.1031 460.33 82.6663 460.262 83.2296 460.262C84.6715 460.262 86.1472 460.657 87.4878 461.525C90.2477 463.307 91.5995 466.588 90.9348 469.802C90.4842 471.978 90.5631 474.425 91.1601 477.166C94.8889 494.385 89.1324 508.536 84.2322 516.791C84.2209 516.813 84.2096 516.836 84.1871 516.858C95.1142 522.294 107.663 524.267 120.122 524.267C121.936 524.267 123.75 524.222 125.552 524.143C126.138 524.12 126.487 523.478 126.183 522.97C121.902 515.708 117.408 505.774 114.67 493.122C113.882 489.502 113.251 485.668 112.789 481.597C112.305 477.256 115.436 473.354 119.762 472.869C120.055 472.835 120.348 472.824 120.641 472.824C124.606 472.824 128.03 475.812 128.481 479.849C130.261 495.907 135.51 507.634 139.6 514.648C141.402 517.727 143.137 520.196 144.567 522.057C164.011 518.73 179.928 512.675 184.175 510.972C184.693 510.769 184.829 510.093 184.434 509.698C167.357 492.49 176.245 457.466 165.205 428.857C165.081 428.553 164.788 428.361 164.473 428.361C164.394 428.361 164.304 428.373 164.225 428.406C157.353 430.729 144.973 436.041 137.403 445.998C135.848 448.039 133.494 449.11 131.117 449.11C129.45 449.11 127.771 448.58 126.341 447.497C124.786 446.313 123.795 444.656 123.412 442.885C122.939 440.709 123.389 438.341 124.842 436.424C133.809 424.64 147.035 417.964 156.035 414.548C156.531 414.356 156.7 413.736 156.362 413.319C153.591 409.879 150.29 406.643 146.336 403.677C144.917 402.617 143.497 401.648 142.078 400.768C141.954 400.689 141.819 400.655 141.672 400.655C141.627 400.655 141.594 400.655 141.548 400.667C141.503 400.678 141.458 400.678 141.402 400.689C135.184 401.591 117.599 406.034 110.795 415.596C109.252 417.762 106.818 418.923 104.351 418.923C102.774 418.923 101.175 418.449 99.7891 417.457C98.1219 416.273 97.0517 414.548 96.6462 412.698C96.1956 410.601 96.5899 408.323 97.9304 406.44C100.871 402.302 104.892 398.637 109.928 395.479C110.637 395.017 110.299 394.002 109.556 394.002ZM122.702 425.305C121.654 425.305 120.787 424.978 120.258 424.313C118.883 422.599 120.246 419.239 123.288 416.826C125.135 415.348 127.186 414.57 128.808 414.57C129.855 414.57 130.723 414.897 131.252 415.563C132.615 417.288 131.264 420.637 128.222 423.05C126.386 424.516 124.336 425.305 122.702 425.305ZM100.206 513.735C100.059 513.735 99.913 513.724 99.7666 513.69C97.615 513.272 96.466 509.844 97.1982 506.033C97.8853 502.481 99.9694 499.842 101.997 499.842C102.144 499.842 102.29 499.854 102.436 499.887C104.588 500.305 105.737 503.733 105.005 507.544C104.318 511.096 102.234 513.735 100.206 513.735Z" fill="#1F3A35"/>
<path d="M30.5207 412.293C30.5995 412.293 30.6784 412.304 30.7572 412.315C31.4106 412.439 47.0013 415.349 69.4637 424.776C82.6438 430.301 95.4183 436.932 107.438 444.464C122.466 453.891 136.344 464.784 148.69 476.839C148.95 477.087 149.085 477.414 149.085 477.775C149.085 478.136 148.961 478.463 148.713 478.722C148.465 478.981 148.127 479.128 147.767 479.128C147.417 479.128 147.091 478.993 146.843 478.756C134.632 466.837 120.9 456.068 106.041 446.731C94.1453 439.266 81.506 432.714 68.4499 427.234C46.2241 417.908 30.4418 414.965 30.2841 414.943C29.7546 414.841 29.3378 414.447 29.2252 413.917C29.1914 413.747 29.1801 413.567 29.2139 413.398C29.3266 412.755 29.8786 412.293 30.5207 412.293ZM30.5207 411.616C29.5744 411.616 28.7295 412.293 28.5493 413.263C28.5042 413.533 28.5042 413.793 28.5606 414.052C28.7295 414.819 29.3378 415.45 30.1602 415.597C30.3179 415.631 46.0551 418.574 68.1795 427.854C81.1906 433.312 93.8074 439.852 105.669 447.295C120.494 456.598 134.181 467.344 146.359 479.229C146.753 479.613 147.249 479.805 147.755 479.805C148.274 479.805 148.792 479.602 149.186 479.196C149.963 478.406 149.941 477.132 149.152 476.354C136.772 464.266 122.86 453.35 107.787 443.901C95.7337 436.345 82.9367 429.704 69.7228 424.156C47.2041 414.706 31.5345 411.774 30.8699 411.65C30.7572 411.627 30.6333 411.616 30.5207 411.616Z" fill="#1F3A35"/>
</svg>
