<svg width="34" height="34" viewBox="0 0 34 34" fill="none" xmlns="http://www.w3.org/2000/svg">
<path fill-rule="evenodd" clip-rule="evenodd" d="M21.155 11.656L19.649 11.657C18.468 11.657 18.239 12.218 18.239 13.041V14.857H21.056L20.689 17.702H18.239V25H15.302V17.702H12.846V14.857H15.302V12.76C15.302 10.325 16.789 9 18.96 9C20 9 20.894 9.077 21.155 9.112V11.656Z" fill="#1F3A35"/>
<mask id="path-2-outside-1" maskUnits="userSpaceOnUse" x="0" y="0" width="34" height="34" fill="black">
<rect fill="white" width="34" height="34"/>
<path fill-rule="evenodd" clip-rule="evenodd" d="M1 17C1 25.8366 8.16344 33 17 33C25.8366 33 33 25.8366 33 17C33 8.16344 25.8366 1 17 1C8.16344 1 1 8.16344 1 17ZM21.155 11.656L19.649 11.657C18.468 11.657 18.239 12.218 18.239 13.041V14.857H21.056L20.689 17.702H18.239V25H15.302V17.702H12.846V14.857H15.302V12.76C15.302 10.325 16.789 9 18.96 9C20 9 20.894 9.077 21.155 9.112V11.656Z"/>
</mask>
<path d="M21.155 11.656L21.1557 12.656L22.155 12.6553V11.656H21.155ZM19.649 11.657V12.657L19.6497 12.657L19.649 11.657ZM18.239 14.857H17.239V15.857H18.239V14.857ZM21.056 14.857L22.0478 14.9849L22.1933 13.857H21.056V14.857ZM20.689 17.702V18.702H21.5683L21.6808 17.8299L20.689 17.702ZM18.239 17.702V16.702H17.239V17.702H18.239ZM18.239 25V26H19.239V25H18.239ZM15.302 25H14.302V26H15.302V25ZM15.302 17.702H16.302V16.702H15.302V17.702ZM12.846 17.702H11.846V18.702H12.846V17.702ZM12.846 14.857V13.857H11.846V14.857H12.846ZM15.302 14.857V15.857H16.302V14.857H15.302ZM21.155 9.112H22.155V8.23715L21.2879 8.12087L21.155 9.112ZM17 0C7.61116 0 0 7.61116 0 17H2C2 8.71573 8.71573 2 17 2V0ZM34 17C34 7.61116 26.3888 0 17 0V2C25.2843 2 32 8.71573 32 17H34ZM17 34C26.3888 34 34 26.3888 34 17H32C32 25.2843 25.2843 32 17 32V34ZM17 32C8.71573 32 2 25.2843 2 17H0C0 26.3888 7.61116 34 17 34V32ZM21.1543 10.656L19.6483 10.657L19.6497 12.657L21.1557 12.656L21.1543 10.656ZM19.649 10.657C18.9254 10.657 18.2154 10.8276 17.7364 11.396C17.2898 11.926 17.239 12.5864 17.239 13.041H19.239C19.239 12.8748 19.2513 12.7712 19.2663 12.7083C19.2798 12.6513 19.2883 12.6581 19.2658 12.6848C19.1966 12.7669 19.1917 12.657 19.649 12.657V10.657ZM17.239 13.041V14.857H19.239V13.041H17.239ZM18.239 15.857H21.056V13.857H18.239V15.857ZM20.0642 14.7291L19.6972 17.5741L21.6808 17.8299L22.0478 14.9849L20.0642 14.7291ZM20.689 16.702H18.239V18.702H20.689V16.702ZM17.239 17.702V25H19.239V17.702H17.239ZM18.239 24H15.302V26H18.239V24ZM16.302 25V17.702H14.302V25H16.302ZM15.302 16.702H12.846V18.702H15.302V16.702ZM13.846 17.702V14.857H11.846V17.702H13.846ZM12.846 15.857H15.302V13.857H12.846V15.857ZM16.302 14.857V12.76H14.302V14.857H16.302ZM16.302 12.76C16.302 11.7492 16.6059 11.0872 17.0198 10.6781C17.4369 10.2659 18.0774 10 18.96 10V8C17.6716 8 16.4832 8.39655 15.6139 9.25563C14.7416 10.1178 14.302 11.3358 14.302 12.76H16.302ZM18.96 10C19.9633 10 20.8122 10.075 21.0221 10.1031L21.2879 8.12087C20.9758 8.07902 20.0367 8 18.96 8V10ZM20.155 9.112V11.656H22.155V9.112H20.155Z" fill="#1F3A35" mask="url(#path-2-outside-1)"/>
</svg>
