<svg width="279" height="419" viewBox="0 0 279 419" fill="none" xmlns="http://www.w3.org/2000/svg">
<path d="M315.329 235.792C302.911 265.43 262.595 258.715 243.784 259.536C195.749 261.637 193.489 303.962 156.176 294.896C150.1 293.424 134.274 281.91 130.251 275.694C104.96 236.626 81.983 274.722 71.8833 247.195C61.7966 219.663 71.2479 194.649 90.318 170.384C106.945 149.22 86.335 111.487 111.187 81.9673C159.496 24.5835 251.461 71.8752 245.783 93.6474C222.401 183.322 294.395 150.161 310.393 166.769C348.436 206.243 309.712 218.16 315.329 235.792Z" fill="#D57938"/>
<path d="M33.0439 216.704C33.5656 216.122 34.0742 215.543 34.5995 214.974C34.6347 215.398 34.6698 215.823 34.7014 216.234L33.0439 216.704Z" fill="#557A69"/>
<path d="M256.436 102.058C337.923 40.1435 316.575 130.49 332.247 126.902C396.762 112.128 396.17 150.436 384.721 163.644C373.912 176.096 355.006 175.235 345.317 198.257C311.23 279.325 278.978 257.404 265.589 236.343C252.201 215.282 224.139 251.303 204.927 240.679C173.224 223.157 163.268 135.296 175.197 100.976C200.98 26.8303 214.076 134.258 256.436 102.058Z" fill="#557A69"/>
<path d="M193.065 316.102C185.67 289.718 183.609 259.844 186.938 227.334C188.268 214.305 191.133 201.61 195.453 189.611L218.911 174.603L221.677 172.837L218.431 172.441L205.882 170.903C205.289 170.833 204.806 170.41 204.643 169.826C204.57 169.566 204.529 169.171 204.772 168.738C222.362 135.935 249.35 113.901 268.896 101.208C286.845 89.5573 301.955 83.4056 306.305 81.7507C310.851 103.115 314.168 123.89 316.152 143.502C316.2 143.923 316.061 144.326 315.783 144.63C315.494 144.95 315.107 145.116 314.676 145.126L304.772 145.135L301.818 145.132L303.941 147.164L317.126 159.758C317.317 159.942 317.451 160.17 317.524 160.43C317.553 160.533 317.566 160.628 317.582 160.735C317.832 164.573 318.033 168.439 318.177 172.195C318.194 172.709 317.959 173.168 317.54 173.469C317.121 173.77 316.603 173.819 316.126 173.618C310.599 171.32 303.715 167.977 303.648 167.94L300.147 166.23L302.128 169.605L318.163 197.012C318.221 197.121 318.284 197.244 318.316 197.36C318.356 197.503 318.371 197.653 318.372 197.807C317.357 236.526 310.302 270.92 297.399 300.025C297.202 300.473 296.8 300.784 296.322 300.877C295.828 300.961 295.353 300.816 295 300.454L279.883 284.961L276.192 281.175L277.928 286.175C277.928 286.175 278.131 286.748 278.418 287.773C279.629 292.095 283.231 307.493 278.715 324.284C272.44 347.627 258.693 361.041 248.267 368.176C238.475 374.878 229.702 377.479 227.432 378.068C224.214 375.17 204.22 355.906 193.065 316.102ZM191.924 316.426C204.268 360.474 227.093 379.355 227.093 379.355C227.093 379.355 267.455 370.534 279.822 324.586C284.368 307.703 280.919 292.401 279.533 287.456C279.228 286.366 279.021 285.78 279.021 285.78L294.138 301.273C295.45 302.61 297.703 302.209 298.467 300.493C309.894 274.707 318.413 241.144 319.539 197.826C319.547 197.558 319.513 197.287 319.441 197.027C319.379 196.807 319.291 196.593 319.181 196.401L303.146 168.994C303.146 168.994 310.067 172.367 315.687 174.695C317.475 175.435 319.442 174.064 319.36 172.125C319.214 168.356 319.023 164.53 318.768 160.623C318.756 160.43 318.721 160.258 318.67 160.076C318.543 159.622 318.299 159.201 317.94 158.868L304.755 146.274L314.66 146.265C316.228 146.269 317.47 144.907 317.311 143.341C315.33 123.841 312.025 102.81 307.154 80.1367C307.154 80.1367 238.027 104.155 203.709 168.143C203.372 168.785 203.316 169.487 203.491 170.11C203.767 171.097 204.594 171.899 205.725 172.04L218.274 173.578L194.485 188.806C190.245 200.489 187.193 213.265 185.764 227.19C181.97 264.232 185.548 293.675 191.924 316.426Z" fill="#1F3A35"/>
<path d="M231.505 317.911C231.429 317.639 231.395 317.368 231.413 317.083C232.686 278.576 238.833 239.736 249.666 201.639C258.324 171.164 269.993 141.094 284.334 112.27C308.792 63.1188 332.172 35.0907 333.144 33.918C333.619 33.3631 334.275 33.0087 335.002 32.9564C335.725 32.8912 336.431 33.1112 336.996 33.5811C337.27 33.8114 337.504 34.0953 337.663 34.4143C337.749 34.5719 337.813 34.7499 337.864 34.9316C338.108 35.801 337.909 36.74 337.321 37.4392C337.091 37.7148 313.432 66.0462 289.216 114.709C275.017 143.241 263.482 172.991 254.912 203.133C244.198 240.805 238.136 279.2 236.864 317.259C236.845 317.993 236.531 318.67 236 319.171C235.469 319.672 234.774 319.939 234.038 319.91C232.847 319.856 231.825 319.053 231.505 317.911ZM230.377 318.232C230.825 319.828 232.267 321.029 234.016 321.079C236.174 321.139 237.981 319.449 238.06 317.284C239.319 279.327 245.376 241.016 256.061 203.438C264.607 173.359 276.12 143.684 290.282 115.218C314.372 66.8021 337.988 38.4688 338.231 38.1895C339.104 37.1574 339.343 35.8146 339.005 34.6078C338.936 34.3612 338.837 34.1091 338.716 33.8772C338.495 33.4358 338.169 33.0239 337.764 32.6766C336.114 31.2819 333.644 31.5067 332.26 33.1603C331.275 34.3367 307.794 62.5054 283.294 111.753C268.916 140.644 257.226 170.789 248.543 201.327C237.68 239.517 231.532 278.455 230.243 317.051C230.215 317.451 230.272 317.855 230.377 318.232Z" fill="#1F3A35"/>
<path d="M74.8834 136.361C75.8268 132.147 82.8679 105.854 113.498 96.0867C128.294 91.3713 141.978 95.3542 142.113 95.3859L147.162 96.8923L143.227 93.3765L131.022 82.4525C130.895 82.3486 130.816 82.217 130.772 82.0614C130.678 81.7244 130.792 81.286 131.198 81.0869C152.691 70.343 178.357 63.8594 207.497 61.792C207.646 61.7776 207.811 61.8149 207.943 61.8892L229.164 73.1104L232.611 74.9316L230.753 71.498C230.726 71.4499 227.969 66.3541 226.05 62.2522C226.023 62.2041 226.012 62.1652 225.997 62.1133C225.928 61.867 225.979 61.6006 226.143 61.3862C226.234 61.2624 226.444 61.063 226.806 61.0582C229.638 61.0384 232.566 61.0614 235.463 61.1213C235.675 61.1311 235.88 61.2129 236.018 61.3557L245.964 70.9053L248.089 72.9476L247.962 70.0027L247.637 62.5098C247.618 62.1933 247.781 61.9789 247.88 61.8811C247.978 61.7832 248.186 61.6263 248.513 61.6455C263.272 62.4825 278.926 64.269 295.073 66.9654C292.302 75.1827 275.282 121.128 233.119 146.301C232.821 146.483 232.535 146.41 232.393 146.353C232.142 146.256 231.96 146.056 231.891 145.809C231.883 145.784 231.873 145.745 231.865 145.719L230.28 136.274L229.737 133.041L228.102 135.885L217.614 154.072C208.753 157.72 199.327 160.296 189.597 161.741C147.775 167.938 118.695 160.597 101.661 153.339C85.4613 146.417 76.7921 138.282 74.8834 136.361ZM73.6051 136.737C73.6051 136.737 108.126 175.002 189.78 162.892C200.235 161.34 209.771 158.606 218.447 154.998L229.134 136.473L230.719 145.918C230.728 145.999 230.746 146.064 230.764 146.129C231.113 147.374 232.573 147.995 233.722 147.305C280.843 119.172 296.609 66.0118 296.609 66.0118C279.336 63.0891 263.358 61.2963 248.583 60.4501C247.39 60.3827 246.406 61.3615 246.459 62.5499L246.785 70.0427L236.838 60.4932C236.476 60.1481 235.987 59.9509 235.494 59.9369C232.542 59.8787 229.644 59.8613 226.795 59.8718C225.441 59.8782 224.518 61.1755 224.871 62.4329C224.9 62.5366 224.946 62.6496 224.988 62.7497C226.945 66.9386 229.722 72.0566 229.722 72.0566L208.514 60.8318C208.186 60.659 207.798 60.573 207.43 60.6074C174.782 62.9282 149.759 70.5033 130.691 80.0272C129.784 80.4805 129.411 81.4958 129.658 82.3773C129.757 82.7274 129.949 83.0646 130.247 83.3299L142.452 94.254C142.452 94.254 128.488 90.0706 113.152 94.9533C78.9068 105.886 73.6051 136.737 73.6051 136.737Z" fill="#1F3A35"/>
<path d="M118.576 129.666C118.544 129.549 118.524 129.429 118.521 129.318C118.44 128.334 119.179 127.481 120.162 127.399C148.842 125.172 177.625 119.28 205.698 109.911C228.161 102.412 250.22 92.6776 271.276 80.9623C307.165 61.0015 327.777 42.126 327.977 41.9434C328.511 41.4564 329.274 41.3379 329.929 41.628C330.137 41.7228 330.33 41.8638 330.492 42.0417C330.69 42.2511 330.815 42.4956 330.891 42.7676C331.073 43.4153 330.878 44.1139 330.375 44.564C329.533 45.3481 309.194 63.9505 272.991 84.0844C251.751 95.8936 229.479 105.716 206.813 113.287C178.459 122.749 149.397 128.692 120.43 130.945C119.588 131.029 118.805 130.482 118.576 129.666ZM117.437 129.989C117.812 131.323 119.075 132.238 120.51 132.125C149.584 129.856 178.74 123.9 207.181 114.399C229.925 106.806 252.258 96.9526 273.555 85.0992C309.868 64.9063 330.318 46.2025 331.16 45.4184C332.002 44.6344 332.305 43.4718 332.014 42.4354C331.894 42.008 331.667 41.5969 331.343 41.241C331.064 40.9426 330.751 40.7237 330.41 40.5546C329.352 40.0713 328.071 40.2385 327.172 41.0668C326.972 41.2494 306.401 60.0713 270.704 79.9216C249.719 91.589 227.721 101.292 205.323 108.773C177.34 118.116 148.661 123.978 120.066 126.209C118.438 126.335 117.216 127.758 117.338 129.388C117.358 129.606 117.386 129.807 117.437 129.989Z" fill="#1F3A35"/>
</svg>
