<svg width="27" height="27" viewBox="0 0 27 27" fill="none" xmlns="http://www.w3.org/2000/svg">
<path fill-rule="evenodd" clip-rule="evenodd" d="M13.5026 0.999023C13.4728 0.999023 13.4401 1.00497 13.4104 1.01389L1.2138 4.8811H1.21083C1.14241 4.90192 1.08291 4.94656 1.04424 5.00903C1.00557 5.0715 0.990697 5.1429 1.0026 5.21429V22.4233C1.0026 22.4858 1.02342 22.5483 1.05912 22.5989C1.09481 22.6494 1.14836 22.6881 1.20786 22.7059L13.3687 26.5583C13.4342 26.588 13.5115 26.594 13.5799 26.5731H13.5829H13.5859L25.7854 22.7089C25.8449 22.6911 25.8985 22.6524 25.9342 22.6018C25.9699 22.5513 25.9907 22.4888 25.9907 22.4263V5.16966C25.9907 5.16669 25.9907 5.1637 25.9907 5.16073C25.9907 5.15775 25.9907 5.15777 25.9907 5.15479C25.9877 5.08637 25.961 5.01795 25.9163 4.96738C25.8717 4.91681 25.8063 4.88111 25.7378 4.87218L13.5829 1.01985C13.5621 1.00498 13.5323 1.002 13.5026 0.999023ZM13.5026 1.60885L24.7175 5.16371L13.5026 8.71856L2.2877 5.16371L13.5026 1.60885ZM1.59755 5.57125L13.2021 9.25104V25.88L1.59755 22.2032V5.57125ZM25.4047 5.57125V22.2032L13.8001 25.88V9.25104L25.4047 5.57125Z" fill="white" stroke="white" stroke-width="0.3"/>
<path d="M18.4382 2.78125L7.40176 7.08278L7.36606 13.1543" stroke="white" stroke-width="0.8" stroke-miterlimit="10"/>
</svg>
