<svg width="342" height="664" viewBox="0 0 342 664" fill="none" xmlns="http://www.w3.org/2000/svg">
<path d="M150.841 159.27C51.9143 119.281 118.786 86.2679 123.846 69.8413C127.039 59.4809 125.938 35.727 118.547 18.8055C110.868 1.18167 96.373 -9.03506 72.8107 10.9674C72.7787 10.9993 72.7309 11.0312 72.6989 11.0632C66.0102 16.7622 50.3019 22.3016 38.1696 25.9892C29.182 28.719 22.158 30.4271 22.158 30.4271C-3.41573 48.2106 -15.9632 99.9487 -9.1786 147.488C-2.41002 195.028 35.9825 161.393 61.0455 194.246C86.1084 227.099 34.3383 197.582 4.67784 239.311C3.56039 240.892 2.57064 242.488 1.74053 244.116C-19.5869 285.143 34.5458 314.021 47.4125 336.211C54.0694 347.673 53.1275 376.295 51.2119 389.433C47.4285 415.47 23.0041 463.744 22.3656 490.132C21.9345 507.932 35.8548 548.32 51.7227 554.881C103.764 576.368 191.963 490.164 222.246 441.698C239.998 413.299 256.824 338.334 258.26 302.08C260.064 257.015 249.768 199.243 150.841 159.27Z" fill="#E5B44D"/>
<path d="M127.47 356.532C254.429 258.117 223.923 391.429 248.634 384.581C350.418 356.341 350.913 411.974 333.226 432.344C316.544 451.548 286.516 452.298 272.005 486.716C220.937 607.928 168.96 579.529 146.946 550.379C124.932 521.229 81.7504 576.448 50.8767 563.07C-0.0313683 540.992 -19.076 414.576 -1.40424 363.541C36.7489 253.264 61.4765 407.712 127.47 356.532Z" fill="#DF9C45"/>
<path d="M183.982 89.7162C184.476 118.706 178.41 147.968 166.374 174.499C154.337 201.031 136.33 224.88 114.189 243.59C113.694 214.6 119.76 185.338 131.796 158.807C143.833 132.275 161.856 108.442 183.982 89.7162ZM185.131 87.178C137.942 126.049 111.187 185.019 113.039 246.144C160.244 207.272 186.983 148.287 185.131 87.178Z" fill="#1F3A35"/>
<path d="M49.6475 131.078C83.7299 164.809 101.817 212.908 98.4005 260.735C64.3181 227.02 46.2313 178.905 49.6475 131.078ZM48.6418 128.412C44.2518 178.522 63.0729 228.616 99.3902 263.417C103.796 213.307 84.9751 163.213 48.6418 128.412Z" fill="#1F3A35"/>
<path d="M24.0737 194.135C58.1561 227.866 76.2429 275.964 72.8267 323.791C38.7283 290.076 20.6415 241.962 24.0737 194.135ZM23.068 191.469C18.678 241.579 37.4991 291.673 73.8164 326.473C78.2224 276.363 59.3853 226.269 23.068 191.469Z" fill="#1F3A35"/>
<path d="M11.3507 280.45C42.4638 311.323 58.9862 355.287 55.9212 399.012C24.808 368.138 8.28567 324.174 11.3507 280.45ZM10.345 277.784C6.30617 323.775 23.5948 369.75 56.9269 401.694C60.9657 355.686 43.6771 309.727 10.345 277.784Z" fill="#1F3A35"/>
<path d="M172.583 357.092C176.08 357.092 179.607 357.219 183.119 357.459C154.752 386.05 115.529 402.412 75.0935 402.412C71.5975 402.412 68.0695 402.285 64.5575 402.045C92.9089 373.438 132.132 357.092 172.583 357.092ZM172.583 355.878C131.11 355.878 90.7538 372.896 61.8756 403.035C66.2816 403.418 70.6875 403.61 75.0775 403.61C116.551 403.61 156.907 386.592 185.785 356.453C181.379 356.07 176.973 355.878 172.583 355.878Z" fill="#1F3A35"/>
<path d="M206.363 282.382C210.657 282.382 214.983 282.541 219.261 282.845C185.754 316.799 139.315 336.227 91.4244 336.227C87.1302 336.227 82.8041 336.067 78.5258 335.764C112.018 301.809 158.456 282.382 206.363 282.382ZM206.363 281.168C157.482 281.168 109.91 301.235 75.8599 336.77C81.048 337.233 86.2522 337.456 91.4244 337.456C140.305 337.456 187.877 317.39 221.927 281.855C216.723 281.392 211.535 281.168 206.363 281.168Z" fill="#1F3A35"/>
<path d="M223.3 218.128C227.195 218.128 231.122 218.271 235.017 218.543C204.08 249.816 161.249 267.711 117.078 267.711C113.183 267.711 109.256 267.567 105.36 267.296C136.298 236.007 179.128 218.128 223.3 218.128ZM223.3 216.915C178.123 216.915 134.159 235.464 102.679 268.302C107.484 268.717 112.273 268.924 117.062 268.924C162.239 268.924 206.203 250.374 237.683 217.537C232.878 217.122 228.089 216.915 223.3 216.915Z" fill="#1F3A35"/>
<path d="M119.361 240.11C104.946 263.465 92.877 288.847 83.4584 315.538C75.9236 336.897 70.065 359.135 66.0581 381.643C59.2256 419.908 60.1196 445.897 60.1356 446.153C60.1835 447.509 59.4172 448.691 58.2678 449.218C57.8847 449.393 57.4696 449.489 57.0386 449.505C55.2507 449.553 53.7501 448.148 53.6863 446.344C53.6384 445.259 52.7604 419.397 59.7045 380.446C63.7753 357.602 69.7297 335.014 77.3763 313.319C86.9385 286.197 99.2305 260.4 113.869 236.662" stroke="#1F3A35" stroke-width="1.21292" stroke-miterlimit="10"/>
<path d="M220.414 537.782C243.547 549.709 263.089 567.495 277.033 589.282C259.485 587.229 242.585 582.067 226.775 573.915C203.642 561.989 184.101 544.202 170.156 522.415C187.691 524.462 204.604 529.631 220.414 537.782ZM220.83 536.975C204.637 528.626 186.883 523.239 168.392 521.308C182.658 544.248 202.851 562.585 226.367 574.709C242.56 583.058 260.314 588.445 278.805 590.375C264.517 567.443 244.332 549.092 220.83 536.975Z" fill="#1F3A35"/>
<path d="M153.219 518.279C175.115 546.613 183.76 583.978 176.525 619C154.644 590.673 145.984 553.301 153.219 518.279ZM152.735 516.216C144.562 552.818 153.575 591.737 177.002 621.077C185.175 584.475 176.176 545.563 152.735 516.216Z" fill="#1F3A35"/>
<path d="M111.286 489.664C133.182 517.998 141.827 555.363 134.592 590.385C112.71 562.058 104.065 524.693 111.286 489.664ZM110.809 487.587C102.636 524.189 111.649 563.108 135.076 592.448C143.25 555.846 134.25 516.934 110.809 487.587Z" fill="#1F3A35"/>
<path d="M69.7604 449.91C89.734 475.834 97.6439 509.983 91.0704 542.007C71.0968 516.083 63.1869 481.934 69.7604 449.91ZM69.2695 447.825C61.7717 481.437 70.0284 517.147 91.5471 544.084C99.0518 510.494 90.781 474.776 69.2695 447.825Z" fill="#1F3A35"/>
<path d="M165.954 423.305C140.078 443.227 105.956 451.068 73.9284 444.431C99.8046 424.509 133.92 416.682 165.954 423.305ZM168.03 422.833C134.414 415.268 98.7313 423.453 71.8457 444.917C105.448 452.475 141.13 444.29 168.03 422.833Z" fill="#1F3A35"/>
<path d="M219.196 454.757C188.516 478.5 147.959 487.813 109.958 479.834C140.638 456.092 181.194 446.778 219.196 454.757ZM221.271 454.285C181.652 445.363 139.586 455.028 107.897 480.314C147.501 489.228 189.582 479.57 221.271 454.285Z" fill="#1F3A35"/>
<path d="M255.539 488.192C227.258 510.031 189.922 518.601 154.897 511.296C183.171 489.471 220.507 480.901 255.539 488.192ZM257.615 487.719C221.008 479.473 182.119 488.408 152.836 511.776C189.442 520.023 228.31 511.094 257.615 487.719Z" fill="#1F3A35"/>
<path d="M174.797 522.497C156.209 513.919 138.225 503.123 121.362 490.429C107.867 480.26 95.0427 468.859 83.2498 456.535C63.212 435.566 53.0299 419.067 52.939 418.895C52.4136 418.032 51.4405 417.62 50.5038 417.765C50.1965 417.804 49.9025 417.922 49.615 418.096C48.4866 418.788 48.141 420.297 48.8347 421.426C49.2551 422.109 59.3951 438.55 79.7783 459.895C91.7403 472.413 104.762 483.988 118.462 494.316C135.609 507.228 153.883 518.193 172.776 526.91" stroke="#1F3A35" stroke-width="0.904819" stroke-miterlimit="10"/>
</svg>
