<svg width="350" height="318" viewBox="0 0 350 318" fill="none" xmlns="http://www.w3.org/2000/svg">
<path d="M249.443 110.521C373.04 30.8644 330.152 129.325 352.738 122.719C445.733 95.4996 439.471 135.71 421.461 151.614C404.472 166.61 377.945 169.16 361.035 195.024C301.512 286.087 259.169 269.019 243.3 249.405C227.431 229.791 182.776 272.611 157.203 264.996C115.014 252.435 113.457 162.27 135.143 124.19C181.991 41.8799 185.184 151.931 249.443 110.521Z" fill="#DF9C45"/>
<path d="M324.37 59.0221C398.105 10.6093 384.332 86.8415 399.136 84.6627C460.074 75.6923 462.371 108.5 452.348 119.167C442.885 129.224 424.638 127.403 417.043 146.584C390.324 214.132 357.668 193.492 343.217 174.67C328.766 155.847 304.474 185.121 285.202 174.912C253.403 158.075 237.257 82.1807 246.162 53.4412C265.411 -8.6473 286.041 84.2013 324.37 59.0221Z" fill="#E5B44D"/>
<path d="M84.2513 191.259C92.9781 192.28 102.134 193.328 111.519 194.35C109.43 195.663 107.242 197.056 105.01 198.489C102.034 200.399 98.8866 202.469 95.6391 204.618C62.4627 212.936 18.3277 221.891 4.72234 221.891C2.8196 221.891 1.98983 221.705 1.64648 221.586C3.63506 218.681 27.3979 208.903 68.9006 195.915C74.0079 194.337 79.1725 192.758 84.2513 191.259ZM84.1511 190.237C79.101 191.723 73.8649 193.315 68.5715 194.973C35.0232 205.467 -0.599613 218.362 0.516281 221.904C0.730876 222.568 2.21873 222.873 4.73665 222.873C18.6853 222.873 63.9792 213.586 96.1255 205.52C99.4017 203.345 102.592 201.262 105.639 199.298C108.214 197.64 110.689 196.061 113.05 194.589C113.565 194.27 114.051 193.965 114.538 193.66C104.237 192.559 94.0082 191.405 84.1511 190.237Z" fill="#1F3A35"/>
<path d="M114.81 194.708C119.86 195.252 124.938 195.796 129.989 196.327C132.192 196.552 134.395 196.791 136.584 197.017C136.026 197.494 135.468 197.985 134.881 198.489C133.794 199.444 132.664 200.426 131.519 201.448C128.916 203.756 126.126 206.263 123.236 208.903C115.725 213.586 106.498 219.079 96.526 224.783C63.321 243.741 35.2949 257.512 29.8728 257.512C29.8299 257.512 29.8013 257.512 29.7727 257.512C30.116 256.49 32.8342 252.47 51.6614 238.182C64.0364 228.79 80.9035 216.89 96.7549 206.356C100.045 204.167 103.25 202.084 106.254 200.134C108.801 198.489 111.29 196.91 113.651 195.438L114.81 194.708ZM114.538 193.687C114.037 193.992 113.565 194.297 113.05 194.615C110.689 196.088 108.214 197.653 105.639 199.325C102.578 201.288 99.3873 203.384 96.1255 205.547C64.8232 226.322 26.239 254.659 28.7712 258.148C28.9429 258.387 29.3149 258.507 29.8728 258.507C36.4681 258.507 68.6716 241.857 97.0983 225.632C106.898 220.034 116.24 214.488 123.937 209.686C126.827 207.046 129.617 204.539 132.278 202.177C133.422 201.156 134.552 200.174 135.64 199.219C136.841 198.171 137.971 197.202 139.059 196.274C136.097 195.968 133.107 195.663 130.117 195.345C124.924 194.801 119.717 194.244 114.538 193.687Z" fill="#1F3A35"/>
<path d="M139.416 197.308L142.735 197.653C147.914 198.184 153.036 198.688 158.086 199.179C156.97 200.333 155.854 201.514 154.695 202.761L154.409 203.079C154.195 203.318 153.966 203.557 153.751 203.796C149.788 208.054 145.439 212.87 140.818 218.11C111.147 243.104 70.7601 273.219 64.3509 273.723C64.5226 272.635 66.597 268.059 83.9363 249.976C95.3241 238.103 110.56 223.297 124.681 210.402C127.585 207.749 130.389 205.229 133.007 202.907C134.151 201.885 135.282 200.904 136.369 199.962C137.428 199.02 138.429 198.144 139.416 197.308ZM139.044 196.274C137.957 197.202 136.827 198.171 135.625 199.219C134.538 200.174 133.408 201.156 132.263 202.177C129.602 204.525 126.812 207.046 123.922 209.686C96.1253 235.091 60.245 271.322 63.4639 274.506C63.6213 274.652 63.8645 274.732 64.1792 274.732C70.9747 274.732 113.794 242.215 141.591 218.8C146.155 213.613 150.561 208.744 154.552 204.446C154.867 204.101 155.182 203.756 155.497 203.424C157.213 201.58 158.801 199.935 160.275 198.41C154.567 197.852 148.744 197.282 142.85 196.685C141.591 196.526 140.318 196.406 139.044 196.274Z" fill="#1F3A35"/>
<path d="M160.705 199.431L163.552 199.71C168.33 200.161 173.008 200.599 177.572 201.023C177.257 201.421 176.942 201.832 176.613 202.244C175.726 203.385 174.811 204.565 173.881 205.786C169.66 211.305 164.896 217.739 160.104 224.399C152.064 232.624 142.793 241.751 133.98 250.096C108.129 274.599 95.7538 283.753 92.7781 284.257C92.821 283.209 94.2802 278.725 108.2 260.643C117.485 248.583 129.96 233.552 142.407 219.41C147.028 214.157 151.391 209.328 155.354 205.069C155.569 204.831 155.783 204.605 155.998 204.366L156.298 204.048C157.815 202.443 159.26 200.917 160.705 199.431ZM160.275 198.383C158.802 199.909 157.214 201.567 155.497 203.398C155.182 203.743 154.868 204.074 154.553 204.419C150.547 208.718 146.155 213.6 141.591 218.774C117.342 246.315 88.6149 282.373 92.0055 285.106C92.1486 285.212 92.3346 285.265 92.5778 285.265C96.698 285.265 115.311 269.213 134.767 250.772C143.78 242.242 152.965 233.194 160.976 224.996C165.769 218.336 170.49 211.955 174.782 206.343C175.712 205.122 176.628 203.942 177.515 202.801C178.23 201.885 178.917 201.01 179.575 200.174C174.439 199.71 169.131 199.219 163.695 198.688C162.55 198.609 161.406 198.502 160.275 198.383Z" fill="#1F3A35"/>
<path d="M180.047 201.235L183.022 201.501C187.972 201.938 192.779 202.363 197.357 202.734C196.356 204.313 195.354 205.945 194.324 207.669L194.281 207.736C193.938 208.32 193.58 208.903 193.223 209.513C191.62 212.22 189.889 215.205 188.087 218.389C161.234 251.979 128.157 287.454 122.764 288.542C122.349 284.907 136.856 260.311 161.849 225.553C166.656 218.88 171.42 212.432 175.64 206.913C176.57 205.693 177.471 204.525 178.358 203.384C178.945 202.655 179.503 201.938 180.047 201.235ZM179.546 200.2C178.888 201.036 178.201 201.912 177.486 202.827C176.599 203.968 175.683 205.149 174.753 206.369C170.461 211.981 165.74 218.362 160.948 225.022C140.504 253.465 118.658 287.175 122.063 289.457C122.192 289.537 122.335 289.577 122.521 289.577C128.515 289.577 166.298 247.323 188.988 218.933C190.776 215.775 192.507 212.79 194.153 210.004C194.525 209.381 194.896 208.757 195.254 208.16C196.656 205.839 197.944 203.769 199.145 201.899C194.067 201.474 188.702 201.023 183.122 200.519C181.949 200.413 180.748 200.307 179.546 200.2Z" fill="#1F3A35"/>
<path d="M199.732 202.947L200.004 202.973L201.106 203.066L201.678 203.106C208.216 203.637 214.196 204.088 219.461 204.433C218.702 206.064 217.944 207.749 217.157 209.553C216.571 210.907 215.97 212.339 215.326 213.852C213.395 218.468 211.335 223.682 209.174 229.334C204.267 237.201 198.602 245.864 192.779 254.407C170.118 287.666 154.91 305.072 151.606 305.085C151.334 304.846 149.388 301.875 162.278 273.498C169.718 257.114 180.319 236.378 189.932 219.384C191.735 216.187 193.48 213.188 195.097 210.469C195.455 209.859 195.812 209.275 196.156 208.704L196.199 208.638C197.415 206.635 198.573 204.764 199.732 202.947ZM199.16 201.899C197.958 203.783 196.671 205.839 195.269 208.16C194.911 208.757 194.539 209.368 194.167 210.004C192.522 212.777 190.776 215.775 189.002 218.933C170.175 252.205 145.683 303.188 151.076 305.948C151.234 306.027 151.405 306.067 151.606 306.067C156.684 306.067 176.027 280.874 193.695 254.938C199.575 246.315 205.254 237.639 210.162 229.758C212.279 224.173 214.368 218.92 216.328 214.223C216.957 212.711 217.572 211.291 218.144 209.938C219.175 207.563 220.133 205.454 221.034 203.544C215.455 203.172 209.06 202.708 201.764 202.111C201.206 202.071 200.662 202.018 200.09 201.978C199.804 201.952 199.475 201.925 199.16 201.899Z" fill="#1F3A35"/>
<path d="M221.735 204.578C222.765 204.645 223.752 204.711 224.725 204.764C232.851 205.255 239.261 205.507 244.282 205.547C243.796 207.152 243.209 208.903 242.522 210.8C241.349 214.051 239.861 217.818 238.102 222.037C230.949 239.164 219.875 262.181 209.904 280.701C192.593 312.793 188.287 313.722 187.886 313.735C187.615 313.536 185.383 311.042 193.051 284.098C197.515 268.39 204.296 248.212 211.177 230.09C213.337 224.425 215.412 219.198 217.329 214.581C217.958 213.069 218.559 211.649 219.146 210.31C220.033 208.267 220.891 206.383 221.735 204.578ZM221.049 203.53C220.147 205.441 219.189 207.537 218.159 209.925C217.572 211.278 216.971 212.698 216.342 214.21C214.382 218.906 212.293 224.16 210.176 229.745C196.842 264.808 182.064 312.687 187.486 314.637C187.6 314.677 187.729 314.703 187.858 314.703C194.911 314.703 225.097 255.946 239.117 222.382C240.949 218.017 242.408 214.289 243.552 211.106C244.454 208.598 245.155 206.436 245.698 204.552C245.57 204.552 245.441 204.552 245.298 204.552C240.362 204.552 233.724 204.313 224.797 203.769C223.595 203.703 222.35 203.623 221.049 203.53Z" fill="#1F3A35"/>
<path d="M29.9162 149.96V150.955C46.8835 150.955 80.9326 154.697 107.242 158.411C116.67 163.651 126.641 168.958 136.098 173.787C138.373 174.941 140.604 176.069 142.779 177.143C144.009 177.754 145.254 178.364 146.499 178.974C139.989 178.563 133.365 178.165 126.741 177.78L126.212 177.687L124.996 177.488C112.635 175.406 97.1989 172.354 81.5192 168.892C42.6345 160.348 23.3067 154.1 21.3181 151.738C21.8474 151.486 23.7216 150.942 29.9305 150.942V149.96H29.9162ZM29.9162 149.96C23.9791 149.96 20.3453 150.438 20.1307 151.539C19.4869 154.843 49.8163 162.962 81.2616 169.887C96.6839 173.283 112.364 176.387 124.796 178.483C125.425 178.589 126.012 178.682 126.613 178.788C134.996 179.266 143.351 179.783 151.549 180.301C148.916 179.041 146.17 177.714 143.294 176.281C141.119 175.207 138.902 174.079 136.627 172.925C127.271 168.149 117.185 162.789 107.614 157.469C79.7595 153.516 46.1825 149.96 29.9162 149.96Z" fill="#1F3A35"/>
<path d="M66.3683 128.654C72.7346 128.654 96.4974 136.813 126.913 149.443C128.93 150.279 130.933 151.128 132.936 151.964L132.95 151.977L133.136 152.056C137.671 153.98 142.22 155.944 146.641 157.907C155.611 164.527 164.424 170.802 172.164 176.055C173.466 176.931 174.724 177.78 175.955 178.603L176.427 178.921C176.727 179.12 177.028 179.319 177.314 179.505C178.23 180.102 179.117 180.685 179.989 181.256C172.164 180.685 163.895 180.128 155.382 179.571L151.863 179.346C149.102 178.019 146.469 176.745 143.823 175.419C141.663 174.344 139.431 173.216 137.17 172.062C127.671 167.22 117.657 161.887 108.2 156.62C75.5244 138.458 66.0679 130.658 65.5242 128.761C65.6244 128.707 65.8962 128.654 66.3683 128.654ZM66.354 127.659C65.3383 127.659 64.6945 127.845 64.4656 128.243C62.8919 131.095 83.6647 144.15 107.599 157.456C117.17 162.776 127.256 168.135 136.612 172.911C138.887 174.066 141.105 175.193 143.279 176.268C146.155 177.701 148.902 179.04 151.534 180.287C152.793 180.367 154.038 180.447 155.282 180.526C165.196 181.176 174.825 181.84 183.881 182.503C182.064 181.362 180.089 180.088 177.915 178.656C177.471 178.364 177.013 178.059 176.556 177.754C175.34 176.944 174.066 176.095 172.779 175.22C164.996 169.94 156.098 163.598 147.199 157.031C142.821 155.094 138.243 153.105 133.565 151.128C133.565 151.128 133.565 151.128 133.551 151.115C131.491 150.252 129.416 149.377 127.342 148.514C101.104 137.636 73.7933 127.659 66.354 127.659Z" fill="#1F3A35"/>
<path d="M98.9151 114.207C105.653 114.207 140.561 133.351 170.418 151.857C173.823 153.967 177.242 156.129 180.576 158.265C185.797 164.567 190.69 170.271 195.097 175.233C196.613 176.944 198.072 178.563 199.417 180.022C200.347 181.03 201.263 182.012 202.135 182.941L201.921 182.928C199.675 182.742 197.357 182.556 194.996 182.37C191.964 182.132 188.845 181.893 185.654 181.654L185.282 181.627L184.252 181.548C182.464 180.42 180.547 179.186 178.544 177.86C178.258 177.674 177.972 177.475 177.671 177.289L177.185 176.971C175.969 176.162 174.71 175.313 173.408 174.437C165.668 169.183 156.827 162.908 147.857 156.275C116.04 132.741 98.958 117.219 98.6719 114.221C98.7291 114.207 98.815 114.207 98.9151 114.207ZM98.9151 113.212C98.3428 113.212 97.9423 113.332 97.742 113.597C95.3814 116.662 121.247 137.875 147.185 157.045C156.083 163.625 164.996 169.953 172.764 175.233C174.052 176.109 175.325 176.958 176.541 177.767C176.999 178.072 177.457 178.377 177.9 178.669C180.061 180.102 182.035 181.375 183.866 182.516C184.438 182.556 184.996 182.596 185.554 182.636C188.745 182.874 191.863 183.113 194.882 183.352C197.243 183.538 199.56 183.724 201.806 183.909C201.964 183.923 202.092 183.936 202.235 183.949C203.08 184.015 203.881 184.082 204.71 184.161C203.323 182.729 201.835 181.15 200.218 179.385C198.873 177.913 197.429 176.334 195.912 174.609C191.448 169.581 186.47 163.758 181.32 157.536C178.043 155.439 174.61 153.264 171.005 151.035C142.549 133.377 106.226 113.212 98.9151 113.212Z" fill="#1F3A35"/>
<path d="M131.805 85.6446C136.226 85.6977 159.417 106.128 186.971 134.24C194.624 142.054 202.007 149.854 208.33 156.793C211.792 162.922 215.068 168.52 218.058 173.455C219.517 175.857 220.776 177.886 221.907 179.664C223.151 181.614 224.31 183.392 225.426 185.024C220.333 184.506 214.639 183.976 208.459 183.445C207.586 183.365 206.656 183.299 205.726 183.219L205.254 183.18C203.938 181.813 202.536 180.314 201.062 178.709C199.717 177.25 198.273 175.644 196.756 173.946C192.335 168.958 187.428 163.227 182.178 156.899C169.402 141.496 156.226 124.515 146.913 111.461C131.834 90.341 131.648 86.2947 131.805 85.6446ZM131.777 84.6497C131.491 84.6497 131.262 84.716 131.09 84.8487C127.041 87.9397 156.312 127.354 181.334 157.522C186.484 163.744 191.463 169.568 195.926 174.596C197.457 176.321 198.888 177.9 200.233 179.372C201.849 181.137 203.337 182.715 204.725 184.148C205.941 184.254 207.185 184.347 208.359 184.453C215.755 185.09 222.078 185.687 227.543 186.257C226.141 184.241 224.582 181.919 222.837 179.173C221.649 177.303 220.362 175.233 218.988 172.978C215.955 167.976 212.636 162.298 209.217 156.249C202.851 149.257 195.454 141.43 187.757 133.576C163.866 109.206 137.342 84.6497 131.777 84.6497Z" fill="#1F3A35"/>
<path d="M173.552 77.0081C174.381 77.1541 179.431 79.3828 200.447 108.038C213.18 125.391 227.758 147.082 237.601 163.28C242.866 171.956 246.342 178.337 248.216 182.808C249.175 185.077 249.733 186.881 249.919 188.247C245.484 187.412 239.418 186.563 231.449 185.687C230.391 185.568 229.303 185.448 228.173 185.329C226.8 183.339 225.355 181.163 223.767 178.669C222.637 176.905 221.392 174.875 219.933 172.487C216.928 167.552 213.652 161.927 210.176 155.784C200.548 138.75 190.705 119.872 183.852 105.292C172.793 81.7841 173.28 77.6449 173.552 77.0081ZM173.451 75.9999C173.28 75.9999 173.137 76.0264 173.008 76.106C168.444 78.494 190.376 122.923 209.217 156.249C212.636 162.298 215.956 167.976 218.988 172.978C220.362 175.233 221.635 177.289 222.837 179.173C224.582 181.919 226.142 184.241 227.544 186.257C228.846 186.39 230.105 186.523 231.321 186.669C240.419 187.677 246.743 188.606 251.035 189.481C251.135 187.982 250.634 185.793 249.218 182.437C247.401 178.112 244.067 171.877 238.531 162.776C219.217 130.989 180.333 75.9999 173.451 75.9999Z" fill="#1F3A35"/>
<path d="M260.52 194.881C310.563 203.384 339.591 215.643 340.807 216.173C342.309 216.823 342.967 218.482 342.28 219.875C342.109 220.206 341.88 220.511 341.594 220.75C341.036 221.228 340.306 221.493 339.548 221.493C339.119 221.493 338.689 221.414 338.289 221.241C338.003 221.122 308.732 208.824 259.933 200.453C259.862 200.134 259.761 199.829 259.661 199.524C259.447 198.874 259.261 198.264 259.304 197.72C259.361 197.176 259.661 196.592 259.99 195.995C260.176 195.624 260.377 195.252 260.52 194.881ZM259.718 193.726C259.633 194.934 258.374 196.194 258.231 197.614C258.116 198.887 258.903 200.174 258.975 201.288C308.217 209.646 337.531 221.997 337.831 222.13C338.389 222.369 338.961 222.475 339.533 222.475C340.564 222.475 341.565 222.117 342.309 221.467C342.695 221.135 343.01 220.737 343.239 220.273C344.183 218.376 343.282 216.133 341.236 215.258C339.963 214.714 310.42 202.244 259.718 193.726Z" fill="#1F3A35"/>
<path d="M21.5323 174.742V175.737C43.6642 175.737 81.9337 177.21 126.541 179.77C134.924 180.248 143.308 180.765 151.462 181.283L155.211 181.521C165.182 182.171 174.81 182.835 183.795 183.498L185.111 183.591L185.483 183.617C188.673 183.856 191.792 184.095 194.811 184.334C197.171 184.52 199.475 184.705 201.735 184.891L202.007 184.918L202.164 184.931L203.723 185.063L204.625 185.143L205.512 185.223C206.442 185.302 207.372 185.382 208.244 185.448C215.34 186.058 221.778 186.655 227.4 187.252C228.702 187.385 229.961 187.518 231.163 187.65C239.904 188.619 246.328 189.534 250.777 190.45C257.344 191.79 258.674 192.944 258.617 193.673C258.588 194.058 258.316 194.562 258.03 195.106C257.644 195.823 257.215 196.619 257.129 197.547C257.043 198.476 257.315 199.338 257.558 200.094C257.701 200.559 257.844 201.01 257.873 201.368C257.887 201.713 257.801 201.872 257.658 202.018C256.628 203.026 252.594 203.544 245.655 203.57H245.255C240.133 203.57 233.452 203.318 224.825 202.787C223.624 202.721 222.379 202.642 221.091 202.549C215.483 202.177 209.003 201.7 201.835 201.129L201.248 201.076L200.176 200.983L199.746 200.943L199.217 200.904C194.138 200.492 188.759 200.028 183.208 199.524L179.617 199.206C174.481 198.741 169.174 198.25 163.752 197.72L160.361 197.388C154.653 196.831 148.83 196.26 142.936 195.663L139.13 195.279C136.169 194.974 133.179 194.668 130.203 194.35C125.024 193.806 119.817 193.249 114.638 192.692C104.166 191.551 93.951 190.397 84.2656 189.256C30.1734 182.875 6.5536 178.682 1.78959 176.666C3.50635 176.281 8.28467 175.737 21.5466 175.737L21.5323 174.742ZM21.5323 174.742C8.27036 174.742 0.115748 175.273 0.00129735 176.507C-0.256217 179.226 37.8559 184.785 84.1512 190.237C94.0082 191.405 104.223 192.559 114.538 193.673C119.717 194.244 124.924 194.788 130.103 195.332C133.093 195.65 136.069 195.955 139.045 196.26C140.318 196.393 141.591 196.526 142.85 196.645C148.744 197.242 154.567 197.826 160.275 198.37C161.405 198.476 162.55 198.595 163.666 198.701C169.102 199.219 174.396 199.71 179.546 200.187C180.748 200.293 181.949 200.4 183.137 200.506C188.716 201.01 194.081 201.461 199.16 201.885C199.475 201.912 199.804 201.938 200.104 201.965C200.676 202.005 201.22 202.058 201.778 202.098C209.074 202.681 215.469 203.159 221.048 203.53C222.336 203.61 223.581 203.69 224.797 203.769C233.724 204.313 240.362 204.552 245.298 204.552C245.426 204.552 245.57 204.552 245.698 204.552C257.201 204.525 259.103 203.146 258.989 201.302C258.917 200.187 258.116 198.9 258.245 197.627C258.388 196.194 259.647 194.934 259.733 193.74C259.833 192.307 258.245 190.954 251.049 189.481C246.757 188.606 240.434 187.677 231.335 186.669C230.133 186.536 228.874 186.403 227.558 186.257C222.093 185.687 215.784 185.09 208.373 184.453C207.214 184.347 205.955 184.254 204.739 184.148C203.909 184.082 203.123 184.015 202.264 183.936C202.121 183.923 201.978 183.909 201.835 183.896C199.589 183.71 197.271 183.525 194.911 183.339C191.878 183.1 188.759 182.861 185.583 182.622C185.025 182.583 184.467 182.543 183.895 182.503C174.839 181.84 165.211 181.163 155.297 180.526C154.052 180.447 152.807 180.367 151.548 180.288C143.351 179.757 134.996 179.253 126.612 178.775C86.2828 176.467 45.5241 174.742 21.5323 174.742Z" fill="#1F3A35"/>
<path d="M261.647 98.6879C261.856 97.273 262.09 95.8041 262.344 94.3037C262.71 92.0621 263.106 89.6968 263.545 87.246C258.192 60.6941 250.558 33.4577 247.712 30.4442C246.608 33.2312 247.283 49.2657 250.789 75.212C251.236 78.5154 251.715 81.8365 252.21 85.0902C255.245 89.4384 258.421 94.0118 261.647 98.6879ZM262.196 101.084C258.538 95.7554 254.889 90.4869 251.327 85.4216C250.832 82.168 250.342 78.7864 249.877 75.3508C246.934 53.5725 244.934 29.9036 247.494 29.3968C247.546 29.3829 247.607 29.3823 247.665 29.3929C250.967 29.9935 259.713 63.736 264.445 87.2104C263.997 89.695 263.591 92.1051 263.221 94.4163C262.9 96.3615 262.611 98.2188 262.358 99.9772C262.306 100.354 262.257 100.72 262.196 101.084Z" fill="#1F3A35"/>
<path d="M270.322 110.85C270.422 110.519 270.534 110.19 270.637 109.847C270.926 108.956 271.223 108.031 271.527 107.072C272.227 104.916 273.01 102.611 273.836 100.221C274.636 94.6415 275.445 87.8738 276.183 80.6264C278.834 54.4159 279.115 36.8999 277.87 34.0913C275.389 37.0844 269.584 60.8794 265.12 86.5442C264.693 89.0314 264.287 91.4291 263.931 93.7081C263.624 95.6225 263.341 97.4832 263.095 99.2341L262.984 100.03C264.749 102.62 266.502 105.208 268.252 107.807C268.949 108.811 269.64 109.837 270.322 110.85ZM270.613 112.887C269.58 111.354 268.551 109.81 267.509 108.264C265.705 105.585 263.878 102.902 262.059 100.232C262.107 99.8676 262.155 99.5031 262.216 99.1296C262.462 97.3787 262.743 95.5292 263.055 93.5924C263.424 91.3044 263.822 88.8933 264.246 86.4173C268.362 62.741 275.139 32.722 278.031 33.0245C278.042 33.0267 278.054 33.0288 278.066 33.031C280.641 33.508 279.32 58.3788 277.072 80.6862C276.348 87.8195 275.53 94.6789 274.711 100.395C273.882 102.796 273.106 105.125 272.387 107.313C272.073 108.258 271.777 109.183 271.499 110.077C271.175 111.067 270.89 111.994 270.613 112.887Z" fill="#1F3A35"/>
<path d="M277.397 121.182C277.761 120.328 278.131 119.452 278.532 118.546L278.654 118.277C278.735 118.082 278.828 117.889 278.906 117.705C280.444 114.21 282.218 110.316 284.189 106.143C292.018 79.9914 298.428 51.1622 297.373 47.1636C294.301 49.8379 284.007 74.1914 275.169 99.8061C274.338 102.219 273.55 104.546 272.847 106.714C272.533 107.659 272.237 108.584 271.959 109.478C271.692 110.326 271.437 111.119 271.199 111.892L272.301 113.542C274.022 116.113 275.723 118.667 277.397 121.182ZM277.559 123.044C275.603 120.08 273.588 117.059 271.544 114.009C271.104 113.356 270.664 112.702 270.226 112.038C270.504 111.145 270.787 110.229 271.099 109.237C271.388 108.345 271.685 107.42 271.987 106.473C272.707 104.285 273.483 101.955 274.312 99.5541C282.272 76.4482 294.701 45.5839 297.646 46.1293C297.658 46.1315 297.669 46.1336 297.681 46.1357C300.731 46.9573 292.09 82.7695 285.004 106.422C283.057 110.541 281.261 114.479 279.702 118.016C279.577 118.296 279.452 118.577 279.328 118.857C278.679 120.37 278.096 121.755 277.559 123.044Z" fill="#1F3A35"/>
<path d="M283.585 130.55C283.693 130.348 283.812 130.148 283.922 129.935C284.385 129.085 284.864 128.216 285.373 127.328C287.641 123.282 290.322 118.659 293.144 113.944C296.021 106.962 299.12 99.016 301.863 91.5652C310.091 69.2127 311.901 60.5625 311.677 58.6056C308.491 60.917 296.543 82.352 285.355 105.936C283.367 110.126 281.58 114.027 280.029 117.538C279.947 117.733 279.857 117.915 279.778 118.099L279.655 118.369C279.085 119.677 278.543 120.921 278.029 122.146L278.964 123.545C280.542 125.926 282.093 128.267 283.585 130.55ZM283.645 132.278C281.894 129.597 280.078 126.833 278.202 124.012C277.817 123.428 277.421 122.841 277.038 122.245C277.579 120.954 278.167 119.567 278.835 118.043C278.96 117.762 279.074 117.479 279.211 117.201C280.771 113.656 282.591 109.715 284.552 105.59C294.866 83.8428 309.205 57.0532 312.06 57.578C312.083 57.5823 312.107 57.5865 312.127 57.602C314.119 58.3536 309.115 74.4184 302.71 91.826C299.902 99.4518 296.833 107.322 293.959 114.293C291.136 119.007 288.464 123.597 286.165 127.719C285.669 128.609 285.189 129.478 284.714 130.326C284.342 130.993 283.984 131.651 283.645 132.278Z" fill="#1F3A35"/>
<path d="M289.757 140.095C290.42 139.128 291.097 138.152 291.833 137.129L291.887 137.057C292.141 136.694 292.41 136.322 292.694 135.941C293.949 134.205 295.336 132.318 296.818 130.343C309.991 105.73 322.725 77.1073 322.485 72.8174C319.646 74.5678 308.464 90.1164 294.198 113.839C291.357 118.572 288.647 123.212 286.366 127.263C285.867 128.154 285.385 129.025 284.922 129.865C284.63 130.385 284.356 130.884 284.096 131.375L285.055 132.837C286.683 135.345 288.256 137.773 289.757 140.095ZM289.725 141.691C288.012 139.027 286.198 136.227 284.29 133.305C283.888 132.682 283.475 132.057 283.062 131.431C283.402 130.804 283.76 130.155 284.126 129.474C284.591 128.623 285.074 127.752 285.585 126.863C287.907 122.737 290.58 118.149 293.421 113.416C305.372 93.5282 320.178 71.2961 322.894 71.7926C322.929 71.799 322.964 71.8054 322.996 71.823C325.903 73.22 309.37 108.705 297.562 130.748C296.083 132.712 294.681 134.608 293.404 136.387C293.116 136.79 292.83 137.182 292.558 137.565C291.498 139.091 290.563 140.441 289.725 141.691Z" fill="#1F3A35"/>
<path d="M296.587 151.001C297.35 150.144 298.145 149.256 299 148.322C299.687 147.579 300.422 146.787 301.201 145.967C303.574 143.456 306.29 140.679 309.255 137.724C312.839 132.549 316.712 126.712 320.462 120.829C334.681 98.5376 341.507 84.5858 340.875 82.4897C340.241 82.5856 336.932 83.9302 323.853 98.5979C315.662 107.789 305.663 120.003 297.758 130.477C296.25 132.477 294.842 134.366 293.576 136.117C293.306 136.49 293.035 136.863 292.779 137.227L292.725 137.299C291.817 138.564 290.989 139.75 290.188 140.929L290.215 140.969L290.546 141.487L290.779 141.846C292.942 145.181 294.883 148.265 296.587 151.001ZM296.437 152.475C294.614 149.517 292.485 146.141 290.012 142.304C289.824 142.012 289.636 141.72 289.448 141.428C289.339 141.267 289.232 141.096 289.126 140.924C289.97 139.67 290.913 138.306 291.984 136.813C292.257 136.429 292.545 136.035 292.835 135.631C294.12 133.848 295.531 131.948 297.019 129.979C312.417 109.59 337.025 80.8758 341.162 81.6276C341.256 81.6447 341.336 81.6708 341.41 81.7195C343.908 83.3106 333.08 102.654 321.222 121.237C317.433 127.183 313.542 133.041 309.956 138.227C307.022 141.152 304.275 143.958 301.856 146.508C301.078 147.328 300.345 148.109 299.655 148.863C298.451 150.191 297.39 151.382 296.437 152.475Z" fill="#1F3A35"/>
<path d="M303.872 163.539C304.694 162.807 305.573 161.991 306.509 161.092C308.237 159.431 310.219 157.417 312.391 155.121C321.171 145.857 332.596 132.596 341.496 121.31C355.723 103.282 356.446 99.4782 356.397 98.7997C355.751 98.8354 352.444 99.7517 338.849 111.339C330.209 118.702 319.464 128.655 310.097 137.965C307.104 140.936 304.373 143.73 301.978 146.245C301.196 147.067 300.472 147.852 299.781 148.596C298.777 149.683 297.848 150.713 296.974 151.717C297.285 152.22 297.584 152.721 297.877 153.196C300.456 157.411 302.428 160.811 303.872 163.539ZM303.581 164.931C302.166 162.185 300.07 158.527 297.086 153.64C296.698 152.995 296.289 152.333 295.862 151.645C296.819 150.55 297.885 149.357 299.103 148.038C299.793 147.294 300.53 146.511 301.314 145.678C303.746 143.112 306.503 140.31 309.45 137.378C327.384 119.553 352.577 97.2033 356.707 97.9513C356.849 97.9769 356.961 98.0208 357.051 98.1075C360.291 100.868 330.755 137.032 313.067 155.689C310.813 158.077 308.852 160.048 307.153 161.69C305.808 162.973 304.637 164.042 303.581 164.931Z" fill="#1F3A35"/>
<path d="M261.825 122.579C259.82 119.315 257.809 116.026 255.811 112.727L255.582 112.437L255.125 111.857C250.196 105.647 243.769 98.0183 237.008 90.3881C221.147 72.4899 211.647 63.6541 208.872 62.5011C209.286 66.3665 222.454 86.8579 238.01 107.781C244.105 111.358 250.404 115.221 256.239 118.952C257.651 119.847 259.015 120.733 260.334 121.599C260.83 121.914 261.323 122.24 261.825 122.579ZM264.775 125.624C263.205 124.558 261.545 123.453 259.796 122.307C258.476 121.441 257.112 120.555 255.7 119.66C249.919 115.962 243.542 112.062 237.34 108.418C222.86 88.9688 205.758 63.3599 208.181 61.5945C208.315 61.5002 208.495 61.4734 208.732 61.5164C212 62.1068 225.054 75.5176 237.707 89.7917C244.361 97.296 250.909 105.042 255.853 111.289C256.1 111.606 256.341 111.899 256.577 112.214C259.311 116.747 262.068 121.237 264.775 125.624Z" fill="#1F3A35"/>
<path d="M273.744 140.585C271.204 136.555 268.567 132.304 265.852 127.908L264.697 126.04C263.044 124.916 261.451 123.851 259.853 122.809C258.527 121.935 257.153 121.053 255.749 120.142C249.852 116.362 243.476 112.447 237.331 108.825C222.621 100.162 211.569 94.5867 207.772 93.8973C207.533 93.854 207.364 93.8351 207.239 93.8363C208.064 96.3136 218.723 106.27 238.405 121.325C239.514 122.171 240.623 123.017 241.722 123.849L241.891 123.976C244.45 125.908 247.038 127.822 249.592 129.671C256.478 132.58 263.108 135.514 268.758 138.175C269.699 138.621 270.628 139.064 271.512 139.487L271.87 139.66C272.083 139.758 272.294 139.868 272.495 139.964C272.908 140.17 273.332 140.379 273.744 140.585ZM276.261 142.856C274.996 142.197 273.591 141.5 272.039 140.741C271.715 140.586 271.39 140.432 271.056 140.264C270.172 139.841 269.255 139.399 268.313 138.954C262.631 136.275 255.946 133.307 249.094 130.416C246.561 128.583 243.942 126.64 241.296 124.655C241.296 124.655 241.296 124.655 241.284 124.653C240.121 123.774 238.959 122.894 237.786 122.001C221.079 109.228 204.741 95.3043 206.35 93.2213C206.566 92.9383 207.114 92.8826 207.95 93.0344C212.355 93.8343 224.703 100.361 237.817 108.078C244.05 111.752 250.459 115.684 256.269 119.413C257.676 120.313 259.047 121.206 260.385 122.082C262.155 123.239 263.823 124.353 265.389 125.425C265.804 126.097 266.216 126.781 266.631 127.453C269.958 132.796 273.195 137.99 276.261 142.856Z" fill="#1F3A35"/>
<path d="M281.885 152.531C281.159 151.412 280.429 150.255 279.678 149.083C278.635 147.448 277.566 145.761 276.484 144.023L276.373 143.858L276.028 143.302C274.78 142.652 273.437 141.985 272.015 141.28C271.813 141.182 271.611 141.085 271.4 140.974L271.041 140.8C270.154 140.373 269.245 139.93 268.301 139.48C262.632 136.794 255.97 133.818 249.049 130.878C235.118 124.958 217.57 118.159 210.096 116.791C208.755 116.545 208.069 116.54 207.749 116.577C209.328 119.718 229.937 132.575 252.984 144.724C255.331 145.96 257.726 147.205 260.084 148.394C263.403 148.942 266.594 149.502 269.577 150.048C271.589 150.417 273.514 150.781 275.317 151.136C276.881 151.446 278.346 151.751 279.691 152.033C280.438 152.206 281.175 152.365 281.885 152.531ZM283.863 153.904C282.538 153.589 281.069 153.248 279.451 152.903C278.109 152.609 276.653 152.319 275.089 152.008C273.274 151.652 271.361 151.289 269.373 150.925C266.331 150.368 263.101 149.813 259.746 149.259C257.421 148.087 255.002 146.838 252.513 145.516C231.191 134.273 205.294 118.811 206.795 116.114C207.077 115.6 208.316 115.587 210.292 115.949C217.358 117.243 233.795 123.453 249.432 130.094C256.295 133.011 263.015 136.01 268.716 138.714C269.661 139.164 270.581 139.609 271.468 140.036C271.806 140.195 272.129 140.362 272.455 140.518C274.012 141.284 275.422 141.988 276.691 142.653C276.88 142.965 277.073 143.264 277.265 143.564C278.35 145.291 279.418 146.978 280.461 148.613C281.275 149.893 282.073 151.134 282.852 152.347C282.908 152.43 282.954 152.498 282.998 152.578C283.305 153.032 283.581 153.455 283.863 153.904Z" fill="#1F3A35"/>
<path d="M266.629 164.118C271.613 164.108 276.219 164.162 280.299 164.275C282.277 164.327 283.963 164.397 285.464 164.457C286.938 164.524 288.296 164.606 289.565 164.696C287.797 162.036 285.887 159.119 283.773 155.836L282.788 154.292L282.695 154.154C281.45 153.85 280.083 153.535 278.638 153.231C277.292 152.932 275.845 152.639 274.277 152.324C272.482 151.966 270.563 151.598 268.558 151.226C265.533 150.664 262.295 150.1 258.932 149.536C229.242 144.571 201.313 141.912 198.142 143.728C199.715 145.879 216.566 151.922 245.715 159.252C253.033 161.072 260.258 162.753 266.629 164.118ZM266.5 165.005C260.093 163.633 252.832 161.946 245.472 160.093C221.447 154.054 196.45 146.414 197.154 143.509C197.966 140.186 232.171 144.131 259.126 148.637C262.477 149.198 265.727 149.765 268.776 150.331C270.781 150.703 272.699 151.072 274.507 151.431C276.074 151.747 277.531 152.053 278.88 152.34C280.502 152.69 281.974 153.036 283.303 153.356C283.727 154.017 284.161 154.693 284.566 155.327C287.16 159.355 289.405 162.772 291.384 165.714C289.666 165.565 287.694 165.43 285.404 165.32C283.831 165.247 282.118 165.184 280.253 165.129C276.091 165.049 271.434 164.998 266.5 165.005Z" fill="#1F3A35"/>
<path d="M213.654 173.157L213.855 172.288C229.501 175.167 260.502 177.648 279.636 178.15C286.793 178.332 291.951 178.243 295.399 177.875C296.963 177.705 298.192 177.472 299.109 177.182C297.288 174.951 295.02 171.841 292.198 167.723C291.835 167.185 291.451 166.632 291.06 166.052C289.392 165.915 287.593 165.801 285.553 165.703C284.069 165.635 282.382 165.578 280.421 165.519C276.334 165.407 271.731 165.369 266.728 165.378C253.032 165.418 238.029 165.917 226.62 166.716C209.58 167.915 205.943 169.371 205.183 169.847C205.651 170.199 207.42 171.092 213.858 172.276L213.654 173.157ZM213.654 173.157C207.732 172.067 204.057 170.932 204.126 169.821C204.33 166.454 239.593 164.563 266.747 164.488C271.674 164.477 276.338 164.527 280.475 164.636C282.338 164.689 284.049 164.75 285.62 164.822C287.907 164.929 289.879 165.05 291.593 165.209C292.067 165.912 292.526 166.576 292.964 167.224C296.291 172.075 298.743 175.363 300.568 177.523C299.631 178.062 298.058 178.485 295.467 178.769C292.121 179.132 287.107 179.247 279.576 179.057C260.086 178.525 229.168 176.012 213.654 173.157Z" fill="#1F3A35"/>
<path d="M343.479 218.715C344.145 218.836 344.834 218.593 345.266 218.078C345.418 217.904 345.529 217.699 345.592 217.485C345.8 216.811 345.581 216.108 345.012 215.685C344.843 215.559 328.476 203.211 308.941 178.695C308.756 178.744 308.564 178.769 308.382 178.807C307.928 178.891 307.486 178.977 307.183 179.159C306.879 179.342 306.613 179.685 306.319 180.035C306.176 180.222 306.021 180.408 305.868 180.582C325.802 205.668 342.041 217.875 342.737 218.392C342.957 218.562 343.205 218.666 343.479 218.715ZM343.278 219.568C342.874 219.495 342.491 219.331 342.153 219.08C341.415 218.532 324.822 206.036 304.638 180.49C305.396 180.058 305.831 178.951 306.712 178.422C307.493 177.947 308.563 177.986 309.295 177.668C328.967 202.446 345.418 214.857 345.586 214.982C346.461 215.638 346.765 216.713 346.461 217.689C346.362 218.004 346.192 218.305 345.965 218.584C345.301 219.4 344.241 219.742 343.278 219.568Z" fill="#1F3A35"/>
<path d="M304.54 180.787C304.682 180.813 304.749 180.789 304.807 180.753C305.008 180.635 305.254 180.326 305.497 180.027C305.851 179.572 306.255 179.067 306.856 178.715C307.46 178.352 308.106 178.233 308.687 178.125C309.021 178.068 309.332 178.006 309.551 177.915C309.729 177.841 309.769 177.778 309.799 177.701C310.021 177.127 309.788 175.445 307.338 170.706C305.854 167.842 303.724 164.152 300.829 159.416C300.439 158.768 300.028 158.103 299.596 157.423C297.737 154.42 295.56 150.982 293.119 147.201L292.883 146.84L292.549 146.32L292.439 146.158L292.222 145.824C290.485 143.138 288.645 140.315 286.719 137.383L285.474 135.494C283.692 132.788 281.841 130.011 279.947 127.155L278.76 125.383C276.763 122.39 274.705 119.34 272.626 116.273L271.28 114.284C270.226 112.736 269.174 111.177 268.108 109.627C266.264 106.922 264.409 104.215 262.551 101.519C258.799 96.0733 255.11 90.7806 251.577 85.7641C232.834 59.141 223.306 47.1997 220.175 44.4037C221.842 49.7914 233.758 72.0185 258.03 111.997C260.741 116.464 263.495 120.962 266.201 125.345L267.435 127.338C270.733 132.666 273.944 137.79 276.954 142.559L277.414 143.279L277.522 143.452C278.591 145.144 279.646 146.798 280.675 148.4C281.478 149.654 282.265 150.871 283.034 152.06L283.105 152.179L283.178 152.286L283.729 153.141L284.017 153.595L284.287 154.021L285.258 155.506C287.732 159.305 289.917 162.603 291.946 165.566C292.414 166.252 292.854 166.898 293.288 167.519C296.437 172.065 298.866 175.325 300.734 177.503C302.936 180.049 304.019 180.693 304.54 180.787ZM304.34 181.636C303.452 181.476 302.158 180.522 300.019 178.023C298.217 175.927 295.793 172.704 292.526 167.972C292.093 167.351 291.643 166.691 291.176 166.005C289.232 163.152 287.026 159.838 284.478 155.932C284.08 155.317 283.654 154.662 283.238 154.02C282.959 153.581 282.686 153.165 282.398 152.712C282.343 152.631 282.298 152.564 282.254 152.486C281.486 151.296 280.701 150.069 279.896 148.826C278.866 147.224 277.812 145.57 276.742 143.878C276.552 143.584 276.365 143.279 276.175 142.985C273.137 138.175 269.926 133.052 266.646 127.75C266.235 127.086 265.824 126.422 265.415 125.746C262.709 121.363 259.973 116.891 257.244 112.397C236.851 78.7966 217.081 44.1753 219.222 42.8979C219.28 42.8612 219.356 42.8514 219.451 42.8685C221.95 43.3198 236.076 62.1459 252.333 85.228C255.921 90.3252 259.62 95.6314 263.317 100.996C265.175 103.692 267.03 106.399 268.885 109.107C269.948 110.668 271.003 112.215 272.055 113.774C272.504 114.434 272.951 115.105 273.4 115.764C275.489 118.844 277.535 121.892 279.544 124.887C279.948 125.479 280.337 126.081 280.728 126.671C282.625 129.515 284.485 132.306 286.266 135.012C286.686 135.642 287.105 136.273 287.512 136.901C289.449 139.835 291.287 142.669 293.024 145.355C293.134 145.516 293.241 145.689 293.348 145.862C293.538 146.156 293.728 146.45 293.918 146.744C296.403 150.603 298.552 154.001 300.404 156.979C300.834 157.671 301.245 158.335 301.635 158.984C304.637 163.893 306.746 167.566 308.169 170.325C311.464 176.715 311.138 178.202 309.916 178.725C309.186 179.042 308.122 179.003 307.343 179.476C306.466 180.002 306.021 181.102 305.277 181.534C304.994 181.636 304.707 181.702 304.34 181.636Z" fill="#1F3A35"/>
</svg>
