<svg width="1440" height="476" viewBox="0 0 1440 476" fill="none" xmlns="http://www.w3.org/2000/svg">
<mask id="mask0" mask-type="alpha" maskUnits="userSpaceOnUse" x="0" y="0" width="1440" height="476">
<rect width="1440" height="476" fill="#C4C4C4"/>
</mask>
<g mask="url(#mask0)">
<rect width="1441" height="476" fill="url(#paint0_linear)"/>
<path d="M659.691 342.361C642.292 342.361 628.451 330.555 628.451 312.534V256.721H645.003V311.913C645.003 321.686 650.709 327.504 659.691 327.504C668.673 327.504 674.491 321.686 674.491 311.913V256.721H690.93V312.534C690.93 330.555 677.146 342.361 659.691 342.361Z" fill="white"/>
<path d="M719.966 256.778H703.64V271.578H719.119C726.632 271.578 731.377 276.324 731.377 283.272C731.377 290.22 726.632 294.852 719.119 294.852H703.64V309.766H719.966C737.478 309.766 747.985 297.734 747.985 283.272C747.985 268.81 737.478 256.778 719.966 256.778Z" fill="white"/>
<path d="M805.719 341.627L789.167 307.789H777.248V341.627H760.696V256.778H793.969C811.255 256.778 821.536 268.584 821.536 282.763C821.536 294.683 814.249 302.083 806.058 305.077L825.039 341.683H805.719V341.627ZM792.839 271.522H777.248V293.949H792.839C800.126 293.949 804.871 289.316 804.871 282.763C804.871 276.211 800.07 271.522 792.839 271.522Z" fill="white"/>
<path d="M894.635 341.627L889.607 326.6H859.441L854.301 341.627H837.015L867.915 256.721H880.908L911.921 341.627H894.635ZM874.863 281.803L864.13 312.704H885.258L874.863 281.803Z" fill="white"/>
<path d="M592.975 292.028L582.976 290.616C579.53 290.164 576.762 288.808 575.124 287.283C573.317 285.588 572.639 283.328 572.639 281.182C572.639 275.363 576.932 270.449 585.744 270.449C589.529 270.449 593.766 270.787 597.72 272.595L608.51 261.805C602.353 257.738 595.235 256.043 586.196 256.043C567.837 256.043 556.652 266.664 556.652 281.803C556.652 288.977 558.685 294.457 562.753 298.468C566.594 302.14 571.961 304.456 579.192 305.529L589.473 306.941C593.427 307.563 595.291 308.354 596.986 309.935C598.794 311.63 599.585 314.116 599.585 317.11C599.585 323.889 594.331 327.617 584.558 327.617C576.706 327.617 569.419 325.809 564.052 320.443L553.319 331.176C561.679 339.65 571.452 342.361 584.332 342.361C602.07 342.361 615.797 333.04 615.797 316.601C615.797 309.088 613.764 302.874 609.245 298.581C605.573 295.248 600.714 293.101 592.975 292.028Z" fill="white"/>
<path d="M584.671 193C584.671 193 548.8 242.825 537.784 260.054C524.339 281.125 529.48 305.586 544.28 322.194L555.07 311.404L555.296 311.63C544.563 299.654 541.23 281.577 550.89 266.381C558.798 253.953 584.671 218.082 584.671 218.082C584.671 218.082 600.545 239.209 608.454 251.637L626.022 251.694C615.007 234.408 584.671 193 584.671 193Z" fill="white"/>
</g>
<defs>
<linearGradient id="paint0_linear" x1="0" y1="238" x2="1441" y2="238" gradientUnits="userSpaceOnUse">
<stop stop-color="#3BBFBB"/>
<stop offset="1" stop-color="#454084"/>
</linearGradient>
</defs>
</svg>
