<svg id="Layer_1" data-name="Layer 1" xmlns="http://www.w3.org/2000/svg" viewBox="0 0 34 34"><defs><style>.cls-1{fill:none;stroke:#1f3a35;}.cls-2{fill:#1f3a35;fill-rule:evenodd;}</style></defs><title>ig</title><path class="cls-1" d="M1,17A16,16,0,0,1,17,1h0A16,16,0,0,1,33,17h0A16,16,0,0,1,17,33h0A16,16,0,0,1,1,17Z"/><path class="cls-2" d="M17,7c-2.71,0-3.06,0-4.12.06a7.59,7.59,0,0,0-2.43.46,5.19,5.19,0,0,0-2.93,2.93,7.59,7.59,0,0,0-.46,2.43C7,13.94,7,14.28,7,17s0,3.06.06,4.12a7.3,7.3,0,0,0,.47,2.43,4.78,4.78,0,0,0,1.15,1.77,4.7,4.7,0,0,0,1.77,1.15,7.3,7.3,0,0,0,2.43.47c1.06,0,1.4.06,4.12.06s3.06,0,4.12-.06a7.3,7.3,0,0,0,2.43-.47,4.7,4.7,0,0,0,1.77-1.15,4.94,4.94,0,0,0,1.16-1.77,7.59,7.59,0,0,0,.46-2.43c0-1.06.06-1.4.06-4.12s0-3.06-.06-4.12a7.59,7.59,0,0,0-.46-2.43,4.85,4.85,0,0,0-1.16-1.77,4.94,4.94,0,0,0-1.77-1.16,7.59,7.59,0,0,0-2.43-.46C20.05,7,19.71,7,17,7Zm-.9,1.8H17c2.67,0,3,0,4,.06a5.61,5.61,0,0,1,1.86.34,3.19,3.19,0,0,1,1.15.75,3.27,3.27,0,0,1,.75,1.15A5.61,5.61,0,0,1,25.14,13c.05,1,.06,1.37.06,4s0,3-.06,4a5.59,5.59,0,0,1-.34,1.85A3.19,3.19,0,0,1,24.05,24a3.06,3.06,0,0,1-1.15.75,5.35,5.35,0,0,1-1.86.34c-1.05.05-1.37.06-4,.06s-3,0-4-.06a5.47,5.47,0,0,1-1.86-.34A3.14,3.14,0,0,1,10,24a3.19,3.19,0,0,1-.75-1.15A5.59,5.59,0,0,1,8.86,21c0-1.06-.06-1.37-.06-4s0-3,.06-4A5.89,5.89,0,0,1,9.2,11.1,3.19,3.19,0,0,1,10,10,3.14,3.14,0,0,1,11.1,9.2,5.47,5.47,0,0,1,13,8.86c.92,0,1.28-.06,3.14-.06Zm6.24,1.66a1.2,1.2,0,1,0,1.2,1.2,1.2,1.2,0,0,0-1.2-1.2ZM17,11.86A5.14,5.14,0,1,0,22.14,17,5.13,5.13,0,0,0,17,11.86Zm0,1.81A3.33,3.33,0,1,1,13.67,17,3.33,3.33,0,0,1,17,13.67Z"/></svg>