<svg width="296" height="121" viewBox="0 0 296 121" fill="none" xmlns="http://www.w3.org/2000/svg">
<path d="M73.3125 55.1329C75.3316 60.3537 74.2276 66.4987 69.9975 70.7107C64.2723 76.4118 54.9875 76.4118 49.2623 70.7107C43.537 65.0097 43.537 55.7672 49.2623 50.0661C54.9875 44.365 64.2723 44.365 69.9975 50.0661L49.2623 70.7107" stroke="#E3AF55" stroke-width="1.81226" stroke-miterlimit="10"/>
<path d="M14.171 60.3884H35.755" stroke="#E3AF55" stroke-width="1.20817" stroke-miterlimit="10"/>
<path d="M27.485 92.532L42.7472 77.2698" stroke="#E3AF55" stroke-width="1.20817" stroke-miterlimit="10"/>
<path d="M76.5097 43.5074L91.7719 28.2451" stroke="#E3AF55" stroke-width="1.20817" stroke-miterlimit="10"/>
<path d="M59.6285 105.846V84.262" stroke="#E3AF55" stroke-width="1.20817" stroke-miterlimit="10"/>
<path d="M59.6285 36.5152V14.9312" stroke="#E3AF55" stroke-width="1.20817" stroke-miterlimit="10"/>
<path d="M91.7719 92.532L76.5097 77.2698" stroke="#E3AF55" stroke-width="1.20817" stroke-miterlimit="10"/>
<path d="M42.7472 43.5074L27.485 28.2451" stroke="#E3AF55" stroke-width="1.20817" stroke-miterlimit="10"/>
<path d="M21.1934 60.3884H35.7549" stroke="#E3AF55" stroke-width="1.20817" stroke-miterlimit="10"/>
<path d="M24.1187 75.0966L37.5733 69.5239" stroke="#E3AF55" stroke-width="1.20817" stroke-miterlimit="10"/>
<path d="M32.4505 87.5664L42.7472 77.2698" stroke="#E3AF55" stroke-width="1.20817" stroke-miterlimit="10"/>
<path d="M76.5097 43.5073L86.8063 33.2107" stroke="#E3AF55" stroke-width="1.20817" stroke-miterlimit="10"/>
<path d="M44.9204 95.8983L50.4931 82.4453" stroke="#E3AF55" stroke-width="1.20817" stroke-miterlimit="10"/>
<path d="M68.7653 38.3319L74.338 24.8789" stroke="#E3AF55" stroke-width="1.20817" stroke-miterlimit="10"/>
<path d="M59.6285 98.8235V84.262" stroke="#E3AF55" stroke-width="1.20817" stroke-miterlimit="10"/>
<path d="M59.6285 36.5149V21.9519" stroke="#E3AF55" stroke-width="1.20817" stroke-miterlimit="10"/>
<path d="M74.338 95.8983L68.7653 82.4453" stroke="#E3AF55" stroke-width="1.20817" stroke-miterlimit="10"/>
<path d="M50.4931 38.3319L44.9204 24.8789" stroke="#E3AF55" stroke-width="1.20817" stroke-miterlimit="10"/>
<path d="M86.8063 87.5664L76.5097 77.2698" stroke="#E3AF55" stroke-width="1.20817" stroke-miterlimit="10"/>
<path d="M42.7472 43.5073L32.4505 33.2107" stroke="#E3AF55" stroke-width="1.20817" stroke-miterlimit="10"/>
<path d="M37.5733 51.2519L24.1187 45.6792" stroke="#E3AF55" stroke-width="1.20817" stroke-miterlimit="10"/>
<path d="M105.131 46.8899C105.279 46.8899 105.355 46.9639 105.355 47.1134V49.794C105.355 49.9436 105.281 50.0175 105.131 50.0175H98.6857V71.2769C98.6857 71.4264 98.6117 71.5004 98.4622 71.5004H95.7816C95.632 71.5004 95.558 71.4264 95.558 71.2769V50.0175H89.0958C88.9463 50.0175 88.8723 49.9436 88.8723 49.794V47.1134C88.8723 46.9639 88.9463 46.8899 89.0958 46.8899H105.131Z" fill="#E3AF55"/>
<path d="M114.871 56.0663C116.922 56.0784 118.669 56.8335 120.113 58.3347C121.556 59.8237 122.278 61.5997 122.278 63.6627V64.6428C122.278 64.7803 122.209 64.8543 122.071 64.8663L110.728 65.8465C111.118 66.6711 111.702 67.3355 112.482 67.84C113.271 68.3444 114.137 68.5966 115.076 68.5966C115.901 68.5966 116.674 68.4018 117.396 68.0121C118.128 67.6119 118.713 67.0667 119.149 66.3796C119.229 66.2542 119.332 66.2255 119.459 66.2935L121.573 67.5304C121.71 67.5998 121.739 67.7025 121.659 67.84C120.96 68.9741 120.021 69.8682 118.841 70.5206C117.672 71.173 116.417 71.5007 115.078 71.5007C112.957 71.5007 111.142 70.7441 109.629 69.2324C108.117 67.7312 107.36 65.9159 107.36 63.7835C107.36 61.6073 108.088 59.7739 109.543 58.2833C110.998 56.7927 112.775 56.0542 114.871 56.0663ZM119.219 62.2008C118.966 61.2161 118.445 60.4308 117.654 59.8464C116.864 59.2514 115.919 58.9523 114.818 58.9523C113.661 58.9523 112.664 59.3299 111.828 60.0865C110.991 60.831 110.487 61.7946 110.316 62.974L119.219 62.2008Z" fill="#E3AF55"/>
<path d="M136.695 56.4787C136.843 56.4787 136.918 56.5527 136.918 56.7022V59.1593C136.918 59.3088 136.844 59.3828 136.695 59.3828H133.464V71.0523C133.464 71.2018 133.39 71.2758 133.241 71.2758H130.784C130.634 71.2758 130.56 71.2018 130.56 71.0523C130.56 69.758 130.56 65.8677 130.56 59.3828H128.342C128.192 59.3828 128.118 59.3088 128.118 59.1593V56.7022C128.118 56.5527 128.192 56.4787 128.342 56.4787H130.559V52.2501C130.559 51.3107 130.766 50.468 131.178 49.7235C131.602 48.979 132.181 48.4232 132.913 48.0562C133.612 47.7013 134.363 47.5699 135.165 47.6605C135.955 47.7406 136.711 48.0275 137.433 48.5199C137.571 48.612 137.587 48.7207 137.485 48.8461L136.024 50.8048C135.944 50.9196 135.841 50.9362 135.715 50.8562C135.153 50.5013 134.654 50.4318 134.22 50.6493C133.715 50.9015 133.463 51.4346 133.463 52.2471V56.4757H136.695V56.4787Z" fill="#E3AF55"/>
<path d="M152.573 56.0993C152.619 56.0072 152.688 55.9619 152.78 55.9619H155.479C155.559 55.9619 155.622 55.9967 155.668 56.0646C155.713 56.122 155.719 56.1915 155.684 56.2715L147.143 77.5142C147.108 77.6063 147.04 77.6516 146.936 77.6516H144.237C144.157 77.6516 144.1 77.6169 144.065 77.549C144.019 77.4916 144.007 77.4221 144.03 77.3421L146.643 70.8451L140.611 56.2715C140.576 56.1915 140.582 56.1235 140.628 56.0646C140.673 55.9951 140.736 55.9619 140.816 55.9619H143.515C143.618 55.9619 143.687 56.0072 143.722 56.0993L148.225 66.9442L152.573 56.0993Z" fill="#E3AF55"/>
<path d="M175.269 66.8417V66.9625V67.1165V67.2706V67.3219L175.252 67.3567C175.252 67.3914 175.252 67.4261 175.252 67.4593L175.217 67.7176L175.183 67.9758C175.056 68.6177 174.799 69.1901 174.409 69.6945C174.042 70.1762 173.585 70.5538 173.035 70.8286C172.611 71.0461 172.131 71.2183 171.591 71.3436C171.099 71.4358 170.663 71.4871 170.285 71.4977H170.131H170.062H169.975H169.941L169.701 71.4811C169.631 71.4811 169.54 71.4811 169.426 71.4811C169.346 71.4705 169.243 71.4584 169.116 71.4463C168.772 71.401 168.405 71.3255 168.017 71.2228C167.444 71.0748 166.899 70.8513 166.384 70.5523C166.12 70.4028 165.874 70.2427 165.646 70.0705C165.486 69.9557 165.342 69.8364 165.215 69.7096C165.1 69.6069 165.1 69.4981 165.215 69.3834L167.003 67.6814C167.095 67.6013 167.192 67.5953 167.295 67.6647C167.387 67.7448 167.473 67.8143 167.553 67.8716C167.656 67.9411 167.742 67.9985 167.811 68.0438C168.131 68.2265 168.464 68.364 168.808 68.4561L168.962 68.5074L169.116 68.5422L169.202 68.5588L169.288 68.5754C169.358 68.5875 169.409 68.592 169.442 68.592L169.512 68.6086H169.581C169.651 68.6207 169.725 68.6252 169.805 68.6252L170.045 68.6419L170.199 68.6252C170.416 68.6252 170.685 68.6026 171.007 68.5558C171.294 68.4863 171.528 68.4078 171.712 68.3156C172.09 68.1087 172.325 67.8067 172.417 67.405L172.434 67.3355L172.451 67.2842V67.2328V67.1815V67.1467L172.467 66.9927V66.958V66.9232L172.451 66.8371C172.461 66.8145 172.461 66.7918 172.451 66.7677L172.434 66.6816C172.399 66.4868 172.307 66.298 172.159 66.1137C171.862 65.7588 171.283 65.3813 170.424 64.9796L169.788 64.6881L169.479 64.5507L169.409 64.5159L169.358 64.4993V64.4827L169.204 64.4314C168.654 64.1792 168.207 63.9496 167.863 63.7442C167.301 63.412 166.843 63.051 166.488 62.6614C166.443 62.6161 166.39 62.5527 166.334 62.4726L166.197 62.2657C166.082 62.1056 165.996 61.9622 165.939 61.8353L165.818 61.5952C165.783 61.5031 165.754 61.423 165.732 61.3551L165.662 61.0968L165.628 60.9594L165.611 60.822C165.588 60.7193 165.57 60.6211 165.56 60.5305V60.3764L165.543 60.2904V60.2556V60.239V60.1695V60.1348C165.543 60.1242 165.543 60.1288 165.543 60.1514V60.1348L165.56 59.9113C165.56 59.7859 165.57 59.6364 165.594 59.4643C165.605 59.3616 165.64 59.2121 165.697 59.0172C165.869 58.3754 166.179 57.8378 166.626 57.4013C167.003 57.0011 167.473 56.6915 168.035 56.4725C168.435 56.323 168.888 56.2143 169.392 56.1463C169.702 56.1237 169.907 56.1116 170.012 56.1116L170.303 56.095L170.595 56.1116C170.915 56.1237 171.276 56.169 171.677 56.249C172.262 56.3864 172.824 56.5994 173.361 56.8848C173.568 56.9875 173.757 57.1023 173.929 57.2291C174.077 57.3213 174.216 57.4179 174.341 57.5206C174.376 57.5554 174.434 57.6127 174.514 57.6928C174.639 57.7955 174.645 57.9042 174.53 58.019L172.949 59.5488C172.857 59.641 172.76 59.647 172.658 59.5654C172.565 59.496 172.479 59.4341 172.399 59.3767C172.285 59.3072 172.192 59.2513 172.124 59.2045C171.804 59.0444 171.472 58.9236 171.128 58.8436C170.863 58.7983 170.646 58.7741 170.475 58.7741L170.287 58.7575L170.098 58.7741C170.018 58.7741 169.944 58.7741 169.874 58.7741L169.788 58.7907H169.719C169.432 58.836 169.198 58.8934 169.013 58.9629C168.819 59.055 168.665 59.1577 168.55 59.2725C168.435 59.3872 168.355 59.5368 168.31 59.7195L168.293 59.789L168.276 59.875L168.26 59.9611V60.0472V60.1333V60.2194L168.276 60.3734V60.39H168.293V60.4066V60.4233L168.31 60.4927L168.326 60.5441L168.361 60.5954L168.43 60.7162L168.482 60.7857L168.533 60.8552C168.693 61.0273 168.929 61.2055 169.238 61.3883C169.501 61.5378 169.862 61.7084 170.321 61.9033L170.459 61.9727L170.666 62.0588L170.975 62.2129L171.576 62.4711C172.114 62.7112 172.567 62.9529 172.934 63.193C173.496 63.5373 173.947 63.9149 174.292 64.3272C174.749 64.8542 175.048 65.4508 175.186 66.1153L175.22 66.3554C175.243 66.4581 175.255 66.5381 175.255 66.5955L175.269 66.8417Z" fill="#E3AF55"/>
<path d="M200.853 56.6157C202.572 56.7879 204.055 57.4917 205.304 58.7301C206.553 59.9669 207.275 61.4454 207.47 63.164C207.595 64.2635 207.486 65.3357 207.143 66.3778C206.823 67.364 206.307 68.2459 205.597 69.0252C204.898 69.8045 204.079 70.4055 203.14 70.8299C202.166 71.2769 201.134 71.5004 200.047 71.5004C198.89 71.5004 197.795 71.2422 196.764 70.7272C195.755 70.2349 194.902 69.5477 194.202 68.6643V71.2588C194.202 71.4189 194.122 71.4989 193.962 71.4989H192.828C192.668 71.4989 192.588 71.4189 192.588 71.2588V47.112C192.588 46.9519 192.668 46.8718 192.828 46.8718H193.962C194.122 46.8718 194.202 46.9519 194.202 47.112V59.4006C194.982 58.4159 195.944 57.6759 197.09 57.1836C198.28 56.6671 199.535 56.4783 200.853 56.6157ZM200.045 69.883C201.661 69.883 203.042 69.3106 204.188 68.1644C205.334 67.0181 205.907 65.6438 205.907 64.04C205.907 62.424 205.334 61.0437 204.188 59.8974C203.042 58.7512 201.661 58.1788 200.045 58.1788C198.442 58.1788 197.066 58.7512 195.921 59.8974C194.775 61.0437 194.202 62.424 194.202 64.04C194.202 65.6438 194.775 67.0196 195.921 68.1644C197.066 69.3106 198.44 69.883 200.045 69.883Z" fill="#E3AF55"/>
<path d="M221.868 56.7021C222.028 56.7369 222.092 56.8335 222.057 56.9936L221.833 58.1112C221.799 58.2607 221.706 58.3226 221.558 58.3C221.352 58.2652 221.14 58.2486 220.923 58.2486C219.742 58.2486 218.734 58.6669 217.898 59.5036C217.061 60.3403 216.643 61.3491 216.643 62.5286V71.2591C216.643 71.4192 216.569 71.4992 216.419 71.4992H215.268C215.108 71.4992 215.028 71.4192 215.028 71.2591V56.7716C215.028 56.6115 215.108 56.5315 215.268 56.5315H216.419C216.569 56.5315 216.643 56.6115 216.643 56.7716V58.4902C217.812 57.2534 219.237 56.6342 220.923 56.6342C221.244 56.6327 221.558 56.6553 221.868 56.7021Z" fill="#E3AF55"/>
<path d="M236.818 71.4991C236.68 71.4991 236.6 71.4296 236.578 71.2922C236.475 70.4676 236.395 69.6944 236.337 68.9725C236.017 69.4195 235.656 69.8031 235.255 70.1233C234.578 70.6851 233.776 71.0808 232.849 71.3088C231.955 71.5157 231.009 71.5384 230.013 71.3783C229.451 71.2756 228.958 71.1094 228.534 70.8799C228.03 70.605 227.611 70.2441 227.279 69.7971C226.717 69.0072 226.471 68.0044 226.541 66.7887C226.586 66.2269 226.729 65.718 226.971 65.2589C227.201 64.8013 227.533 64.3996 227.968 64.0552C228.587 63.5508 229.395 63.1733 230.392 62.9211C231.044 62.761 231.789 62.6522 232.625 62.5948C233.232 62.5601 233.852 62.5541 234.481 62.5782C234.734 62.5782 234.992 62.5903 235.255 62.613C235.427 62.613 235.644 62.6251 235.907 62.6477L236.165 62.6643C236.143 60.911 235.81 59.7088 235.169 59.0549C234.596 58.4704 233.673 58.179 232.402 58.179C231.462 58.179 230.603 58.3451 229.824 58.6773C229.537 58.8042 229.268 58.9462 229.016 59.1078C228.924 59.1651 228.833 59.2286 228.741 59.2965C228.672 59.3539 228.61 59.4053 228.552 59.4506C228.45 59.5427 228.345 59.5427 228.243 59.4506L227.383 58.6773C227.258 58.552 227.258 58.4312 227.383 58.3164C227.463 58.2469 227.549 58.179 227.642 58.1095C227.756 58.0174 227.876 57.9268 228.003 57.8346C228.323 57.6172 228.667 57.4224 229.034 57.2502C230.065 56.7805 231.188 56.5449 232.402 56.5449C234.132 56.5449 235.443 57.004 236.337 57.9192C237.014 58.6185 237.449 59.5865 237.644 60.8234C237.724 61.3051 237.769 61.8609 237.781 62.4906V63.35V64.1745C237.769 64.5642 237.765 64.9085 237.765 65.206C237.765 66.1106 237.816 67.1768 237.919 68.4031C237.988 69.2972 238.085 70.2365 238.21 71.2212C238.233 71.4039 238.153 71.4961 237.97 71.4961H236.818V71.4991ZM235.477 67.5453C235.717 67.1104 235.912 66.612 236.061 66.0502L236.147 65.724L236.131 65.209L236.147 64.7107V64.2123C236.02 64.2017 235.901 64.1896 235.786 64.1776C235.304 64.1323 234.857 64.1036 234.445 64.0915C233.849 64.0809 233.27 64.0915 232.71 64.1262C231.976 64.1715 231.323 64.2636 230.751 64.4011C229.972 64.5959 229.365 64.8707 228.93 65.2256C228.415 65.65 228.14 66.2058 228.105 66.8929C228.083 67.7175 228.249 68.3714 228.604 68.8517C228.948 69.3334 229.514 69.6476 230.306 69.7971C231.085 69.9345 231.813 69.9285 232.488 69.7805C233.175 69.6204 233.782 69.3395 234.309 68.9378C234.765 68.5829 235.155 68.1192 235.477 67.5453Z" fill="#E3AF55"/>
<path d="M257.541 71.2591C257.541 71.4192 257.461 71.4993 257.301 71.4993H256.15C255.99 71.4993 255.91 71.4192 255.91 71.2591V70.6913C255.922 69.6825 255.927 68.423 255.927 66.9097V66.4808V66.0172C255.927 65.6849 255.927 65.3693 255.927 65.0718C255.937 64.3393 255.943 63.6627 255.943 63.0436V62.5105C255.943 62.3383 255.937 62.1842 255.927 62.0468C255.892 61.7372 255.824 61.4337 255.72 61.1362C255.513 60.517 255.187 59.9733 254.739 59.5036C254.305 59.046 253.777 58.6956 253.158 58.4555C252.871 58.3528 252.568 58.2773 252.248 58.232L252.127 58.2154L252.024 58.1988L251.921 58.1822C251.876 58.1822 251.835 58.1822 251.801 58.1822H251.663H251.612H251.56H251.44H251.337C250.74 58.2169 250.186 58.3649 249.67 58.6292C249.188 58.8693 248.77 59.185 248.415 59.5746C248.117 59.8948 247.871 60.2557 247.676 60.6574C247.527 60.9776 247.412 61.2993 247.332 61.6194C247.309 61.7463 247.291 61.8716 247.281 61.997L247.264 62.151L247.247 62.2718C247.247 62.3866 247.247 62.4727 247.247 62.5301L247.231 62.9076V71.2606C247.231 71.4207 247.151 71.5008 246.991 71.5008H245.84C245.69 71.5008 245.616 71.4207 245.616 71.2606V56.755C245.616 56.5949 245.69 56.5149 245.84 56.5149H246.991C247.151 56.5149 247.231 56.5949 247.231 56.755V58.7138L247.333 58.5763C247.815 58.0614 248.365 57.637 248.983 57.3047C249.692 56.9498 250.443 56.7429 251.234 56.6855L251.388 56.6689H251.542H251.696H251.834C251.869 56.6689 251.92 56.6689 251.988 56.6689L252.142 56.6855L252.314 56.7022L252.468 56.7188C252.892 56.7762 253.299 56.8789 253.688 57.0284C254.525 57.338 255.247 57.8076 255.854 58.4374C256.473 59.0672 256.92 59.8011 257.195 60.6378C257.333 61.0395 257.425 61.4518 257.47 61.8747C257.493 62.0695 257.509 62.2764 257.521 62.4938V63.0436C257.521 63.3532 257.521 63.696 257.521 64.075C257.521 64.3272 257.521 64.6595 257.521 65.0718V65.5535V66.0172C257.521 66.3615 257.521 66.659 257.521 66.9112C257.532 68.4229 257.538 69.684 257.538 70.6928V71.2591H257.541Z" fill="#E3AF55"/>
<path d="M279.175 71.2588C279.175 71.4189 279.095 71.4989 278.935 71.4989H277.784C277.634 71.4989 277.56 71.4189 277.56 71.2588V68.6643C276.861 69.5462 276.008 70.2349 274.999 70.7272C273.967 71.2422 272.868 71.5004 271.699 71.5004C269.648 71.5004 267.889 70.7725 266.422 69.3182C264.967 67.8518 264.24 66.0924 264.24 64.0415C264.24 61.9785 264.968 60.2206 266.422 58.7648C267.889 57.2984 269.648 56.5644 271.699 56.5644C272.868 56.5644 273.967 56.8226 274.999 57.3376C276.006 57.83 276.861 58.5171 277.56 59.4006V47.112C277.56 46.9519 277.634 46.8718 277.784 46.8718H278.935C279.095 46.8718 279.175 46.9519 279.175 47.112V71.2588ZM271.699 69.883C273.315 69.883 274.695 69.3106 275.842 68.1644C276.988 67.0181 277.56 65.6438 277.56 64.04C277.56 62.424 276.988 61.0437 275.842 59.8974C274.695 58.7512 273.315 58.1788 271.699 58.1788C270.095 58.1788 268.719 58.7512 267.575 59.8974C266.428 61.0437 265.856 62.424 265.856 64.04C265.856 65.6438 266.428 67.0196 267.575 68.1644C268.719 69.3106 270.094 69.883 271.699 69.883Z" fill="#E3AF55"/>
<path d="M294.725 59.0566C294.623 59.1487 294.514 59.1548 294.399 59.0732C294.296 58.9811 294.186 58.9011 294.073 58.8331C293.936 58.7304 293.798 58.6443 293.661 58.5749C293.271 58.368 292.865 58.22 292.44 58.1278C292.12 58.0704 291.85 58.0357 291.632 58.0251H291.409H291.185C291.105 58.0251 291.019 58.0312 290.927 58.0418H290.824L290.722 58.0584C290.355 58.1037 290.051 58.1792 289.811 58.2819C289.502 58.3967 289.255 58.5567 289.073 58.7636C288.866 58.9585 288.722 59.2107 288.644 59.5203L288.609 59.6411L288.592 59.7619C288.58 59.8767 288.576 59.9627 288.576 60.0201L288.559 60.1576V60.1228V60.1394L288.576 60.1908V60.2769V60.4309L288.611 60.5336C288.611 60.5563 288.617 60.585 288.627 60.6197L288.662 60.7405L288.697 60.8432L288.748 60.9459L288.799 61.0486L288.869 61.1513L288.955 61.254L289.041 61.3567C289.258 61.5968 289.562 61.8324 289.952 62.062C290.249 62.2341 290.651 62.435 291.155 62.663L291.327 62.7325L291.516 62.8186L291.842 62.9726L292.495 63.2475C293.034 63.4997 293.485 63.7398 293.852 63.9694C294.38 64.3016 294.804 64.6625 295.124 65.0522C295.536 65.5219 295.801 66.0489 295.915 66.6334L295.967 66.8569C295.979 66.949 295.983 67.023 295.983 67.0804L296 67.2873V67.4081V67.4776V67.5289V67.615V67.7011C295.988 67.7706 295.983 67.8325 295.983 67.8899L295.949 68.1134L295.914 68.3369C295.799 68.9093 295.57 69.4197 295.227 69.8668C294.895 70.2911 294.482 70.6294 293.99 70.8801C293.6 71.087 293.153 71.241 292.649 71.3437C292.167 71.4359 291.749 71.4872 291.394 71.4978H291.24H291.17H291.101H291.066L290.808 71.4812C290.738 71.4812 290.648 71.4751 290.533 71.4646H290.379L290.242 71.4479C289.921 71.4026 289.571 71.3332 289.193 71.241C288.644 71.081 288.117 70.8575 287.612 70.5705C287.372 70.4452 287.153 70.3077 286.958 70.1582C286.809 70.0434 286.671 69.9347 286.546 69.832C286.419 69.7172 286.419 69.5979 286.546 69.4711L287.371 68.6812C287.473 68.5785 287.582 68.5725 287.697 68.6646C287.777 68.7447 287.869 68.8187 287.972 68.8881C288.109 68.9908 288.259 69.089 288.419 69.1796C288.808 69.3971 289.209 69.5632 289.622 69.678C289.92 69.758 290.184 69.8154 290.412 69.8501L290.515 69.8668H290.618C290.698 69.8788 290.778 69.8834 290.858 69.8834L291.116 69.9H291.151H291.22L291.341 69.8834C291.604 69.8834 291.931 69.8547 292.321 69.7973C292.688 69.7172 292.998 69.6085 293.248 69.4711C293.868 69.1615 294.239 68.6752 294.366 68.0107L294.383 67.8899L294.399 67.7872C294.41 67.7524 294.416 67.7011 294.416 67.6331V67.5471V67.461L294.432 67.4096V67.393V67.3764C294.432 67.4111 294.432 67.4217 294.432 67.4111L294.416 67.3417V67.2209C294.416 67.1861 294.41 67.1408 294.399 67.0834L294.383 66.9626C294.313 66.6304 294.165 66.3268 293.936 66.0519C293.546 65.5943 292.847 65.1292 291.839 64.6595L291.169 64.3681L290.843 64.214L290.705 64.1445L290.533 64.0751C289.971 63.8229 289.52 63.5933 289.175 63.3879C288.648 63.0783 288.219 62.74 287.886 62.3746C287.84 62.3293 287.793 62.2719 287.748 62.2024L287.611 62.0302C287.508 61.8702 287.433 61.7388 287.387 61.6346L287.285 61.4277C287.25 61.3476 287.227 61.2782 287.215 61.2208C287.158 61.038 287.117 60.8825 287.094 60.7571L287.06 60.517V60.363L287.043 60.2769V60.2255V60.2089V60.1576V60.141L287.06 59.9341C287.06 59.8314 287.07 59.7 287.094 59.5384L287.129 59.3315L287.18 59.1246C287.33 58.5628 287.599 58.0871 287.988 57.6974C288.333 57.3531 288.755 57.0782 289.26 56.8728C289.627 56.7354 290.05 56.6327 290.532 56.5633H290.704L290.858 56.5466C290.972 56.5361 291.065 56.53 291.133 56.53H291.407H291.699C291.996 56.5421 292.347 56.5874 292.747 56.6675C293.309 56.7943 293.846 56.9937 294.363 57.2685C294.558 57.3712 294.74 57.48 294.913 57.5947C295.038 57.6869 295.165 57.7835 295.29 57.8862C295.325 57.9089 295.37 57.9496 295.428 58.007C295.553 58.1218 295.553 58.2366 295.428 58.3514L294.725 59.0566Z" fill="#E3AF55"/>
<path d="M162.017 51.9419C161.476 51.9691 161.005 51.8271 160.605 51.5176C160.204 51.208 159.964 50.8123 159.886 50.332C159.803 49.8216 159.899 49.364 160.177 48.9577C160.455 48.553 160.845 48.3083 161.346 48.2268C161.906 48.1347 162.427 48.2842 162.908 48.6738C163.388 49.0635 163.681 49.583 163.788 50.2339C164.108 52.1866 163.272 53.8931 161.278 55.3505L160.516 54.3643C161.65 53.5609 162.15 52.7529 162.017 51.9419Z" fill="#E3AF55"/>
<path d="M116.396 81.4439C108.167 103.171 87.566 118.982 62.889 119.921C29.9874 121.175 2.29914 95.5191 1.04415 62.6175C-0.210845 29.716 25.4462 2.02614 58.3478 0.771149C85.6827 -0.270901 109.419 17.2612 117.388 42.0907" stroke="#E3AF55" stroke-width="1.20817" stroke-miterlimit="10"/>
</svg>
