<svg xmlns="http://www.w3.org/2000/svg" viewBox="0 0 174.44 69.91"><defs><style>.cls-1,.cls-2{fill:none;}.cls-1,.cls-10,.cls-2,.cls-7,.cls-8,.cls-9{stroke:#fff;stroke-miterlimit:10;}.cls-1{stroke-width:1.05px;}.cls-2{stroke-width:0.7px;}.cls-3{font-size:20.43px;font-family:Coves-Bold, Coves;font-weight:700;letter-spacing:0.02em;}.cls-11,.cls-3{fill:#fff;}.cls-4{letter-spacing:0.08em;}.cls-5{letter-spacing:0.22em;}.cls-6,.cls-8{letter-spacing:0.1em;}.cls-10,.cls-7,.cls-8,.cls-9{stroke-width:0.18px;font-family:Coves-Light, Coves;font-weight:300;}.cls-7{letter-spacing:0.13em;}.cls-9{letter-spacing:0.12em;}.cls-10{letter-spacing:0.1em;}</style></defs><title>logoblanco</title><g id="Layer_2" data-name="Layer 2"><g id="Layer_1-2" data-name="Layer 1"><path class="cls-1" d="M42.32,31.93a8.44,8.44,0,0,1-1.92,9,8.54,8.54,0,0,1-12,0,8.45,8.45,0,0,1,0-12,8.54,8.54,0,0,1,12,0l-12,12"/><line class="cls-2" x1="8" y1="34.98" x2="20.52" y2="34.98"/><line class="cls-2" x1="15.72" y1="53.64" x2="24.58" y2="44.78"/><line class="cls-2" x1="44.18" y1="25.18" x2="53.04" y2="16.32"/><line class="cls-2" x1="34.38" y1="61.37" x2="34.38" y2="48.84"/><line class="cls-2" x1="34.38" y1="21.12" x2="34.38" y2="8.59"/><line class="cls-2" x1="53.04" y1="53.64" x2="44.18" y2="44.78"/><line class="cls-2" x1="24.58" y1="25.18" x2="15.72" y2="16.32"/><line class="cls-2" x1="12.07" y1="34.98" x2="20.52" y2="34.98"/><line class="cls-2" x1="13.77" y1="43.52" x2="21.58" y2="40.28"/><line class="cls-2" x1="18.61" y1="50.76" x2="24.58" y2="44.78"/><line class="cls-2" x1="44.18" y1="25.18" x2="50.16" y2="19.21"/><line class="cls-2" x1="25.84" y1="55.59" x2="29.08" y2="47.78"/><line class="cls-2" x1="39.68" y1="22.18" x2="42.92" y2="14.37"/><line class="cls-2" x1="34.38" y1="57.29" x2="34.38" y2="48.84"/><line class="cls-2" x1="34.38" y1="21.12" x2="34.38" y2="12.67"/><line class="cls-2" x1="42.92" y1="55.59" x2="39.68" y2="47.78"/><line class="cls-2" x1="29.08" y1="22.18" x2="25.84" y2="14.37"/><line class="cls-2" x1="50.16" y1="50.76" x2="44.18" y2="44.78"/><line class="cls-2" x1="24.58" y1="25.18" x2="18.61" y2="19.21"/><line class="cls-2" x1="21.58" y1="29.68" x2="13.77" y2="26.44"/><text class="cls-3" transform="translate(50.76 41.43)">T<tspan class="cls-4" x="10.87" y="0">ef</tspan><tspan class="cls-5" x="30.31" y="0">y</tspan><tspan class="cls-4" x="44.15" y="0">s</tspan><tspan class="cls-6" x="53.09" y="0"> </tspan><tspan class="cls-7" x="60.2" y="0">b</tspan><tspan class="cls-8" x="72.46" y="0">r</tspan><tspan class="cls-7" x="79.85" y="0">a</tspan><tspan class="cls-9" x="90.21" y="0">n</tspan><tspan class="cls-10" x="102.03" y="0">ds</tspan></text><path class="cls-11" d="M93.81,30.08a1.25,1.25,0,0,1-.82-.25,1,1,0,0,1-.41-.69,1,1,0,0,1,.17-.79,1,1,0,0,1,.67-.43,1.11,1.11,0,0,1,.91.26,1.42,1.42,0,0,1,.51.91,3,3,0,0,1-1.46,3l-.44-.58C93.6,31,93.89,30.55,93.81,30.08Z"/><path class="cls-2" d="M67.33,47.2a34.6,34.6,0,1,1,.58-22.84"/></g></g></svg>