<svg width="629" height="432" viewBox="0 0 629 432" fill="none" xmlns="http://www.w3.org/2000/svg">
<mask id="mask0" mask-type="alpha" maskUnits="userSpaceOnUse" x="0" y="0" width="629" height="432">
<rect width="629" height="432" fill="#C4C4C4"/>
</mask>
<g mask="url(#mask0)">
<path d="M517.666 244.359C549.177 244.359 440.797 164.176 485.964 81.6141C486.085 81.3978 486.206 81.1752 486.32 80.9526C486.32 80.959 472.371 189.333 576.401 185.478C680.436 181.63 626.536 11.3728 746.543 80.959V287.466C703.768 283.878 691.816 361.542 675.335 395C658.855 428.451 606.671 469.076 506.414 367.521C479.095 339.846 451.527 337.092 425.868 347.733L422.491 343.389C422.491 343.376 353.28 244.359 517.666 244.359Z" fill="#3A5A4F"/>
<path d="M576.401 185.485C472.371 189.34 486.314 80.9663 486.32 80.96C489.533 74.8791 491.32 67.736 491.32 59.3844C491.32 11.9527 533.161 1.91547 558.158 0.159912H576.401H746.543V80.96C626.536 11.3738 680.436 181.631 576.401 185.485Z" fill="#DF9C45"/>
<path d="M46.0134 48.8693C-12.0026 34.4877 1.31677 0 1.31677 0L112.006 0.159018H146.665H477.982H558.158C533.161 1.92093 491.32 11.9518 491.32 59.3835C491.32 67.7351 489.526 74.8782 486.32 80.9591C486.206 81.1817 486.085 81.3979 485.964 81.6206C462.563 124.027 368.902 113.615 334.363 100.48C294.755 85.4179 263.95 47.9025 230.213 68.3203C196.476 88.7382 274.223 121.922 230.213 163.871C224.8 169.029 218.929 172.916 212.797 175.772C212.797 175.772 164.475 194.294 146.672 164.322C122.654 123.894 166.619 78.771 46.0134 48.8693Z" fill="#D57938"/>
<path d="M477.336 199.924C475.403 175.373 478.782 148.691 487.375 120.638C490.816 109.394 495.552 98.7171 501.451 88.9084L524.759 79.831L527.506 78.7641L524.712 77.8419L513.908 74.2697C513.396 74.1034 513.044 73.6451 513.001 73.1016C512.982 72.8601 513.015 72.5051 513.305 72.1664C534.531 46.3751 562.176 31.7312 581.629 24.0024C599.491 16.9091 613.893 14.1591 618.018 13.4697C618.312 33.0949 617.624 51.9833 615.963 69.6117C615.932 69.9908 615.739 70.3219 615.44 70.5399C615.13 70.7709 614.76 70.8486 614.378 70.7815L605.638 69.0395L603.033 68.5156L604.552 70.6804L613.993 84.1051C614.13 84.3009 614.208 84.5256 614.227 84.7671C614.235 84.8637 614.23 84.9492 614.225 85.0468C613.778 88.4721 613.283 91.9134 612.756 95.2479C612.683 95.7033 612.395 96.0661 611.973 96.2573C611.551 96.4486 611.085 96.4001 610.7 96.1388C606.223 93.1377 600.731 88.977 600.679 88.9325L597.887 86.8072L599.048 90.1302L608.426 117.108C608.459 117.215 608.493 117.334 608.501 117.443C608.512 117.576 608.498 117.71 608.472 117.846C600.84 151.778 588.631 180.832 572.184 204.194C571.932 204.554 571.523 204.756 571.085 204.754C570.635 204.741 570.241 204.529 569.993 204.148L559.351 187.828L556.753 183.841L557.415 188.552C557.415 188.552 557.495 189.092 557.57 190.046C557.886 194.068 558.385 208.269 551.479 222.265C541.855 241.699 527.393 251.088 516.966 255.542C507.16 259.717 498.968 260.459 496.863 260.576C494.541 257.466 480.252 236.962 477.336 199.924ZM476.285 200.007C479.513 240.994 496.365 261.66 496.365 261.66C496.365 261.66 533.509 261.02 552.415 222.725C559.363 208.654 558.983 194.565 558.62 189.964C558.54 188.949 558.46 188.396 558.46 188.396L569.102 204.716C570.027 206.125 572.084 206.17 573.057 204.793C587.625 184.095 600.98 156.032 609.51 118.068C609.565 117.833 609.582 117.589 609.563 117.347C609.547 117.142 609.506 116.938 609.443 116.749L600.064 89.7707C600.064 89.7707 605.583 93.9657 610.137 97.0095C611.586 97.9768 613.56 97.1166 613.825 95.3946C614.351 92.048 614.849 88.643 615.303 85.1563C615.326 84.9844 615.326 84.8265 615.312 84.6574C615.279 84.2347 615.137 83.8206 614.878 83.4643L605.437 70.0395L614.177 71.7816C615.56 72.0615 616.892 71.0817 617.025 69.6739C618.67 52.144 619.413 33.0325 619.06 12.1968C619.06 12.1968 553.894 21.1436 512.483 71.4535C512.073 71.9596 511.902 72.5685 511.948 73.1481C512.02 74.0659 512.61 74.9187 513.583 75.243L524.387 78.8153L500.75 88.028C494.976 97.5716 490.06 108.287 486.377 120.303C476.585 152.266 474.618 178.837 476.285 200.007Z" fill="#1F3A35"/>
<path d="M511.049 208.327C511.029 208.074 511.046 207.829 511.111 207.581C518.932 173.878 531.111 140.743 547.295 109.09C560.234 83.7693 575.76 59.3382 593.426 36.4762C623.553 -2.50739 649.055 -23.0702 650.117 -23.9315C650.632 -24.3366 651.273 -24.5329 651.923 -24.4504C652.573 -24.3801 653.157 -24.0615 653.574 -23.5476C653.776 -23.2962 653.933 -23.0047 654.018 -22.6955C654.066 -22.5414 654.092 -22.3732 654.105 -22.2042C654.169 -21.3951 653.83 -20.6029 653.19 -20.0907C652.939 -19.8886 627.138 0.892098 597.308 39.4877C579.818 62.1172 564.467 86.2915 551.663 111.335C535.658 142.632 523.632 175.391 515.89 208.699C515.746 209.343 515.351 209.884 514.795 210.231C514.239 210.579 513.58 210.692 512.936 210.536C511.895 210.278 511.132 209.39 511.049 208.327ZM509.986 208.411C510.103 209.896 511.166 211.21 512.701 211.563C514.594 211.997 516.483 210.828 516.929 208.933C524.642 175.713 536.649 143.028 552.612 111.807C565.383 86.8148 580.703 62.7037 598.148 40.1263C627.823 1.72518 653.587 -19.0648 653.85 -19.2678C654.799 -20.023 655.244 -21.1638 655.156 -22.2869C655.138 -22.5163 655.094 -22.756 655.028 -22.9816C654.909 -23.4097 654.694 -23.8302 654.397 -24.2078C653.184 -25.7283 650.965 -25.9668 649.457 -24.7544C648.383 -23.8922 622.767 -3.22323 592.585 35.8376C574.875 58.7517 559.318 83.2461 546.346 108.618C530.119 140.335 517.91 173.557 510.071 207.335C509.99 207.694 509.958 208.061 509.986 208.411Z" fill="#1F3A35"/>
<path d="M404.29 20.8455C405.857 17.2955 416.657 -4.64925 445.41 -7.84893C459.299 -9.39214 470.69 -3.46017 470.803 -3.40834L475 -1.18707L472.137 -4.98367L463.262 -16.7761C463.168 -16.8902 463.121 -17.0202 463.11 -17.1652C463.085 -17.4791 463.263 -17.8455 463.655 -17.9493C484.509 -23.6256 508.305 -24.8067 534.401 -21.4786C534.535 -21.4649 534.674 -21.4029 534.778 -21.3139L551.564 -7.66547L554.291 -5.44991L553.249 -8.80663C553.233 -8.85399 551.686 -13.8357 550.706 -17.7927C550.69 -17.84 550.687 -17.8763 550.684 -17.9246C550.666 -18.154 550.757 -18.3799 550.939 -18.5401C551.041 -18.6332 551.261 -18.772 551.582 -18.7122C554.086 -18.2289 556.668 -17.691 559.216 -17.1261C559.402 -17.08 559.568 -16.9716 559.665 -16.8213L566.785 -6.64034L568.306 -4.46348L568.707 -7.08327L569.725 -13.7494C569.764 -14.0319 569.945 -14.192 570.049 -14.2609C570.153 -14.3299 570.364 -14.4315 570.649 -14.3568C583.538 -11.0094 597.052 -6.66625 610.842 -1.43355C606.963 5.32411 583.926 42.8381 542.303 57.5862C542.008 57.6945 541.768 57.5797 541.653 57.5037C541.448 57.374 541.322 57.1652 541.304 56.9358C541.302 56.9116 541.3 56.8754 541.298 56.8512L541.543 48.2411L541.627 45.2939L539.687 47.5123L527.256 61.6994C518.795 63.3499 510.021 63.9557 501.176 63.51C463.162 61.5821 438.759 49.9673 424.98 40.5537C411.879 31.5849 405.641 22.8777 404.29 20.8455ZM403.095 20.9517C403.095 20.9517 426.914 60.8031 501.137 64.558C510.641 65.037 519.539 64.312 527.83 62.6628L540.496 48.2141L540.251 56.8243C540.244 56.8977 540.249 56.9581 540.254 57.0185C540.345 58.1778 541.526 58.984 542.661 58.5787C589.178 42.0965 612.365 -2.00305 612.365 -2.00305C597.62 -7.63445 583.821 -12.0403 570.92 -15.3988C569.878 -15.6691 568.838 -14.9797 568.679 -13.9221L567.66 -7.25606L560.54 -17.437C560.28 -17.8053 559.883 -18.0657 559.45 -18.1652C556.853 -18.7384 554.296 -19.2662 551.778 -19.7605C550.581 -19.9944 549.541 -19.0132 549.633 -17.8418C549.641 -17.7452 549.661 -17.6375 549.681 -17.5418C550.68 -13.5012 552.24 -8.49635 552.24 -8.49635L535.466 -22.1457C535.207 -22.3561 534.879 -22.5005 534.548 -22.5352C505.311 -26.2599 481.891 -24.0027 463.392 -18.9736C462.512 -18.7342 462.006 -17.9046 462.071 -17.0834C462.097 -16.7573 462.208 -16.4258 462.425 -16.1391L471.3 -4.34667C471.3 -4.34667 459.697 -10.505 445.302 -8.90974C413.141 -5.32019 403.095 20.9517 403.095 20.9517Z" fill="#1F3A35"/>
<path d="M444.036 22.6974C444.028 22.5887 444.031 22.4791 444.048 22.3806C444.148 21.4978 444.95 20.8757 445.833 20.9763C471.558 24.0785 498.014 23.9638 524.449 20.6549C545.602 18.0051 566.789 13.3112 587.435 6.69137C622.624 -4.58523 644.127 -17.6033 644.336 -17.7291C644.892 -18.0645 645.587 -18.0342 646.115 -17.6626C646.282 -17.5421 646.428 -17.3835 646.54 -17.1979C646.679 -16.978 646.746 -16.7402 646.766 -16.4866C646.814 -15.8828 646.52 -15.3007 645.997 -14.9922C645.116 -14.449 623.902 -1.6238 588.405 9.74998C567.581 16.4203 546.191 21.1545 524.845 23.8316C498.145 27.1735 471.434 27.284 445.451 24.1535C444.68 24.0806 444.096 23.4582 444.036 22.6974ZM442.974 22.7811C443.071 24.025 444.028 25.0554 445.315 25.2092C471.396 28.3441 498.193 28.239 524.976 24.8785C546.394 22.1956 567.843 17.4446 588.726 10.7454C624.33 -0.661123 645.661 -13.5562 646.541 -14.0994C647.422 -14.6427 647.892 -15.6154 647.816 -16.5814C647.785 -16.98 647.656 -17.3829 647.432 -17.7542C647.237 -18.0669 646.999 -18.3155 646.727 -18.525C645.877 -19.1385 644.717 -19.2172 643.777 -18.645C643.569 -18.5192 622.111 -5.54125 587.112 5.67183C566.536 12.2618 545.409 16.9388 524.317 19.5839C497.966 22.8861 471.606 22.9932 445.955 19.9095C444.495 19.7329 443.168 20.773 442.991 22.2329C442.958 22.43 442.96 22.612 442.974 22.7811Z" fill="#1F3A35"/>
</g>
</svg>
