<svg width="281" height="462" viewBox="0 0 281 462" fill="none" xmlns="http://www.w3.org/2000/svg">
<path d="M-57.1321 233.804C-56.1051 207.137 -16.3995 203.369 0.729374 198.429C44.4675 185.814 31.6052 151.25 69.3603 150.056C75.5061 149.859 94.2301 155.522 100.151 159.607C137.374 185.284 145.191 149.411 164.269 169.259C183.337 189.113 183.424 211.385 174.339 235.244C166.42 256.052 198.837 281.719 186.255 311.12C161.796 368.272 59.9276 351.144 57.4919 332.338C47.4581 254.878 -7.49084 297.93 -28.1728 288.208C-77.3481 265.106 -45.7005 246.711 -57.1321 233.804Z" fill="#D57938"/>
<path d="M113.736 403.47C113.204 403.052 112.676 402.645 112.155 402.221C112.511 402.118 112.867 402.014 113.213 401.917L113.736 403.47Z" fill="#557A69"/>
<path d="M70.5832 215.293C10.9998 278.197 5.9062 200.09 -7.87695 205.271C-64.6147 226.603 -74.7564 194.672 -67.6439 182.085C-60.9247 170.216 -42.8481 168.28 -40.1375 147.781C-30.6209 75.6014 5.92834 89.3018 24.4416 104.934C42.9548 120.566 59.3677 86.6822 80.4604 92.8205C115.263 102.941 149.196 174.591 147.527 204.798C143.913 270.057 101.552 182.58 70.5832 215.293Z" fill="#3A5A4F"/>
<path d="M170.549 221.134C149.148 233.27 124.657 241.223 97.7755 244.767C87.0025 246.191 76.4417 246.14 66.3923 244.614L53.0808 226.147L51.5146 223.969L51.3224 227.026L50.5732 238.846C50.5402 239.404 50.2117 239.933 49.738 240.201C49.5275 240.321 49.2044 240.438 48.8381 240.304C21.129 230.83 1.89205 210.551 -9.35364 195.202C-19.6766 181.107 -25.359 168.499 -26.8993 164.845C-9.51057 156.341 7.44333 149.082 23.4956 143.283C23.8397 143.154 24.1775 143.199 24.4385 143.393C24.7136 143.593 24.866 143.914 24.8921 144.307L25.307 153.388L25.4264 156.097L27.0104 153.738L36.8286 139.091C36.972 138.879 37.1542 138.709 37.3647 138.59C37.449 138.542 37.5262 138.512 37.614 138.475C40.761 137.467 43.9328 136.497 47.017 135.604C47.4385 135.483 47.8258 135.606 48.0908 135.929C48.3558 136.253 48.4174 136.718 48.2715 137.195C46.6084 142.731 44.1421 149.722 44.1142 149.79L42.8514 153.349L45.546 150.847L67.4329 130.58C67.5205 130.504 67.6187 130.422 67.7134 130.369C67.8292 130.303 67.9521 130.26 68.0786 130.227C99.9725 123.301 128.557 122.791 153.032 128.717C153.408 128.806 153.68 129.113 153.777 129.532C153.866 129.968 153.766 130.433 153.483 130.83L141.36 147.837L138.397 151.991L142.438 149.383C142.438 149.383 142.901 149.081 143.733 148.61C147.238 146.622 159.758 140.194 173.757 140.928C193.218 141.946 204.819 151.83 211.117 159.944C217.033 167.563 219.535 175.08 220.112 177.042C217.861 180.582 202.836 202.827 170.549 221.134ZM170.863 222.115C206.591 201.855 221.185 177.092 221.185 177.092C221.185 177.092 212.268 141.869 173.96 139.852C159.883 139.109 147.438 145.377 143.427 147.652C142.543 148.153 142.069 148.461 142.069 148.461L154.192 131.454C155.238 129.98 154.815 127.995 153.372 127.643C131.689 122.397 103.728 121.395 68.0463 129.154C67.8249 129.2 67.6037 129.286 67.3932 129.405C67.2142 129.507 67.0424 129.631 66.8882 129.771L45.0014 150.037C45.0014 150.037 47.4922 143.006 49.176 137.38C49.7107 135.59 48.5021 134.064 46.9109 134.532C43.8162 135.432 40.676 136.383 37.4727 137.41C37.3147 137.46 37.1743 137.527 37.0269 137.61C36.6584 137.819 36.322 138.129 36.0633 138.525L26.2451 153.172L25.8302 144.091C25.7684 142.652 24.5976 141.79 23.3158 142.253C7.35486 148.027 -9.8099 155.326 -28.262 164.394C-28.262 164.394 -5.65974 222.913 48.3922 241.399C48.9345 241.578 49.5144 241.486 50.0197 241.2C50.8197 240.746 51.4456 239.825 51.5154 238.759L52.2645 226.939L65.7704 245.664C75.556 247.182 86.1912 247.388 97.7059 245.873C128.334 241.835 152.409 232.579 170.863 222.115Z" fill="#1F3A35"/>
<path d="M169.049 176.648C168.826 176.776 168.604 176.864 168.368 176.908C136.491 183.906 104.161 186.498 72.2744 184.629C46.7671 183.14 21.4856 178.8 -2.8646 171.743C-44.3865 159.705 -68.4087 144.178 -69.4136 143.533C-69.8896 143.215 -70.2066 142.687 -70.2763 142.031C-70.3567 141.38 -70.2006 140.686 -69.8328 140.067C-69.6525 139.766 -69.4263 139.491 -69.1685 139.277C-69.0413 139.165 -68.8965 139.068 -68.7482 138.983C-68.0384 138.575 -67.255 138.558 -66.6556 138.95C-66.4194 139.103 -42.1363 154.823 -1.02709 166.743C23.0762 173.732 48.0896 178.015 73.3182 179.493C104.849 181.344 136.808 178.768 168.314 171.865C168.921 171.726 169.492 171.871 169.926 172.252C170.359 172.634 170.606 173.216 170.608 173.898C170.607 175.003 169.981 176.112 169.049 176.648ZM169.355 177.616C170.658 176.866 171.598 175.287 171.576 173.67C171.546 171.676 170.083 170.374 168.29 170.761C136.869 177.655 104.981 180.217 73.5277 178.374C48.3521 176.905 23.4022 172.624 -0.644648 165.655C-41.5457 153.799 -65.8289 138.119 -66.0686 137.955C-66.9536 137.373 -68.0723 137.438 -69.0575 138.004C-69.2588 138.12 -69.4637 138.264 -69.6509 138.424C-70.0076 138.721 -70.3363 139.108 -70.6085 139.553C-71.7011 141.365 -71.4251 143.585 -70.0076 144.505C-68.9992 145.161 -44.8571 160.751 -3.25406 172.808C21.1525 179.886 46.4976 184.228 72.0578 185.726C104.022 187.603 136.433 184.991 168.384 177.99C168.716 177.931 169.048 177.792 169.355 177.616Z" fill="#1F3A35"/>
<path d="M36.209 367.123C32.406 367.102 8.62618 365.825 -1.48709 337.589C-6.36992 323.949 -3.44127 309.525 -3.41909 309.384L-2.30569 304.054L-5.2628 308.716L-14.4519 323.179C-14.5388 323.328 -14.6526 323.434 -14.7894 323.511C-15.0858 323.678 -15.4822 323.659 -15.6783 323.301C-26.2456 304.33 -33.2024 280.302 -36.3777 251.873C-36.3974 251.728 -36.3716 251.557 -36.3113 251.41L-27.2689 227.947L-25.8014 224.137L-28.78 226.722C-28.8218 226.76 -33.2423 230.596 -36.8144 233.387C-36.8561 233.425 -36.8903 233.444 -36.9359 233.47C-37.1525 233.592 -37.3926 233.599 -37.5913 233.483C-37.7059 233.42 -37.8934 233.255 -37.9142 232.897C-38.0612 230.095 -38.1744 227.188 -38.2532 224.305C-38.2543 224.092 -38.1906 223.872 -38.0694 223.704L-30.0035 211.777L-28.2783 209.229L-30.9 209.993L-37.5704 211.94C-37.8519 212.027 -38.0506 211.912 -38.1424 211.835C-38.2343 211.759 -38.3837 211.587 -38.3815 211.259C-38.3087 196.452 -37.4297 180.551 -35.7614 163.965C-28.3034 164.929 13.4665 171.835 37.8513 208.16C38.0278 208.416 37.9759 208.715 37.9309 208.869C37.856 209.138 37.6857 209.362 37.4691 209.484C37.4463 209.496 37.412 209.516 37.3892 209.529L29.0352 213.147L26.1758 214.386L28.787 215.39L45.4931 221.84C49.1519 229.83 51.8811 238.613 53.6145 247.942C61.0534 288.043 55.8324 318.452 50.1341 336.907C44.6981 354.461 37.8363 364.815 36.209 367.123ZM36.6034 368.308C36.6034 368.308 69.1668 325.803 54.6336 247.511C52.7711 237.487 49.8968 228.63 46.2807 220.814L29.2653 214.24L37.6194 210.621C37.6917 210.595 37.7487 210.563 37.8057 210.531C38.9001 209.915 39.3878 208.333 38.7199 207.345C11.4679 166.748 -36.6823 162.65 -36.6823 162.65C-38.5012 180.401 -39.371 196.623 -39.4513 211.449C-39.4569 212.646 -38.5387 213.408 -37.4809 213.098L-30.8106 211.151L-38.8765 223.078C-39.1678 223.512 -39.3215 224.039 -39.3114 224.531C-39.2286 227.468 -39.1117 230.345 -38.9722 233.165C-38.9047 234.506 -37.7051 235.139 -36.5993 234.517C-36.5081 234.466 -36.4094 234.396 -36.322 234.333C-32.674 231.485 -28.2346 227.623 -28.2346 227.623L-37.2808 251.074C-37.4201 251.436 -37.4791 251.839 -37.4316 252.196C-33.87 284.046 -25.9687 307.202 -16.6007 324.033C-16.1548 324.833 -15.2319 324.982 -14.4567 324.546C-14.1489 324.373 -13.8567 324.109 -13.6336 323.756L-4.44454 309.293C-4.44454 309.293 -7.53931 324.038 -2.48257 338.177C8.83577 369.743 36.6034 368.308 36.6034 368.308Z" fill="#1F3A35"/>
<path d="M30.2397 325.102C30.1301 325.16 30.0164 325.206 29.9107 325.233C28.9758 325.524 28.1241 324.956 27.9945 323.978C24.3935 295.387 17.2896 267.471 6.90477 241.015C-1.40722 219.846 -11.8312 199.563 -24.094 180.717C-44.9883 148.595 -64.0606 131.724 -64.2451 131.559C-64.7374 131.122 -64.8897 130.374 -64.6466 129.649C-64.5668 129.417 -64.4422 129.191 -64.2808 128.99C-64.0912 128.744 -63.8643 128.566 -63.6087 128.43C-63 128.108 -62.3233 128.158 -61.8679 128.571C-61.0764 129.257 -42.2787 145.91 -21.203 178.315C-8.8412 197.326 1.67793 217.807 10.0688 239.166C20.5575 265.887 27.7245 294.075 31.3643 322.951C31.4888 323.787 31.0067 324.696 30.2397 325.102ZM30.6064 326.188C31.8604 325.524 32.6682 324.05 32.4863 322.619C28.8253 293.638 21.6413 265.357 11.1112 238.556C2.69541 217.123 -7.85673 196.587 -20.2638 177.527C-41.4013 145.024 -60.3015 128.28 -61.093 127.594C-61.8845 126.907 -63.0095 126.848 -63.9834 127.363C-64.3852 127.576 -64.7657 127.894 -65.0886 128.297C-65.359 128.644 -65.5518 129.008 -65.6956 129.389C-66.1023 130.564 -65.8769 131.827 -65.0402 132.562C-64.8556 132.726 -45.8365 149.567 -25.0576 181.518C-12.8442 200.302 -2.45322 220.531 5.83793 241.637C16.1936 268.007 23.2641 295.824 26.8645 324.329C27.0682 325.951 28.489 326.887 30.0377 326.416C30.245 326.35 30.436 326.278 30.6064 326.188Z" fill="#1F3A35"/>
</svg>
