<svg width="312" height="328" viewBox="0 0 312 328" fill="none" xmlns="http://www.w3.org/2000/svg">
<path d="M249.443 120.521C373.04 40.8644 330.152 139.326 352.738 132.719C445.733 105.5 439.471 145.71 421.461 161.614C404.472 176.61 377.945 179.16 361.035 205.024C301.512 296.087 259.169 279.019 243.3 259.405C227.431 239.791 182.776 282.611 157.203 274.996C115.014 262.435 113.457 172.27 135.143 134.19C181.991 51.88 185.184 161.931 249.443 120.521Z" fill="#D57938"/>
<path d="M84.2513 201.259C92.9781 202.28 102.134 203.328 111.519 204.35C109.43 205.663 107.242 207.056 105.01 208.489C102.034 210.399 98.8866 212.469 95.6391 214.618C62.4627 222.936 18.3277 231.891 4.72234 231.891C2.8196 231.891 1.98983 231.705 1.64648 231.586C3.63506 228.681 27.3979 218.903 68.9006 205.915C74.0079 204.337 79.1725 202.758 84.2513 201.259ZM84.1511 200.237C79.101 201.723 73.8649 203.315 68.5715 204.973C35.0232 215.467 -0.599613 228.362 0.516281 231.904C0.730876 232.568 2.21873 232.873 4.73665 232.873C18.6853 232.873 63.9792 223.586 96.1255 215.52C99.4017 213.345 102.592 211.262 105.639 209.298C108.214 207.64 110.689 206.061 113.05 204.589C113.565 204.27 114.051 203.965 114.538 203.66C104.237 202.559 94.0082 201.405 84.1511 200.237Z" fill="#1F3A35"/>
<path d="M114.81 204.708C119.86 205.252 124.938 205.796 129.989 206.327C132.192 206.552 134.395 206.791 136.584 207.017C136.026 207.494 135.468 207.985 134.881 208.489C133.794 209.444 132.664 210.426 131.519 211.448C128.916 213.756 126.126 216.263 123.236 218.903C115.725 223.586 106.498 229.079 96.526 234.783C63.321 253.741 35.2949 267.512 29.8728 267.512C29.8299 267.512 29.8013 267.512 29.7727 267.512C30.116 266.49 32.8342 262.47 51.6614 248.182C64.0364 238.79 80.9035 226.89 96.7549 216.356C100.045 214.167 103.25 212.084 106.254 210.134C108.801 208.489 111.29 206.91 113.651 205.438L114.81 204.708ZM114.538 203.687C114.037 203.992 113.565 204.297 113.05 204.615C110.689 206.088 108.214 207.653 105.639 209.325C102.578 211.288 99.3873 213.384 96.1255 215.547C64.8232 236.322 26.239 264.659 28.7712 268.148C28.9429 268.387 29.3149 268.507 29.8728 268.507C36.4681 268.507 68.6716 251.857 97.0983 235.632C106.898 230.034 116.24 224.488 123.937 219.686C126.827 217.046 129.617 214.539 132.278 212.177C133.422 211.156 134.552 210.174 135.64 209.219C136.841 208.171 137.971 207.202 139.059 206.274C136.097 205.968 133.107 205.663 130.117 205.345C124.924 204.801 119.717 204.244 114.538 203.687Z" fill="#1F3A35"/>
<path d="M139.416 207.308L142.735 207.653C147.914 208.184 153.036 208.688 158.086 209.179C156.97 210.333 155.854 211.514 154.695 212.761L154.409 213.079C154.195 213.318 153.966 213.557 153.751 213.796C149.788 218.054 145.439 222.87 140.818 228.11C111.147 253.104 70.7601 283.219 64.3509 283.723C64.5226 282.635 66.597 278.059 83.9363 259.976C95.3241 248.103 110.56 233.297 124.681 220.402C127.585 217.749 130.389 215.229 133.007 212.907C134.151 211.885 135.282 210.904 136.369 209.962C137.428 209.02 138.429 208.144 139.416 207.308ZM139.044 206.274C137.957 207.202 136.827 208.171 135.625 209.219C134.538 210.174 133.408 211.156 132.263 212.177C129.602 214.525 126.812 217.046 123.922 219.686C96.1253 245.091 60.245 281.322 63.4639 284.506C63.6213 284.652 63.8645 284.732 64.1792 284.732C70.9747 284.732 113.794 252.215 141.591 228.8C146.155 223.613 150.561 218.744 154.552 214.446C154.867 214.101 155.182 213.756 155.497 213.424C157.213 211.58 158.801 209.935 160.275 208.41C154.567 207.852 148.744 207.282 142.85 206.685C141.591 206.526 140.318 206.406 139.044 206.274Z" fill="#1F3A35"/>
<path d="M160.705 209.431L163.552 209.71C168.33 210.161 173.008 210.599 177.572 211.023C177.257 211.421 176.942 211.832 176.613 212.244C175.726 213.385 174.811 214.565 173.881 215.786C169.66 221.305 164.896 227.739 160.104 234.399C152.064 242.624 142.793 251.751 133.98 260.096C108.129 284.599 95.7538 293.753 92.7781 294.257C92.821 293.209 94.2802 288.725 108.2 270.643C117.485 258.583 129.96 243.552 142.407 229.41C147.028 224.157 151.391 219.328 155.354 215.069C155.569 214.831 155.783 214.605 155.998 214.366L156.298 214.048C157.815 212.443 159.26 210.917 160.705 209.431ZM160.275 208.383C158.802 209.909 157.214 211.567 155.497 213.398C155.182 213.743 154.868 214.074 154.553 214.419C150.547 218.718 146.155 223.6 141.591 228.774C117.342 256.315 88.6149 292.373 92.0055 295.106C92.1486 295.212 92.3346 295.265 92.5778 295.265C96.698 295.265 115.311 279.213 134.767 260.772C143.78 252.242 152.965 243.194 160.976 234.996C165.769 228.336 170.49 221.955 174.782 216.343C175.712 215.122 176.628 213.942 177.515 212.801C178.23 211.885 178.917 211.01 179.575 210.174C174.439 209.71 169.131 209.219 163.695 208.688C162.55 208.609 161.406 208.502 160.275 208.383Z" fill="#1F3A35"/>
<path d="M180.047 211.235L183.022 211.501C187.972 211.938 192.779 212.363 197.357 212.734C196.356 214.313 195.354 215.945 194.324 217.669L194.281 217.736C193.938 218.32 193.58 218.903 193.223 219.513C191.62 222.22 189.889 225.205 188.087 228.389C161.234 261.979 128.157 297.454 122.764 298.542C122.349 294.907 136.856 270.311 161.849 235.553C166.656 228.88 171.42 222.432 175.64 216.913C176.57 215.693 177.471 214.525 178.358 213.384C178.945 212.655 179.503 211.938 180.047 211.235ZM179.546 210.2C178.888 211.036 178.201 211.912 177.486 212.827C176.599 213.968 175.683 215.149 174.753 216.369C170.461 221.981 165.74 228.362 160.948 235.022C140.504 263.465 118.658 297.175 122.063 299.457C122.192 299.537 122.335 299.577 122.521 299.577C128.515 299.577 166.298 257.323 188.988 228.933C190.776 225.775 192.507 222.79 194.153 220.004C194.525 219.381 194.896 218.757 195.254 218.16C196.656 215.839 197.944 213.769 199.145 211.899C194.067 211.474 188.702 211.023 183.122 210.519C181.949 210.413 180.748 210.307 179.546 210.2Z" fill="#1F3A35"/>
<path d="M199.732 212.947L200.004 212.973L201.106 213.066L201.678 213.106C208.216 213.637 214.196 214.088 219.461 214.433C218.702 216.064 217.944 217.749 217.157 219.553C216.571 220.907 215.97 222.339 215.326 223.852C213.395 228.468 211.335 233.682 209.174 239.334C204.267 247.201 198.602 255.864 192.779 264.407C170.118 297.666 154.91 315.072 151.606 315.085C151.334 314.846 149.388 311.875 162.278 283.498C169.718 267.114 180.319 246.378 189.932 229.384C191.735 226.187 193.48 223.188 195.097 220.469C195.455 219.859 195.812 219.275 196.156 218.704L196.199 218.638C197.415 216.635 198.573 214.764 199.732 212.947ZM199.16 211.899C197.958 213.783 196.671 215.839 195.269 218.16C194.911 218.757 194.539 219.368 194.167 220.004C192.522 222.777 190.776 225.775 189.002 228.933C170.175 262.205 145.683 313.188 151.076 315.948C151.234 316.027 151.405 316.067 151.606 316.067C156.684 316.067 176.027 290.874 193.695 264.938C199.575 256.315 205.254 247.639 210.162 239.758C212.279 234.173 214.368 228.92 216.328 224.223C216.957 222.711 217.572 221.291 218.144 219.938C219.175 217.563 220.133 215.454 221.034 213.544C215.455 213.172 209.06 212.708 201.764 212.111C201.206 212.071 200.662 212.018 200.09 211.978C199.804 211.952 199.475 211.925 199.16 211.899Z" fill="#1F3A35"/>
<path d="M221.735 214.578C222.765 214.645 223.752 214.711 224.725 214.764C232.851 215.255 239.261 215.507 244.282 215.547C243.796 217.152 243.209 218.903 242.522 220.8C241.349 224.051 239.861 227.818 238.102 232.037C230.949 249.164 219.875 272.181 209.904 290.701C192.593 322.793 188.287 323.722 187.886 323.735C187.615 323.536 185.383 321.042 193.051 294.098C197.515 278.39 204.296 258.212 211.177 240.09C213.337 234.425 215.412 229.198 217.329 224.581C217.958 223.069 218.559 221.649 219.146 220.31C220.033 218.267 220.891 216.383 221.735 214.578ZM221.049 213.53C220.147 215.441 219.189 217.537 218.159 219.925C217.572 221.278 216.971 222.698 216.342 224.21C214.382 228.906 212.293 234.16 210.176 239.745C196.842 274.808 182.064 322.687 187.486 324.637C187.6 324.677 187.729 324.703 187.858 324.703C194.911 324.703 225.097 265.946 239.117 232.382C240.949 228.017 242.408 224.289 243.552 221.106C244.454 218.598 245.155 216.436 245.698 214.552C245.57 214.552 245.441 214.552 245.298 214.552C240.362 214.552 233.724 214.313 224.797 213.769C223.595 213.703 222.35 213.623 221.049 213.53Z" fill="#1F3A35"/>
<path d="M29.9162 159.96V160.955C46.8835 160.955 80.9326 164.697 107.242 168.411C116.67 173.651 126.641 178.958 136.098 183.787C138.373 184.941 140.604 186.069 142.779 187.143C144.009 187.754 145.254 188.364 146.499 188.974C139.989 188.563 133.365 188.165 126.741 187.78L126.212 187.687L124.996 187.488C112.635 185.406 97.1989 182.354 81.5192 178.892C42.6345 170.348 23.3067 164.1 21.3181 161.738C21.8474 161.486 23.7216 160.942 29.9305 160.942V159.96H29.9162ZM29.9162 159.96C23.9791 159.96 20.3453 160.438 20.1307 161.539C19.4869 164.843 49.8163 172.962 81.2616 179.887C96.6839 183.283 112.364 186.387 124.796 188.483C125.425 188.589 126.012 188.682 126.613 188.788C134.996 189.266 143.351 189.783 151.549 190.301C148.916 189.041 146.17 187.714 143.294 186.281C141.119 185.207 138.902 184.079 136.627 182.925C127.271 178.149 117.185 172.789 107.614 167.469C79.7595 163.516 46.1825 159.96 29.9162 159.96Z" fill="#1F3A35"/>
<path d="M66.3683 138.654C72.7346 138.654 96.4974 146.813 126.913 159.443C128.93 160.279 130.933 161.128 132.936 161.964L132.95 161.977L133.136 162.056C137.671 163.98 142.22 165.944 146.641 167.907C155.611 174.527 164.424 180.802 172.164 186.055C173.466 186.931 174.724 187.78 175.955 188.603L176.427 188.921C176.727 189.12 177.028 189.319 177.314 189.505C178.23 190.102 179.117 190.685 179.989 191.256C172.164 190.685 163.895 190.128 155.382 189.571L151.863 189.346C149.102 188.019 146.469 186.745 143.823 185.419C141.663 184.344 139.431 183.216 137.17 182.062C127.671 177.22 117.657 171.887 108.2 166.62C75.5244 148.458 66.0679 140.658 65.5242 138.761C65.6244 138.707 65.8962 138.654 66.3683 138.654ZM66.354 137.659C65.3383 137.659 64.6945 137.845 64.4656 138.243C62.8919 141.095 83.6647 154.15 107.599 167.456C117.17 172.776 127.256 178.135 136.612 182.911C138.887 184.066 141.105 185.193 143.279 186.268C146.155 187.701 148.902 189.04 151.534 190.287C152.793 190.367 154.038 190.447 155.282 190.526C165.196 191.176 174.825 191.84 183.881 192.503C182.064 191.362 180.089 190.088 177.915 188.656C177.471 188.364 177.013 188.059 176.556 187.754C175.34 186.944 174.066 186.095 172.779 185.22C164.996 179.94 156.098 173.598 147.199 167.031C142.821 165.094 138.243 163.105 133.565 161.128C133.565 161.128 133.565 161.128 133.551 161.115C131.491 160.252 129.416 159.377 127.342 158.514C101.104 147.636 73.7933 137.659 66.354 137.659Z" fill="#1F3A35"/>
<path d="M98.9151 124.207C105.653 124.207 140.561 143.351 170.418 161.857C173.823 163.967 177.242 166.129 180.576 168.265C185.797 174.567 190.69 180.271 195.097 185.233C196.613 186.944 198.072 188.563 199.417 190.022C200.347 191.03 201.263 192.012 202.135 192.941L201.921 192.928C199.675 192.742 197.357 192.556 194.996 192.37C191.964 192.132 188.845 191.893 185.654 191.654L185.282 191.627L184.252 191.548C182.464 190.42 180.547 189.186 178.544 187.86C178.258 187.674 177.972 187.475 177.671 187.289L177.185 186.971C175.969 186.162 174.71 185.313 173.408 184.437C165.668 179.183 156.827 172.908 147.857 166.275C116.04 142.741 98.958 127.219 98.6719 124.221C98.7291 124.207 98.815 124.207 98.9151 124.207ZM98.9151 123.212C98.3428 123.212 97.9423 123.332 97.742 123.597C95.3814 126.662 121.247 147.875 147.185 167.045C156.083 173.625 164.996 179.953 172.764 185.233C174.052 186.109 175.325 186.958 176.541 187.767C176.999 188.072 177.457 188.377 177.9 188.669C180.061 190.102 182.035 191.375 183.866 192.516C184.438 192.556 184.996 192.596 185.554 192.636C188.745 192.874 191.863 193.113 194.882 193.352C197.243 193.538 199.56 193.724 201.806 193.909C201.964 193.923 202.092 193.936 202.235 193.949C203.08 194.015 203.881 194.082 204.71 194.161C203.323 192.729 201.835 191.15 200.218 189.385C198.873 187.913 197.429 186.334 195.912 184.609C191.448 179.581 186.47 173.758 181.32 167.536C178.043 165.439 174.61 163.264 171.005 161.035C142.549 143.377 106.226 123.212 98.9151 123.212Z" fill="#1F3A35"/>
<path d="M131.805 95.6446C136.226 95.6977 159.417 116.128 186.971 144.24C194.624 152.054 202.007 159.854 208.33 166.793C211.792 172.922 215.068 178.52 218.058 183.455C219.517 185.857 220.776 187.886 221.907 189.664C223.151 191.614 224.31 193.392 225.426 195.024C220.333 194.506 214.639 193.976 208.459 193.445C207.586 193.365 206.656 193.299 205.726 193.219L205.254 193.18C203.938 191.813 202.536 190.314 201.062 188.709C199.717 187.25 198.273 185.644 196.756 183.946C192.335 178.958 187.428 173.227 182.178 166.899C169.402 151.496 156.226 134.515 146.913 121.461C131.834 100.341 131.648 96.2947 131.805 95.6446ZM131.777 94.6497C131.491 94.6497 131.262 94.716 131.09 94.8487C127.041 97.9397 156.312 137.354 181.334 167.522C186.484 173.744 191.463 179.568 195.926 184.596C197.457 186.321 198.888 187.9 200.233 189.372C201.849 191.137 203.337 192.715 204.725 194.148C205.941 194.254 207.185 194.347 208.359 194.453C215.755 195.09 222.078 195.687 227.543 196.257C226.141 194.241 224.582 191.919 222.837 189.173C221.649 187.303 220.362 185.233 218.988 182.978C215.955 177.976 212.636 172.298 209.217 166.249C202.851 159.257 195.454 151.43 187.757 143.576C163.866 119.206 137.342 94.6497 131.777 94.6497Z" fill="#1F3A35"/>
<path d="M173.552 87.0081C174.381 87.1541 179.431 89.3828 200.447 118.038C213.18 135.391 227.758 157.082 237.601 173.28C242.866 181.956 246.342 188.337 248.216 192.808C249.175 195.077 249.733 196.881 249.919 198.247C245.484 197.412 239.418 196.563 231.449 195.687C230.391 195.568 229.303 195.448 228.173 195.329C226.8 193.339 225.355 191.163 223.767 188.669C222.637 186.905 221.392 184.875 219.933 182.487C216.928 177.552 213.652 171.927 210.176 165.784C200.548 148.75 190.705 129.872 183.852 115.292C172.793 91.7841 173.28 87.6449 173.552 87.0081ZM173.451 85.9999C173.28 85.9999 173.137 86.0264 173.008 86.106C168.444 88.494 190.376 132.923 209.217 166.249C212.636 172.298 215.956 177.976 218.988 182.978C220.362 185.233 221.635 187.289 222.837 189.173C224.582 191.919 226.142 194.241 227.544 196.257C228.846 196.39 230.105 196.523 231.321 196.669C240.419 197.677 246.743 198.606 251.035 199.481C251.135 197.982 250.634 195.793 249.218 192.437C247.401 188.112 244.067 181.877 238.531 172.776C219.217 140.989 180.333 85.9999 173.451 85.9999Z" fill="#1F3A35"/>
<path d="M260.52 204.881C310.563 213.384 339.591 225.643 340.807 226.173C342.309 226.823 342.967 228.482 342.28 229.875C342.109 230.206 341.88 230.511 341.594 230.75C341.036 231.228 340.306 231.493 339.548 231.493C339.119 231.493 338.689 231.414 338.289 231.241C338.003 231.122 308.732 218.824 259.933 210.453C259.862 210.134 259.761 209.829 259.661 209.524C259.447 208.874 259.261 208.264 259.304 207.72C259.361 207.176 259.661 206.592 259.99 205.995C260.176 205.624 260.377 205.252 260.52 204.881ZM259.718 203.726C259.633 204.934 258.374 206.194 258.231 207.614C258.116 208.887 258.903 210.174 258.975 211.288C308.217 219.646 337.531 231.997 337.831 232.13C338.389 232.369 338.961 232.475 339.533 232.475C340.564 232.475 341.565 232.117 342.309 231.467C342.695 231.135 343.01 230.737 343.239 230.273C344.183 228.376 343.282 226.133 341.236 225.258C339.963 224.714 310.42 212.244 259.718 203.726Z" fill="#1F3A35"/>
<path d="M21.5323 184.742V185.737C43.6642 185.737 81.9337 187.21 126.541 189.77C134.924 190.248 143.308 190.765 151.462 191.283L155.211 191.521C165.182 192.171 174.81 192.835 183.795 193.498L185.111 193.591L185.483 193.617C188.673 193.856 191.792 194.095 194.811 194.334C197.171 194.52 199.475 194.705 201.735 194.891L202.007 194.918L202.164 194.931L203.723 195.063L204.625 195.143L205.512 195.223C206.442 195.302 207.372 195.382 208.244 195.448C215.34 196.058 221.778 196.655 227.4 197.252C228.702 197.385 229.961 197.518 231.163 197.65C239.904 198.619 246.328 199.534 250.777 200.45C257.344 201.79 258.674 202.944 258.617 203.673C258.588 204.058 258.316 204.562 258.03 205.106C257.644 205.823 257.215 206.619 257.129 207.547C257.043 208.476 257.315 209.338 257.558 210.094C257.701 210.559 257.844 211.01 257.873 211.368C257.887 211.713 257.801 211.872 257.658 212.018C256.628 213.026 252.594 213.544 245.655 213.57H245.255C240.133 213.57 233.452 213.318 224.825 212.787C223.624 212.721 222.379 212.642 221.091 212.549C215.483 212.177 209.003 211.7 201.835 211.129L201.248 211.076L200.176 210.983L199.746 210.943L199.217 210.904C194.138 210.492 188.759 210.028 183.208 209.524L179.617 209.206C174.481 208.741 169.174 208.25 163.752 207.72L160.361 207.388C154.653 206.831 148.83 206.26 142.936 205.663L139.13 205.279C136.169 204.974 133.179 204.668 130.203 204.35C125.024 203.806 119.817 203.249 114.638 202.692C104.166 201.551 93.951 200.397 84.2656 199.256C30.1734 192.875 6.5536 188.682 1.78959 186.666C3.50635 186.281 8.28467 185.737 21.5466 185.737L21.5323 184.742ZM21.5323 184.742C8.27036 184.742 0.115748 185.273 0.00129735 186.507C-0.256217 189.226 37.8559 194.785 84.1512 200.237C94.0082 201.405 104.223 202.559 114.538 203.673C119.717 204.244 124.924 204.788 130.103 205.332C133.093 205.65 136.069 205.955 139.045 206.26C140.318 206.393 141.591 206.526 142.85 206.645C148.744 207.242 154.567 207.826 160.275 208.37C161.405 208.476 162.55 208.595 163.666 208.701C169.102 209.219 174.396 209.71 179.546 210.187C180.748 210.293 181.949 210.4 183.137 210.506C188.716 211.01 194.081 211.461 199.16 211.885C199.475 211.912 199.804 211.938 200.104 211.965C200.676 212.005 201.22 212.058 201.778 212.098C209.074 212.681 215.469 213.159 221.048 213.53C222.336 213.61 223.581 213.69 224.797 213.769C233.724 214.313 240.362 214.552 245.298 214.552C245.426 214.552 245.57 214.552 245.698 214.552C257.201 214.525 259.103 213.146 258.989 211.302C258.917 210.187 258.116 208.9 258.245 207.627C258.388 206.194 259.647 204.934 259.733 203.74C259.833 202.307 258.245 200.954 251.049 199.481C246.757 198.606 240.434 197.677 231.335 196.669C230.133 196.536 228.874 196.403 227.558 196.257C222.093 195.687 215.784 195.09 208.373 194.453C207.214 194.347 205.955 194.254 204.739 194.148C203.909 194.082 203.123 194.015 202.264 193.936C202.121 193.923 201.978 193.909 201.835 193.896C199.589 193.71 197.271 193.525 194.911 193.339C191.878 193.1 188.759 192.861 185.583 192.622C185.025 192.583 184.467 192.543 183.895 192.503C174.839 191.84 165.211 191.163 155.297 190.526C154.052 190.447 152.807 190.367 151.548 190.288C143.351 189.757 134.996 189.253 126.612 188.775C86.2828 186.467 45.5241 184.742 21.5323 184.742Z" fill="#1F3A35"/>
<path d="M247.073 88.5325C247.323 86.8835 247.601 85.1714 247.903 83.4224C248.339 80.8096 248.809 78.0526 249.33 75.1957C243.276 44.2842 234.587 12.584 231.309 9.08436C230.016 12.3353 230.713 31.0125 234.632 61.2257C235.132 65.0724 235.669 68.9395 236.225 72.7281C239.713 77.7819 243.365 83.0975 247.073 88.5325ZM247.696 91.3223C243.491 85.1283 239.296 79.0047 235.201 73.1176C234.646 69.3291 234.097 65.3915 233.577 61.3909C230.286 36.0312 228.097 8.4653 231.062 7.865C231.122 7.84854 231.193 7.84762 231.26 7.8598C235.078 8.54673 245.021 47.8221 250.371 75.1508C249.84 78.047 249.358 80.8564 248.917 83.5502C248.535 85.8175 248.191 87.9824 247.889 90.0319C247.827 90.4715 247.769 90.8981 247.696 91.3223Z" fill="#1F3A35"/>
<path d="M258.421 103.861C258.539 103.475 258.669 103.091 258.789 102.692C259.127 101.653 259.473 100.576 259.829 99.4592C260.646 96.9464 261.559 94.261 262.523 91.4762C263.472 84.9791 264.437 77.0987 265.322 68.6603C268.503 38.1423 268.909 17.7529 267.487 14.488C264.612 17.9806 257.807 45.698 252.539 75.587C252.035 78.4836 251.555 81.2759 251.134 83.9298C250.771 86.1593 250.436 88.3261 250.144 90.365L250.013 91.292C252.035 94.3006 254.044 97.3067 256.05 100.326C256.848 101.492 257.64 102.684 258.421 103.861ZM258.747 106.231C257.564 104.45 256.384 102.657 255.191 100.861C253.123 97.7486 251.029 94.6317 248.945 91.5302C249.002 91.1058 249.058 90.6814 249.131 90.2464C249.423 88.2075 249.755 86.0537 250.125 83.7982C250.561 81.1337 251.031 78.3259 251.532 75.4423C256.389 47.8691 264.345 12.9037 267.678 13.2458C267.691 13.2482 267.705 13.2507 267.718 13.2531C270.685 13.7995 269.045 42.7534 266.347 68.7268C265.478 77.0324 264.503 85.0195 263.531 91.6754C262.564 94.4732 261.659 97.1872 260.819 99.7366C260.453 100.838 260.106 101.915 259.782 102.956C259.404 104.11 259.071 105.19 258.747 106.231Z" fill="#1F3A35"/>
<path d="M267.86 117.065C268.285 116.07 268.716 115.048 269.182 113.993L269.324 113.679C269.418 113.452 269.526 113.227 269.617 113.013C271.407 108.939 273.471 104.4 275.763 99.5356C284.915 69.068 292.443 35.4883 291.245 30.8376C287.691 33.9613 275.706 62.3446 265.393 92.1911C264.423 95.0021 263.504 97.7138 262.683 100.24C262.317 101.341 261.97 102.419 261.646 103.46C261.333 104.449 261.036 105.372 260.758 106.273L262.021 108.19C263.993 111.176 265.942 114.144 267.86 117.065ZM268.038 119.231C265.797 115.788 263.488 112.279 261.145 108.735C260.641 107.977 260.137 107.218 259.636 106.446C259.96 105.405 260.291 104.338 260.656 103.182C260.993 102.144 261.34 101.066 261.693 99.9624C262.533 97.4128 263.439 94.6986 264.406 91.9006C273.694 64.9777 288.172 29.0082 291.565 29.6328C291.579 29.6353 291.592 29.6377 291.605 29.6402C295.118 30.5859 284.985 72.3015 276.702 99.8578C274.438 104.659 272.348 109.248 270.533 113.372C270.388 113.698 270.243 114.025 270.098 114.352C269.343 116.115 268.663 117.729 268.038 119.231Z" fill="#1F3A35"/>
<path d="M276.252 129.161C276.376 128.925 276.515 128.691 276.643 128.442C277.182 127.452 277.74 126.438 278.331 125.402C280.971 120.684 284.089 115.291 287.371 109.792C290.727 101.652 294.345 92.3892 297.549 83.7044C307.161 57.6499 309.294 47.5721 309.045 45.2945C305.355 47.9972 291.452 72.9971 278.417 100.496C276.102 105.382 274.019 109.93 272.21 114.023C272.115 114.251 272.009 114.463 271.917 114.678L271.774 114.992C271.11 116.518 270.478 117.968 269.878 119.396L270.95 121.021C272.761 123.788 274.54 126.507 276.252 129.161ZM276.312 131.172C274.304 128.057 272.22 124.846 270.069 121.568C269.627 120.889 269.172 120.207 268.734 119.514C269.365 118.01 270.05 116.393 270.829 114.615C270.975 114.288 271.108 113.959 271.268 113.634C273.086 109.501 275.208 104.906 277.492 100.096C289.509 74.7388 306.199 43.496 309.493 44.0967C309.52 44.1015 309.546 44.1064 309.57 44.1244C311.866 44.9922 306.008 63.7143 298.526 84.005C295.247 92.8938 291.663 102.067 288.311 110.194C285.028 115.693 281.919 121.047 279.245 125.854C278.667 126.892 278.109 127.907 277.556 128.895C277.123 129.673 276.706 130.441 276.312 131.172Z" fill="#1F3A35"/>
<path d="M284.609 141.455C285.38 140.327 286.168 139.188 287.025 137.993L287.087 137.909C287.383 137.486 287.696 137.051 288.025 136.607C289.485 134.58 291.099 132.378 292.821 130.072C308.175 101.359 323.042 67.9771 322.787 62.982C319.497 65.0311 306.491 83.1808 289.878 110.862C286.57 116.384 283.414 121.798 280.756 126.524C280.174 127.564 279.612 128.58 279.073 129.56C278.733 130.166 278.413 130.749 278.11 131.321L279.212 133.02C281.08 135.935 282.886 138.757 284.609 141.455ZM284.564 143.315C282.598 140.218 280.515 136.965 278.325 133.569C277.864 132.845 277.389 132.118 276.915 131.391C277.312 130.659 277.728 129.903 278.154 129.107C278.697 128.115 279.259 127.099 279.855 126.061C282.56 121.248 285.674 115.895 288.982 110.372C302.899 87.1658 320.128 61.219 323.265 61.787C323.305 61.7943 323.346 61.8016 323.383 61.822C326.736 63.438 307.443 104.826 293.679 130.541C291.96 132.834 290.33 135.047 288.844 137.123C288.509 137.594 288.176 138.052 287.86 138.499C286.627 140.28 285.54 141.855 284.564 143.315Z" fill="#1F3A35"/>
<path d="M293.73 155.356C294.618 154.354 295.542 153.317 296.537 152.224C297.336 151.357 298.192 150.431 299.097 149.472C301.857 146.537 305.016 143.291 308.464 139.838C312.64 133.795 317.154 126.979 321.526 120.11C338.104 94.0834 346.08 77.8018 345.359 75.3621C344.625 75.4763 340.788 77.0557 325.57 94.1956C316.04 104.935 304.4 119.205 295.194 131.439C293.439 133.775 291.799 135.982 290.324 138.027C290.009 138.462 289.693 138.897 289.395 139.322L289.332 139.407C288.275 140.884 287.311 142.269 286.376 143.646L286.407 143.693L286.788 144.294L287.056 144.711C289.542 148.589 291.772 152.175 293.73 155.356ZM293.549 157.073C291.453 153.635 289.007 149.709 286.165 145.248C285.949 144.909 285.733 144.569 285.517 144.23C285.392 144.043 285.269 143.843 285.147 143.644C286.13 142.18 287.229 140.587 288.477 138.843C288.795 138.394 289.13 137.935 289.469 137.463C290.966 135.381 292.609 133.161 294.342 130.862C312.274 107.047 340.911 73.4967 345.696 74.3566C345.805 74.3761 345.896 74.4062 345.982 74.4626C348.865 76.3067 336.229 98.8861 322.403 120.582C317.986 127.525 313.452 134.364 309.273 140.421C305.861 143.84 302.666 147.12 299.853 150.1C298.947 151.058 298.095 151.971 297.292 152.852C295.892 154.405 294.657 155.796 293.549 157.073Z" fill="#1F3A35"/>
<path d="M303.38 171.146C304.337 170.29 305.36 169.335 306.449 168.283C308.46 166.341 310.768 163.986 313.297 161.3C323.52 150.468 336.83 134.966 347.203 121.776C363.786 100.707 364.645 96.27 364.592 95.4794C363.843 95.5235 360.006 96.6047 344.19 110.164C334.14 118.78 321.636 130.424 310.732 141.314C307.248 144.787 304.069 148.056 301.28 150.996C300.369 151.957 299.526 152.875 298.722 153.745C297.552 155.016 296.47 156.22 295.452 157.394C295.809 157.979 296.153 158.561 296.49 159.115C299.455 164.017 301.722 167.972 303.38 171.146ZM303.036 172.77C301.411 169.574 299.002 165.32 295.571 159.636C295.125 158.884 294.655 158.115 294.164 157.315C295.279 156.034 296.52 154.639 297.939 153.098C298.742 152.228 299.6 151.312 300.514 150.338C303.345 147.337 306.555 144.06 309.985 140.632C330.862 119.783 360.174 93.6337 364.956 94.4893C365.119 94.5186 365.249 94.5693 365.353 94.6701C369.091 97.8743 334.673 140.144 314.077 161.961C311.452 164.752 309.17 167.057 307.192 168.978C305.627 170.48 304.264 171.729 303.036 172.77Z" fill="#1F3A35"/>
<path d="M247.279 116.347C244.968 112.543 242.649 108.71 240.348 104.866L240.084 104.529L239.555 103.853C233.865 96.6221 226.443 87.7394 218.632 78.8568C200.308 58.0207 189.323 47.7412 186.106 46.4059C186.565 50.9179 201.747 74.793 219.7 99.1624C226.758 103.315 234.054 107.8 240.81 112.134C242.445 113.173 244.025 114.202 245.553 115.208C246.127 115.574 246.697 115.953 247.279 116.347ZM250.687 119.89C248.87 118.652 246.948 117.368 244.923 116.038C243.395 115.031 241.815 114.002 240.18 112.963C233.487 108.668 226.101 104.139 218.917 99.9088C202.207 77.2563 182.484 47.4213 185.309 45.3501C185.465 45.2394 185.674 45.2075 185.949 45.2567C189.741 45.933 204.83 61.5405 219.446 78.1575C227.134 86.8936 234.697 95.912 240.404 103.187C240.69 103.557 240.968 103.897 241.24 104.264C244.39 109.547 247.568 114.779 250.687 119.89Z" fill="#1F3A35"/>
<path d="M261.215 137.304C258.284 132.601 255.24 127.64 252.107 122.509L250.774 120.327C248.858 119.019 247.012 117.78 245.16 116.568C243.622 115.551 242.03 114.525 240.402 113.464C233.565 109.066 226.172 104.512 219.046 100.3C201.988 90.2256 189.167 83.7477 184.756 82.9564C184.478 82.9066 184.281 82.8852 184.136 82.8871C185.082 85.7814 197.423 97.3846 220.228 114.917C221.512 115.902 222.797 116.887 224.07 117.856L224.267 118.003C227.232 120.253 230.231 122.482 233.191 124.634C241.181 128.01 248.876 131.416 255.43 134.506C256.522 135.023 257.6 135.538 258.626 136.029L259.041 136.23C259.289 136.344 259.533 136.472 259.767 136.583C260.245 136.823 260.737 137.065 261.215 137.304ZM264.13 139.951C262.663 139.185 261.033 138.375 259.233 137.494C258.856 137.314 258.479 137.135 258.092 136.94C257.066 136.448 256.002 135.936 254.91 135.419C248.317 132.308 240.559 128.862 232.607 125.507C229.672 123.374 226.638 121.111 223.571 118.8C223.571 118.8 223.571 118.8 223.557 118.798C222.21 117.774 220.862 116.749 219.504 115.709C200.146 100.835 181.223 84.6141 183.106 82.1713C183.358 81.8394 183.996 81.7722 184.967 81.9464C190.085 82.8646 204.408 90.4502 219.616 99.424C226.844 103.697 234.275 108.271 241.01 112.609C242.641 113.657 244.231 114.696 245.782 115.715C247.834 117.061 249.767 118.358 251.582 119.606C252.061 120.391 252.536 121.188 253.015 121.973C256.855 128.209 260.591 134.272 264.13 139.951Z" fill="#1F3A35"/>
<path d="M270.749 151.212C269.91 149.903 269.067 148.551 268.198 147.18C266.993 145.268 265.758 143.295 264.509 141.263L264.38 141.07L263.981 140.419C262.533 139.663 260.973 138.887 259.323 138.065C259.088 137.952 258.853 137.839 258.608 137.71L258.191 137.507C257.161 137.01 256.106 136.495 255.009 135.971C248.427 132.845 240.69 129.383 232.652 125.965C216.471 119.081 196.086 111.182 187.397 109.606C185.837 109.324 185.039 109.32 184.666 109.365C186.488 113.039 210.403 128.026 237.159 142.173C239.884 143.613 242.664 145.062 245.402 146.447C249.261 147.076 252.972 147.721 256.439 148.349C258.778 148.773 261.017 149.193 263.113 149.602C264.931 149.959 266.635 150.31 268.198 150.636C269.066 150.836 269.923 151.019 270.749 151.212ZM273.044 152.813C271.504 152.449 269.796 152.054 267.915 151.657C266.354 151.318 264.662 150.983 262.844 150.625C260.733 150.214 258.509 149.797 256.197 149.378C252.66 148.736 248.905 148.098 245.004 147.461C242.305 146.097 239.496 144.643 236.606 143.103C211.853 130.01 181.798 111.991 183.559 108.826C183.889 108.223 185.331 108.202 187.629 108.619C195.845 110.108 214.939 117.322 233.101 125.044C241.072 128.437 248.876 131.925 255.497 135.072C256.593 135.596 257.662 136.114 258.692 136.611C259.084 136.795 259.459 136.99 259.838 137.171C261.646 138.063 263.283 138.882 264.756 139.657C264.975 140.021 265.197 140.372 265.42 140.723C266.673 142.741 267.907 144.715 269.113 146.626C270.053 148.123 270.975 149.574 271.875 150.992C271.94 151.089 271.993 151.169 272.044 151.263C272.398 151.793 272.717 152.288 273.044 152.813Z" fill="#1F3A35"/>
<path d="M254.215 164.734C260.018 164.705 265.381 164.751 270.13 164.87C272.434 164.924 274.397 165 276.144 165.065C277.86 165.139 279.44 165.23 280.917 165.331C278.871 162.214 276.662 158.795 274.217 154.948L273.077 153.139L272.969 152.976C271.521 152.624 269.931 152.259 268.25 151.907C266.684 151.561 265 151.222 263.177 150.857C261.088 150.444 258.856 150.018 256.524 149.588C253.004 148.939 249.237 148.288 245.324 147.638C210.779 141.912 178.273 138.889 174.573 141.033C176.394 143.552 195.985 150.589 229.888 159.094C238.4 161.205 246.804 163.154 254.215 164.734ZM254.061 165.776C246.608 164.188 238.162 162.232 229.601 160.083C201.658 153.076 172.59 144.193 173.424 140.778C174.385 136.874 214.192 141.385 245.554 146.581C249.453 147.229 253.234 147.883 256.782 148.537C259.114 148.967 261.346 149.392 263.449 149.809C265.272 150.173 266.967 150.528 268.536 150.86C270.423 151.265 272.136 151.667 273.681 152.037C274.172 152.813 274.673 153.604 275.142 154.347C278.142 159.068 280.741 163.072 283.031 166.52C281.031 166.351 278.736 166.2 276.069 166.079C274.238 165.999 272.244 165.931 270.073 165.873C265.227 165.793 259.805 165.75 254.061 165.776Z" fill="#1F3A35"/>
<path d="M192.581 175.406L192.82 174.386C211.016 177.705 247.087 180.499 269.355 181.017C277.686 181.204 283.69 181.081 287.704 180.637C289.526 180.43 290.958 180.153 292.027 179.809C289.918 177.2 287.294 173.561 284.03 168.743C283.61 168.113 283.166 167.465 282.714 166.788C280.773 166.632 278.68 166.506 276.306 166.399C274.579 166.325 272.616 166.264 270.333 166.202C265.577 166.086 260.219 166.058 254.397 166.088C238.454 166.185 220.989 166.826 207.705 167.804C187.865 169.274 183.625 170.995 182.738 171.556C183.281 171.967 185.335 173.007 192.823 174.373L192.581 175.406ZM192.581 175.406C185.693 174.15 181.421 172.832 181.508 171.53C181.763 167.58 222.816 165.232 254.423 165.044C260.158 165.013 265.586 165.053 270.401 165.166C272.569 165.221 274.56 165.287 276.388 165.365C279.05 165.482 281.345 165.617 283.338 165.796C283.887 166.619 284.418 167.396 284.924 168.155C288.772 173.831 291.609 177.678 293.723 180.204C292.629 180.84 290.796 181.342 287.779 181.685C283.882 182.122 278.046 182.276 269.281 182.081C246.599 181.53 210.625 178.696 192.581 175.406Z" fill="#1F3A35"/>
<path d="M345.901 229.433C346.674 229.57 347.477 229.284 347.981 228.681C348.159 228.477 348.288 228.237 348.362 227.987C348.608 227.199 348.358 226.379 347.699 225.887C347.503 225.741 328.559 211.385 306.001 182.83C305.785 182.889 305.562 182.918 305.35 182.963C304.822 183.063 304.309 183.166 303.955 183.38C303.602 183.594 303.29 183.996 302.947 184.406C302.78 184.625 302.598 184.842 302.42 185.046C325.438 214.265 344.235 228.456 345.041 229.057C345.296 229.255 345.584 229.376 345.901 229.433ZM345.663 230.429C345.194 230.346 344.75 230.156 344.359 229.864C343.504 229.227 324.299 214.699 300.991 184.944C301.875 184.436 302.386 183.141 303.412 182.521C304.323 181.962 305.565 182.004 306.417 181.629C329.133 210.489 348.175 224.918 348.37 225.064C349.382 225.827 349.73 227.081 349.371 228.222C349.254 228.589 349.055 228.942 348.79 229.269C348.014 230.225 346.781 230.629 345.663 230.429Z" fill="#1F3A35"/>
<path d="M296.71 184.124C296.875 184.154 296.953 184.126 297.021 184.083C297.254 183.946 297.541 183.583 297.825 183.234C298.239 182.702 298.71 182.11 299.41 181.698C300.113 181.272 300.863 181.13 301.537 181.002C301.926 180.934 302.287 180.86 302.542 180.754C302.749 180.667 302.795 180.592 302.831 180.502C303.091 179.832 302.831 177.87 300.014 172.351C298.307 169.015 295.856 164.719 292.522 159.205C292.073 158.45 291.6 157.676 291.102 156.885C288.961 153.388 286.454 149.386 283.642 144.984L283.37 144.564L282.985 143.958L282.859 143.77L282.608 143.38C280.608 140.254 278.488 136.968 276.269 133.554L274.834 131.355C272.782 128.205 270.649 124.972 268.467 121.648L267.099 119.585C264.798 116.101 262.426 112.55 260.03 108.981L258.48 106.665C257.265 104.863 256.053 103.048 254.824 101.244C252.7 98.0957 250.562 94.9445 248.421 91.8064C244.096 85.4678 239.844 79.3073 235.772 73.4684C214.168 42.481 203.176 28.5866 199.559 25.3369C201.463 31.6164 215.169 57.5022 243.115 104.049C246.237 109.25 249.408 114.488 252.524 119.591L253.945 121.912C257.743 128.115 261.441 134.08 264.909 139.632L265.438 140.471L265.562 140.672C266.794 142.642 268.008 144.567 269.194 146.433C270.119 147.893 271.026 149.309 271.911 150.693L271.993 150.832L272.077 150.957L272.712 151.952L273.044 152.48L273.355 152.976L274.473 154.705C277.323 159.128 279.841 162.967 282.179 166.415C282.718 167.214 283.225 167.966 283.725 168.689C287.355 173.981 290.156 177.774 292.312 180.308C294.854 183.27 296.106 184.017 296.71 184.124ZM296.473 185.116C295.444 184.932 293.948 183.825 291.479 180.918C289.4 178.48 286.604 174.729 282.84 169.221C282.34 168.498 281.822 167.73 281.283 166.931C279.042 163.61 276.501 159.753 273.566 155.205C273.107 154.49 272.617 153.727 272.137 152.98C271.816 152.468 271.502 151.985 271.17 151.457C271.107 151.363 271.054 151.284 271.004 151.193C270.119 149.808 269.215 148.38 268.287 146.932C267.101 145.067 265.887 143.142 264.655 141.172C264.436 140.83 264.221 140.474 264.002 140.132C260.503 134.533 256.805 128.568 253.027 122.396C252.554 121.622 252.08 120.849 251.61 120.062C248.493 114.959 245.344 109.753 242.201 104.52C218.72 65.3981 195.969 25.0828 198.46 23.5839C198.528 23.5408 198.617 23.529 198.727 23.5486C201.624 24.0651 217.913 45.9739 236.653 72.8399C240.788 78.7727 245.051 84.9489 249.312 91.1935C251.453 94.3316 253.591 97.4828 255.728 100.634C256.954 102.451 258.17 104.253 259.382 106.068C259.9 106.835 260.414 107.616 260.932 108.384C263.338 111.969 265.696 115.517 268.012 119.003C268.477 119.693 268.925 120.393 269.376 121.08C271.561 124.391 273.705 127.639 275.757 130.789C276.24 131.523 276.723 132.257 277.192 132.988C279.424 136.404 281.541 139.703 283.541 142.83C283.668 143.018 283.792 143.219 283.916 143.421C284.134 143.763 284.353 144.105 284.572 144.447C287.434 148.94 289.909 152.896 292.043 156.363C292.537 157.168 293.011 157.942 293.46 158.697C296.917 164.412 299.344 168.69 300.98 171.903C304.768 179.346 304.382 181.082 302.96 181.697C302.112 182.069 300.877 182.028 299.971 182.583C298.95 183.201 298.428 184.486 297.562 184.993C297.233 185.113 296.899 185.192 296.473 185.116Z" fill="#1F3A35"/>
</svg>
